<?xml version="1.0" encoding="UTF-8" standalone="no"?>
<!-- Generator: visioncortex VTracer 0.6.5 -->

<svg
   version="1.1"
   width="1024"
   height="1024"
   id="svg111"
   sodipodi:docname="fireearth.svg"
   inkscape:version="1.4.2 (ebf0e940, 2025-05-08)"
   xmlns:inkscape="http://www.inkscape.org/namespaces/inkscape"
   xmlns:sodipodi="http://sodipodi.sourceforge.net/DTD/sodipodi-0.dtd"
   xmlns="http://www.w3.org/2000/svg"
   xmlns:svg="http://www.w3.org/2000/svg">
  <defs
     id="defs111" />
  <sodipodi:namedview
     id="namedview111"
     pagecolor="#ffffff"
     bordercolor="#000000"
     borderopacity="0.25"
     inkscape:showpageshadow="2"
     inkscape:pageopacity="0.0"
     inkscape:pagecheckerboard="0"
     inkscape:deskcolor="#d1d1d1"
     inkscape:zoom="0.22056338"
     inkscape:cx="142.81609"
     inkscape:cy="-630.20434"
     inkscape:window-width="1712"
     inkscape:window-height="1045"
     inkscape:window-x="0"
     inkscape:window-y="62"
     inkscape:window-maximized="0"
     inkscape:current-layer="svg111" />
  <path
     d="M0 0 C337.92 0 675.84 0 1024 0 C1024 337.92 1024 675.84 1024 1024 C686.08 1024 348.16 1024 0 1024 C0 686.08 0 348.16 0 0 Z "
     fill="#142F46"
     transform="translate(0,0)"
     id="path1"
     style="fill:#243a48;fill-opacity:1" />
  <path
     d="M0 0 C0.07 11.35 0.12 22.69 0.16 34.04 C0.17 39.3 0.19 44.57 0.23 49.84 C0.26 54.94 0.28 60.04 0.28 65.13 C0.29 67.07 0.3 69 0.32 70.93 C0.62 108.01 -14.77 137.34 -39.5 164.25 C-40 164.8 -40.51 165.35 -41.03 165.91 C-43.25 168.29 -45.28 170.19 -48 172 C-54.11 162.44 -60.15 152.86 -65.85 143.06 C-70.73 134.7 -75.78 126.44 -80.81 118.18 C-81.54 116.98 -82.27 115.78 -83 114.58 C-83.18 114.29 -83.18 114.29 -84.07 112.82 C-86.74 108.44 -89.38 104.03 -92 99.62 C-108.01 72.88 -108.01 72.88 -120.81 66.62 C-131.28 64.57 -140.63 65.95 -149.66 71.7 C-159.74 79.21 -165.03 89.65 -171.08 100.38 C-175.15 107.58 -179.38 114.68 -183.69 121.75 C-184.3 122.76 -184.91 123.76 -185.54 124.8 C-189.86 131.86 -189.86 131.86 -191 133 C-193.45 133.11 -195.87 133.15 -198.33 133.16 C-199.09 133.16 -199.86 133.17 -200.65 133.17 C-202.33 133.18 -204 133.19 -205.68 133.2 C-208.34 133.21 -211 133.23 -213.67 133.25 C-221.24 133.31 -228.82 133.37 -236.39 133.4 C-241.02 133.42 -245.65 133.46 -250.28 133.5 C-252.04 133.52 -253.79 133.52 -255.55 133.53 C-300.91 133.62 -341.15 165.17 -373.42 194.66 C-375.51 196.56 -377.63 198.4 -379.77 200.25 C-384.21 204.13 -388.4 208.25 -392.56 212.44 C-393.28 213.15 -393.99 213.86 -394.73 214.6 C-399.36 219.23 -403.75 224.01 -408 229 C-408.51 229.59 -409.01 230.18 -409.54 230.79 C-429.54 254.23 -450.65 284.8 -458.07 315.2 C-459.03 319.12 -460.33 322.35 -462 326 C-466.82 325.32 -470.93 323.43 -475.33 321.46 C-476.15 321.1 -476.96 320.74 -477.8 320.37 C-480.48 319.19 -483.14 318 -485.81 316.81 C-487.67 315.99 -489.53 315.17 -491.4 314.34 C-495.16 312.68 -498.91 311.02 -502.67 309.36 C-509.36 306.4 -516.05 303.46 -522.75 300.53 C-524.69 299.69 -526.64 298.83 -528.58 297.98 C-536.85 294.37 -545.14 290.77 -553.43 287.19 C-564.02 282.61 -574.58 278 -585.12 273.31 C-586.26 272.81 -587.4 272.3 -588.58 271.78 C-597.16 267.96 -597.16 267.96 -601 266 C-598.05 248.69 -574.4 227.76 -561 217 C-559.93 216.11 -558.85 215.23 -557.78 214.34 C-526.95 189.09 -492.48 170.96 -456.75 153.69 C-411.83 131.96 -411.83 131.96 -401 112 C-399.26 106.77 -398.98 101.01 -400.77 95.75 C-408.92 81.07 -431.38 75 -446.54 70.67 C-450.41 69.61 -454.31 68.7 -458.23 67.84 C-475.77 63.97 -491.9 58.04 -503 43 C-504.54 39.93 -504.23 37.4 -504 34 C-501.37 26.57 -495.77 21.71 -489 18 C-473.01 10.53 -455.35 6.69 -438 4 C-437.13 3.86 -436.26 3.73 -435.36 3.59 C-410.65 -0.07 -385.67 0.52 -360.76 0.49 C-354.9 0.49 -349.03 0.46 -343.16 0.44 C-330.63 0.4 -318.1 0.37 -305.58 0.34 C-294.75 0.32 -283.93 0.3 -273.11 0.26 C-272.39 0.26 -271.68 0.26 -270.94 0.26 C-268.04 0.25 -265.15 0.24 -262.25 0.23 C-178.23 -0.02 -94.21 -0.14 0 0 Z "
     fill="#006C91"
     transform="translate(923,596)"
     id="path2" />
  <path
     d="M0 0 C1.03 -0.01 2.07 -0.02 3.13 -0.04 C22.33 -0.07 40.33 7.19 54.4 20.32 C56.54 22.48 58.48 24.72 60.25 27.19 C63.8 26.43 66.98 25.11 70.31 23.69 C81.98 18.73 96.9 17.93 109.12 21.88 C110.86 22.59 112.57 23.36 114.25 24.19 C115.03 24.55 115.81 24.91 116.61 25.29 C131.97 33.1 141.63 45.63 148.25 61.19 C149.54 65.14 150.25 68.01 150.25 72.19 C150.78 71.87 151.32 71.56 151.87 71.23 C169.95 60.85 188.64 58.73 208.82 63.88 C221.27 67.37 230.35 74.09 239.25 83.19 C239.84 83.75 240.44 84.31 241.05 84.89 C251.14 95.22 256.25 111.53 256.62 125.56 C256.18 142.54 250.71 158.79 238.65 171.08 C226.83 181.46 212.85 186.46 197.25 186.19 C197.17 186.72 197.09 187.26 197 187.81 C194.21 196.66 185.99 203.42 178.17 207.83 C164.06 214.38 148.93 215.32 134.25 210.19 C134.14 210.84 134.14 210.84 133.56 214.12 C131.11 225.01 124.25 233.75 115.06 239.88 C100.31 248.72 83.22 253.17 66.09 249.51 C63.62 248.69 63.62 248.69 60.25 247.19 C60.19 248.3 60.13 249.41 60.06 250.56 C58.84 259.89 53.57 267.48 46.25 273.19 C38.88 277.64 33.07 279.36 24.5 279.25 C23.8 279.25 23.11 279.24 22.39 279.24 C20.67 279.22 18.96 279.21 17.25 279.19 C17.3 279.79 17.34 280.4 17.39 281.02 C17.78 290.16 15.42 296.91 9.62 304 C4.79 309.12 -2.47 313.84 -9.71 314.32 C-10.44 314.32 -11.16 314.32 -11.91 314.32 C-12.31 314.32 -12.31 314.32 -14.31 314.32 C-15.14 314.32 -15.96 314.32 -16.81 314.31 C-17.64 314.32 -18.47 314.32 -19.32 314.32 C-19.72 314.32 -19.72 314.32 -21.72 314.32 C-22.45 314.32 -23.17 314.32 -23.92 314.32 C-25.75 314.19 -25.75 314.19 -27.75 313.19 C-27.69 313.91 -27.63 314.64 -27.57 315.39 C-27.11 325.72 -29.53 334.11 -36.56 341.88 C-42.73 347.61 -50.33 351.34 -57.75 355.19 C-61.95 351.72 -65.86 348.12 -69.69 344.25 C-72.6 341.3 -75.53 338.44 -78.69 335.75 C-96.78 320.02 -96.78 320.02 -98.11 306.51 C-98.49 295.66 -96.25 287.48 -89.45 279 C-83.99 273.16 -76.93 268.16 -68.71 267.86 C-67.33 267.87 -65.94 267.9 -64.56 267.94 C-63.86 267.94 -63.17 267.95 -62.45 267.95 C-59.09 268 -55.96 268.16 -52.75 269.19 C-52.97 268.6 -53.18 268.02 -53.41 267.41 C-57.22 255.66 -57.92 242.13 -52.36 230.86 C-45.93 220.16 -37.38 212.17 -25.51 207.84 C-16.06 205.6 -6.81 207.08 2.25 210.19 C2.09 208.89 1.93 207.6 1.77 206.27 C1.24 201.46 1 196.71 0.94 191.88 C0.91 191.11 0.88 190.34 0.85 189.56 C0.8 184.6 1.65 180.57 3.28 175.87 C3.64 174.81 4.01 173.74 4.39 172.64 C4.67 171.83 4.96 171.02 5.25 170.19 C4.34 170.19 3.42 170.19 2.48 170.19 C-6.24 170.21 -14.96 170.23 -23.68 170.24 C-28.16 170.24 -32.64 170.25 -37.12 170.26 C-71.4 170.35 -71.4 170.35 -85.25 169.82 C-86.13 169.79 -87.01 169.76 -87.91 169.73 C-102.11 169.06 -112.48 162.97 -122.06 152.75 C-125.42 148.84 -127.77 144.93 -129.75 140.19 C-130.14 139.34 -130.53 138.5 -130.94 137.62 C-134.53 126.85 -133.95 113.25 -129.27 102.92 C-122.63 90.08 -114.12 80.57 -100.03 75.84 C-92.08 74.26 -82.58 74.02 -74.75 76.19 C-74.8 75.42 -74.84 74.66 -74.89 73.87 C-75.5 55.85 -68.78 38.59 -56.75 25.19 C-56.39 24.78 -56.39 24.78 -54.54 22.7 C-39.89 7.1 -21.06 0.01 0 0 Z "
     fill="#567D8B"
     transform="translate(552.75,63.8125)"
     id="path3" />
  <path
     d="M0 0 C2.39 1.53 4.37 2.99 6.5 4.81 C7.74 5.83 8.98 6.85 10.22 7.86 C10.53 8.12 10.53 8.12 12.12 9.45 C15.04 11.86 18.02 14.18 21 16.5 C22.17 17.42 23.34 18.34 24.5 19.25 C26.82 21.08 29.14 22.9 31.46 24.71 C38.14 29.95 44.78 35.21 51.39 40.52 C56.15 44.33 60.94 48.1 65.74 51.86 C69.95 55.17 74.14 58.52 78.31 61.88 C83.63 66.15 89.01 70.32 94.44 74.44 C100.72 79.21 106.87 84.11 112.97 89.12 C118.55 93.67 124.25 98.05 129.99 102.4 C134.86 106.11 139.62 109.93 144.34 113.83 C147.82 116.67 151.38 119.4 154.95 122.13 C158.42 124.78 161.86 127.46 165.29 130.16 C167.63 132.01 169.97 133.84 172.32 135.67 C173.94 136.95 175.55 138.25 177.16 139.55 C184.3 145.18 190.84 148.32 199.57 150.7 C208.31 153.37 214.78 158.69 221.85 164.29 C223.98 165.99 226.13 167.66 228.29 169.34 C230.5 171.05 232.72 172.77 234.92 174.5 C242.62 180.5 250.39 186.41 258.16 192.32 C263.03 196.02 267.87 199.74 272.71 203.47 C279.46 208.67 286.23 213.83 293 219 C289.5 221.33 287.01 221.68 282.88 222.38 C261.51 226.19 236.16 230.98 221 248 C219.05 250.89 217.44 253.83 216 257 C215.64 257.77 215.27 258.53 214.89 259.32 C212.73 265.79 212.86 273.71 215.09 280.13 C216.29 282.51 217.56 284.76 219 287 C219.33 287.66 219.66 288.32 220 289 C214.79 287.97 209.6 286.92 204.41 285.82 C194.06 283.62 183.73 281.49 173.27 279.9 C168.1 279.1 168.1 279.1 167 278 C166.1 269.36 165.28 261.11 170.56 253.75 C172.57 251.36 172.57 251.36 175 249 C175.49 248.47 175.97 247.93 176.47 247.39 C179.84 244 182.23 242.62 187.06 242.41 C188.85 242.45 190.65 242.52 192.44 242.62 C193.36 242.65 194.28 242.68 195.23 242.71 C197.49 242.78 199.74 242.88 202 243 C200.07 239.29 198.06 235.64 196 232 C195.39 230.9 194.77 229.8 194.14 228.67 C189.27 220.61 189.27 220.61 185.49 218.8 C183.28 218.31 181.26 218.02 179 218 C178.82 218.76 178.64 219.52 178.45 220.3 C178.2 221.29 177.95 222.29 177.69 223.31 C177.44 224.3 177.2 225.28 176.95 226.3 C175.98 229.05 175.37 230.34 173 232 C167.01 232.1 162.75 230.57 157.31 228.12 C147.63 223.77 135.14 219.31 124.69 223.25 C121.86 225.09 120.62 226.06 119 229 C118.89 231.84 118.91 234.49 119.06 237.31 C119.38 248.41 116.52 257.52 113 268 C110.6 267.86 108.21 267.71 105.81 267.56 C105.48 267.54 105.48 267.54 103.77 267.44 C101.85 267.32 99.92 267.16 98 267 C97.09 266.94 96.18 266.88 95.25 266.82 C91.83 265.57 90.97 263.38 89.25 260.25 C88.66 259.2 88.06 258.16 87.45 257.08 C86 254 86 254 85 249 C88.96 249 92.92 249 97 249 C96.7 248.51 96.7 248.51 95.16 246.05 C90.02 237.64 85.46 229.1 81.38 220.12 C81.16 219.65 81.16 219.65 80.05 217.23 C77 210.39 77 210.39 77 207 C80.63 206.67 84.26 206.34 88 206 C87.45 205.19 86.91 204.37 86.35 203.54 C66 172.77 66 172.77 66 163 C65.34 163 64.68 163 64 163 C63.85 163.59 63.7 164.18 63.55 164.79 C61.61 171.84 58.7 178.01 55.25 184.44 C54.72 185.44 54.19 186.45 53.64 187.49 C50.05 194.22 46.28 200.68 42 207 C45.63 207 49.26 207 53 207 C48.89 221.38 40.94 236.07 32 248 C35.96 248.33 39.92 248.66 44 249 C40.79 255.94 40.79 255.94 38 259 C34.2 260.04 30.86 259.58 27 259 C25.7 259.04 24.4 259.07 23.05 259.11 C20.12 258.74 19.21 258.24 17.24 255.98 C15.5 253.24 13.98 250.45 12.5 247.56 C11.96 246.58 11.43 245.6 10.88 244.59 C7 237.41 7 237.41 7 235 C13.27 235 19.54 235 26 235 C24.37 232.52 22.74 230.05 21.06 227.5 C1 196.69 1 196.69 1 191 C7.93 191 14.86 191 22 191 C22 190.34 22 189.68 22 189 C21.01 188.67 20.02 188.34 19 188 C17.2 185.95 15.53 183.91 13.88 181.75 C13.39 181.12 12.91 180.5 12.41 179.85 C7.71 173.72 3.32 167.4 -1 161 C-1.31 160.56 -1.31 160.56 -2.86 158.36 C-3.13 157.97 -3.13 157.97 -4.5 156 C-4.96 155.34 -5.43 154.68 -5.91 154 C-7 152 -7 152 -8 147 C-2.39 147 3.22 147 9 147 C7.7 145.16 6.4 143.33 5.06 141.44 C-5.52 126.2 -13.6 110.42 -20 93 C-22.33 95.9 -23.95 98.77 -25.5 102.16 C-25.97 103.17 -26.44 104.18 -26.92 105.23 C-27.17 105.77 -27.17 105.77 -28.44 108.5 C-34.95 122.34 -42.52 135.28 -51 148 C-45.39 148 -39.78 148 -34 148 C-36.54 153.26 -39.23 158.17 -42.5 163 C-42.92 163.63 -43.35 164.26 -43.78 164.91 C-48.52 171.89 -53.6 178.61 -58.72 185.32 C-60.15 187.2 -61.58 189.1 -63 191 C-56.07 191 -49.14 191 -42 191 C-47.05 203.63 -55.23 215.24 -63.12 226.25 C-63.68 227.03 -64.24 227.81 -64.81 228.61 C-65.33 229.32 -65.85 230.03 -66.38 230.77 C-66.84 231.39 -67.3 232.02 -67.77 232.67 C-68.18 233.11 -68.58 233.55 -69 234 C-69.66 234 -70.32 234 -71 234 C-71 234.66 -71 235.32 -71 236 C-65.39 236 -59.78 236 -54 236 C-57.8 245.51 -57.8 245.51 -61 248 C-65.13 248.87 -69.11 248.66 -73.31 248.44 C-74.43 248.41 -75.56 248.37 -76.71 248.34 C-79.48 248.26 -82.24 248.14 -85 248 C-85.09 227.54 -85.16 207.08 -85.21 186.61 C-85.23 177.11 -85.26 167.61 -85.3 158.11 C-85.34 149.83 -85.37 141.54 -85.38 133.26 C-85.38 128.88 -85.39 124.49 -85.42 120.11 C-85.45 115.98 -85.46 111.85 -85.45 107.72 C-85.45 106.2 -85.46 104.69 -85.48 103.18 C-85.56 94.21 -85.38 87.26 -79.39 80.07 C-78.87 79.62 -78.35 79.16 -77.81 78.69 C-74.87 75.92 -72.33 73.03 -69.81 69.88 C-66.36 65.58 -62.76 61.51 -59 57.5 C-55.39 53.65 -51.92 49.76 -48.62 45.62 C-43.79 39.6 -38.51 34.05 -33.22 28.43 C-28.67 23.6 -24.34 18.61 -20.09 13.52 C-19.56 12.89 -19.04 12.26 -18.49 11.61 C-17.44 10.36 -16.39 9.1 -15.35 7.83 C-11 2.67 -7.21 -1.14 0 0 Z "
     fill="#C03C0A"
     transform="translate(185,363)"
     id="path4" />
  <path
     d="M0 0 C12.91 -0.17 25.64 0.29 38.5 1.31 C40.29 1.45 42.09 1.59 43.88 1.73 C47.52 2.01 51.15 2.29 54.79 2.59 C58.09 2.85 61.39 3.11 64.7 3.36 C122.46 7.7 180.46 16.75 236.56 31.19 C256.5 36.29 276.75 39.15 297.11 41.93 C387.25 54.25 387.25 54.25 398 65 C398.51 68.24 398.63 70.73 397.15 73.73 C392.38 80.11 384.91 83.43 378 87 C377.15 87.44 376.3 87.88 375.43 88.33 C363.98 94.22 352.4 99.78 340.69 105.12 C329.91 110.05 319.38 115.29 309 121 C308.37 121.34 307.73 121.69 307.08 122.04 C284.06 134.63 262.88 150.63 243.73 168.52 C241 171 241 171 238.27 173.14 C236 175 236 175 234 178 C233.34 178 232.68 178 232 178 C231.88 178.28 231.88 178.28 231.3 179.71 C229.66 182.6 227.62 184.42 225.19 186.69 C220.34 191.36 216.15 196.4 212.06 201.75 C211.79 202.1 211.79 202.1 210.42 203.9 C207.25 208.11 204.51 212.37 202 217 C195.85 215.08 190.04 212.79 184.22 210.05 C183.41 209.67 182.6 209.3 181.77 208.91 C179.2 207.72 176.63 206.51 174.06 205.31 C171.54 204.13 169.01 202.96 166.48 201.78 C164.82 201.01 163.15 200.23 161.48 199.45 C157.27 197.48 153.04 195.57 148.77 193.74 C148.35 193.56 148.35 193.56 146.24 192.65 C144.65 191.97 143.06 191.3 141.47 190.63 C139.61 189.84 137.8 188.93 136 188 C135 185 135 185 135.83 182.79 C142.99 169.67 152.53 159.1 163.23 148.77 C166 146 166 146 167 144 C151.68 146.36 141.95 150.57 132 163 C128.44 152.32 137.76 136.3 142.44 126.62 C145.48 120.71 148.98 115.3 153 110 C140.54 113.75 132.57 119.69 126 131 C124.19 134.61 122.54 138.27 121 142 C120.67 142 120.34 142 120 142 C119.98 136.36 119.96 130.72 119.95 125.09 C119.94 123.17 119.93 121.26 119.92 119.35 C119.83 98.95 119.83 98.95 121 90 C112.91 96.03 109.33 103.24 107 113 C106.65 116.14 106.5 119.28 106.38 122.44 C106.34 123.26 106.3 124.09 106.26 124.94 C106.16 126.96 106.08 128.98 106 131 C105.34 131 104.68 131 104 131 C103.71 130.04 103.42 129.09 103.12 128.11 C98.9 114.66 93.79 101.8 81.32 94.14 C77.97 92.49 74.51 91.27 71 90 C71.58 91 72.16 91.99 72.76 93.02 C78.94 103.95 82.85 114.86 86 127 C86.2 127.73 86.39 128.47 86.6 129.23 C87.77 133.7 88.19 137.42 88 142 C87.01 141.13 86.02 140.27 85 139.38 C70.25 126.77 70.25 126.77 61 127 C61.66 127.89 62.33 128.79 63.01 129.71 C73.72 144.3 73.72 144.3 76 151 C75.67 151.66 75.34 152.32 75 153 C40.71 129.98 9.53 100.55 0.42 58.67 C-0.4 53.43 -0.24 48.16 -0.2 42.87 C-0.19 41.64 -0.19 40.41 -0.19 39.14 C-0.18 35.24 -0.15 31.34 -0.12 27.44 C-0.11 24.78 -0.11 22.12 -0.1 19.47 C-0.08 12.98 -0.04 6.49 0 0 Z "
     fill="#CF510A"
     transform="translate(100,635)"
     id="path5" />
  <path
     d="M0 0 C0.7 -0.01 1.41 -0.02 2.13 -0.02 C8.35 1.05 12.97 5.17 17.69 9.06 C19.02 10.14 20.35 11.23 21.68 12.31 C22.33 12.83 22.97 13.36 23.63 13.9 C25.99 15.83 28.37 17.73 30.75 19.62 C31.14 19.94 31.14 19.94 33.12 21.53 C34.68 22.77 36.25 24.02 37.81 25.25 C43.08 29.43 48.23 33.73 53.33 38.09 C57.33 41.49 61.42 44.73 65.56 47.94 C70.87 52.05 75.87 56.41 80.8 60.98 C83.42 63.36 86.12 65.59 88.88 67.81 C93.41 71.47 97.7 75.33 101.97 79.3 C105.11 82.21 108.34 84.96 111.69 87.62 C117.29 92.13 122.49 97.02 127.69 101.97 C131.41 105.51 135.18 108.9 139.18 112.12 C139.59 112.54 140.01 112.95 140.44 113.38 C140.44 114.03 140.44 114.69 140.44 115.38 C141.01 115.62 141.59 115.86 142.18 116.12 C144.83 117.59 146.47 119.26 148.5 121.5 C149.17 122.22 149.84 122.95 150.54 123.7 C154.84 129.75 155.88 135.59 155.78 142.81 C155.78 143.61 155.78 144.41 155.78 145.24 C155.78 147.86 155.75 150.47 155.73 153.09 C155.72 154.92 155.72 156.75 155.72 158.57 C155.71 163.36 155.68 168.15 155.64 172.94 C155.61 178.69 155.59 184.45 155.58 190.2 C155.55 198.93 155.49 207.65 155.44 216.38 C141.58 216.38 127.72 216.38 113.44 216.38 C113.44 196.58 113.44 176.77 113.44 156.38 C100.24 156.38 87.04 156.38 73.44 156.38 C73.44 168.25 73.44 180.13 73.44 192.38 C68.82 192.38 64.2 192.38 59.44 192.38 C59.44 165.98 59.44 139.57 59.44 112.38 C43.27 112.38 27.1 112.38 10.44 112.38 C10.44 144.72 10.44 177.06 10.44 210.38 C5.49 210.38 0.54 210.38 -4.56 210.38 C-4.56 194.87 -4.56 179.36 -4.56 163.38 C-15.45 163.38 -26.34 163.38 -37.56 163.38 C-37.55 165.56 -37.55 165.56 -37.5 176.62 C-37.47 188.57 -37.79 200.45 -38.56 212.38 C-45.96 210.53 -52.94 208.23 -59.94 205.19 C-60.85 204.79 -61.75 204.4 -62.69 203.99 C-85.53 193.87 -85.53 193.87 -89.56 185.38 C-90.92 179.75 -89.92 175.36 -87.12 170.38 C-78.06 156.84 -65 144.83 -52.56 134.38 C-51.4 133.37 -50.24 132.37 -49.07 131.36 C-47.8 130.26 -46.52 129.16 -45.25 128.06 C-44.64 127.53 -44.03 127.01 -43.4 126.46 C-42.82 125.96 -42.24 125.46 -41.64 124.95 C-41.12 124.5 -40.6 124.05 -40.06 123.59 C-38.63 122.43 -37.1 121.4 -35.56 120.38 C-34.54 118.23 -34.54 118.23 -33.62 115.55 C-33.44 115.06 -33.44 115.06 -32.56 112.53 C-32.37 111.99 -32.37 111.99 -31.44 109.25 C-30.64 106.97 -29.84 104.68 -29.04 102.4 C-28.63 101.23 -28.22 100.07 -27.8 98.86 C-25.89 93.49 -23.89 88.15 -21.88 82.81 C-21.69 82.32 -21.69 82.32 -20.74 79.8 C-20.02 77.88 -19.3 75.97 -18.57 74.05 C-17.1 70.16 -15.65 66.27 -14.19 62.38 C-12.31 57.38 -10.44 52.38 -8.56 47.38 C-9.45 48.15 -10.33 48.93 -11.25 49.73 C-22.96 59.95 -34.81 70.04 -47.16 79.49 C-49.83 81.58 -52.45 83.73 -55.07 85.88 C-62.5 91.97 -70.06 97.83 -77.77 103.55 C-81.17 106.08 -84.53 108.65 -87.88 111.25 C-100.92 121.31 -114.22 131.02 -127.88 140.24 C-129.42 141.28 -130.95 142.33 -132.48 143.39 C-133.29 143.94 -134.1 144.49 -134.94 145.06 C-135.61 145.52 -136.27 145.98 -136.96 146.45 C-138.56 147.38 -138.56 147.38 -140.56 147.38 C-139.19 140.05 -136.82 133.58 -133.88 126.75 C-133.41 125.65 -132.94 124.55 -132.45 123.41 C-126.3 109.18 -119.43 95.28 -112.56 81.38 C-112.89 81.7 -113.22 82.03 -113.56 82.38 C-118.85 86.76 -124.19 91.09 -129.56 95.38 C-137.68 101.85 -145.67 108.46 -153.69 115.06 C-154.41 115.65 -155.12 116.25 -155.86 116.85 C-159.62 119.95 -163.37 123.04 -167.12 126.14 C-181.45 137.99 -181.45 137.99 -188.56 143.38 C-191.99 141.85 -194.62 139.83 -197.5 137.44 C-198.45 136.65 -199.41 135.85 -200.39 135.04 C-205.8 130.5 -211.19 125.95 -216.56 121.38 C-212.42 116.95 -207.84 113.48 -202.94 109.94 C-201.23 108.69 -199.51 107.44 -197.8 106.19 C-196.93 105.55 -196.06 104.92 -195.16 104.27 C-191.14 101.34 -187.13 98.39 -183.12 95.44 C-182.34 94.86 -181.56 94.29 -180.76 93.7 C-174.17 88.84 -167.61 83.92 -161.06 79 C-154.44 74.02 -147.79 69.07 -141.09 64.18 C-137.77 61.76 -134.47 59.33 -131.28 56.72 C-126.45 52.86 -122.88 50.25 -116.55 50.76 C-111.75 51.75 -107.09 53.19 -102.39 54.57 C-95.12 56.64 -87.56 58.43 -80.29 55.44 C-77.86 53.92 -75.76 52.22 -73.56 50.38 C-72.46 49.49 -71.35 48.61 -70.24 47.73 C-67.68 45.69 -65.14 43.65 -62.6 41.59 C-57.95 37.86 -53.18 34.29 -48.4 30.73 C-44.29 27.68 -40.23 24.58 -36.19 21.44 C-30.9 17.37 -25.57 13.38 -20.19 9.44 C-19.44 8.88 -18.69 8.33 -17.92 7.75 C-12.48 3.8 -7 -0.08 0 0 Z "
     fill="#2F576C"
     transform="translate(767.5625,327.625)"
     id="path6" />
  <path
     d="M0 0 C1.03 -0.01 2.07 -0.02 3.13 -0.04 C22.33 -0.07 40.33 7.19 54.4 20.32 C56.54 22.48 58.48 24.72 60.25 27.19 C63.8 26.43 66.98 25.11 70.31 23.69 C81.98 18.73 96.9 17.93 109.12 21.88 C110.86 22.59 112.57 23.36 114.25 24.19 C115.03 24.55 115.81 24.91 116.61 25.29 C132.87 33.55 143.78 47.67 149.45 64.8 C150.76 70.32 150.76 70.32 150.25 73.19 C148.34 75.07 148.34 75.07 145.75 76.88 C134.31 85.58 128.71 96.79 124.25 110.19 C123.7 110.04 123.15 109.9 122.59 109.75 C108.94 106.55 95.22 106.97 82.94 114.06 C72.84 120.59 65.98 128.27 63.25 140.19 C62.78 143.2 62.49 146.15 62.25 149.19 C61.11 149.03 59.97 148.87 58.8 148.71 C43.89 146.86 30.94 147.57 18.32 156.48 C14.32 159.78 10.61 163.71 8.1 168.28 C6.25 170.19 6.25 170.19 3.08 170.68 C1.77 170.67 0.46 170.66 -0.89 170.66 C-1.25 170.66 -1.25 170.66 -3.08 170.66 C-5.49 170.67 -7.89 170.64 -10.3 170.61 C-11.99 170.61 -13.68 170.61 -15.37 170.6 C-18.92 170.6 -22.48 170.58 -26.04 170.54 C-30.53 170.51 -35.02 170.49 -39.51 170.48 C-54.76 170.44 -70.03 170.37 -85.27 169.8 C-86.15 169.77 -87.03 169.74 -87.93 169.71 C-102.12 169.06 -112.48 162.96 -122.06 152.75 C-125.42 148.84 -127.77 144.93 -129.75 140.19 C-130.14 139.34 -130.53 138.5 -130.94 137.62 C-134.53 126.85 -133.95 113.25 -129.27 102.92 C-122.63 90.08 -114.12 80.57 -100.03 75.84 C-92.08 74.26 -82.58 74.02 -74.75 76.19 C-74.8 75.42 -74.84 74.66 -74.89 73.87 C-75.5 55.85 -68.78 38.59 -56.75 25.19 C-56.39 24.78 -56.39 24.78 -54.54 22.7 C-39.89 7.1 -21.06 0.01 0 0 Z "
     fill="#557D8B"
     transform="translate(552.75,63.8125)"
     id="path7" />
  <path
     d="M0 0 C9.52 4.1 14.34 16.19 19.25 24.79 C23.5 32.21 27.92 39.52 32.38 46.81 C37.47 55.17 42.54 63.55 47.5 72 C52.3 80.17 57.19 88.28 62.12 96.38 C68.42 106.71 74.64 117.09 80.81 127.5 C81.01 127.84 81.01 127.84 82.04 129.57 C82.84 130.92 83.64 132.27 84.44 133.63 C84.83 134.28 85.22 134.94 85.62 135.61 C86 136.25 86.38 136.9 86.77 137.56 C91.34 145.27 95.96 152.96 100.59 160.65 C103.19 164.97 105.78 169.3 108.38 173.62 C109.32 175.2 110.27 176.78 111.21 178.35 C111.66 179.11 112.11 179.86 112.58 180.64 C113.59 182.31 114.61 183.97 115.65 185.63 C116.18 186.5 116.72 187.37 117.28 188.27 C117.77 189.05 118.27 189.83 118.78 190.64 C121.22 195.34 121.84 200.17 120.33 205.27 C117.72 211.04 113.79 214.47 108 217 C104.98 217.2 102.05 217.28 99.03 217.27 C98.57 217.28 98.57 217.28 96.25 217.29 C93.18 217.31 90.1 217.31 87.02 217.31 C84.81 217.31 82.61 217.32 80.41 217.33 C74.41 217.35 68.42 217.36 62.42 217.37 C58.68 217.37 54.94 217.38 51.19 217.38 C40.82 217.4 30.45 217.42 20.08 217.42 C19.41 217.42 18.75 217.42 18.07 217.42 C16.72 217.42 15.38 217.42 14.03 217.42 C13.36 217.43 12.7 217.43 12.01 217.43 C11.34 217.43 10.67 217.43 9.98 217.43 C-0.85 217.43 -11.68 217.46 -22.51 217.49 C-33.63 217.53 -44.75 217.55 -55.88 217.55 C-62.12 217.55 -68.36 217.56 -74.61 217.59 C-80.48 217.62 -86.35 217.62 -92.23 217.6 C-94.38 217.6 -96.54 217.61 -98.69 217.62 C-101.64 217.64 -104.58 217.63 -107.52 217.61 C-108.37 217.63 -109.22 217.64 -110.1 217.65 C-116.17 217.57 -120.31 215.89 -125 212 C-128.83 207.64 -129.94 202.93 -129.68 197.17 C-128.35 190.96 -124.85 185.8 -121.53 180.47 C-119.85 177.76 -118.22 175.03 -116.59 172.29 C-113.41 166.95 -110.21 161.63 -106.99 156.31 C-103.72 150.87 -100.45 145.44 -97.19 140 C-96.56 138.95 -95.93 137.9 -95.28 136.83 C-91.36 130.29 -87.48 123.74 -83.63 117.17 C-78.99 109.25 -74.25 101.39 -69.52 93.53 C-67.07 89.46 -64.63 85.38 -62.19 81.31 C-58.99 75.98 -55.78 70.64 -52.58 65.31 C-51.36 63.29 -50.15 61.27 -48.94 59.25 C-48.63 58.74 -48.63 58.74 -47.08 56.16 C-43.38 50 -39.71 43.83 -36.07 37.64 C-35.22 36.21 -34.37 34.77 -33.52 33.33 C-31.88 30.55 -30.24 27.77 -28.61 24.99 C-12.75 -1.93 -12.75 -1.93 0 0 Z "
     fill="#557D8C"
     transform="translate(796,680)"
     id="path8" />
  <path
     d="M0 0 C8.9 5.75 16.31 14.09 23.69 21.62 C25.83 23.81 27.98 25.99 30.14 28.16 C30.39 28.42 30.39 28.42 31.69 29.74 C35.09 33.15 38.61 36.38 42.28 39.5 C44.99 41.86 47.49 44.43 50 47 C59.75 56.81 66.94 63.08 80.94 65.44 C94.15 67.72 101.6 73.96 111 83 C116.36 87.83 121.89 92.48 127.37 97.17 C145.55 112.74 145.55 112.74 153.25 119.75 C156.52 122.72 159.87 125.54 163.31 128.31 C168.13 132.2 172.65 136.33 177.16 140.56 C181.37 144.48 185.76 148.12 190.25 151.72 C193.8 154.66 197.16 157.78 200.52 160.92 C203.71 163.87 206.98 166.66 210.38 169.38 C215.46 173.46 220.18 177.85 224.92 182.31 C229.4 186.51 234.03 190.39 239 194 C238.67 194.66 238.34 195.32 238 196 C215.71 195.96 193.42 195.9 171.14 195.82 C160.79 195.78 150.44 195.74 140.09 195.73 C131.07 195.72 122.05 195.69 113.03 195.65 C108.25 195.62 103.48 195.61 98.7 195.61 C94.2 195.61 89.7 195.59 85.21 195.56 C83.56 195.55 81.91 195.55 80.26 195.55 C69.21 195.59 62.09 194.45 53.08 187.46 C52.65 187.13 52.65 187.13 50.49 185.47 C49.61 184.78 48.72 184.09 47.81 183.38 C47.35 183.02 47.35 183.02 45.01 181.21 C43.17 179.79 41.33 178.36 39.49 176.94 C36.85 174.89 34.2 172.85 31.55 170.81 C29.03 168.88 26.52 166.94 24 165 C22.38 163.75 20.76 162.51 19.14 161.26 C18.05 160.42 16.96 159.59 15.87 158.75 C13.18 156.67 10.48 154.6 7.79 152.54 C2.81 148.72 -2.16 144.89 -7.08 140.99 C-8.83 139.61 -10.59 138.24 -12.35 136.87 C-14.86 134.91 -17.34 132.9 -19.81 130.88 C-27.32 124.85 -34.17 120.86 -43.27 117.72 C-52.08 114.52 -58.87 108.94 -66 103 C-67.06 102.13 -68.11 101.26 -69.17 100.39 C-71.12 98.77 -73.07 97.14 -75.01 95.5 C-84.4 87.66 -94.18 80.29 -104 73 C-102.7 70.02 -101.49 68.31 -98.87 66.41 C-98.55 66.17 -98.55 66.17 -96.95 64.99 C-96.61 64.75 -96.61 64.75 -94.88 63.5 C-93.41 62.42 -91.95 61.35 -90.48 60.27 C-89.73 59.73 -88.98 59.18 -88.21 58.62 C-84.85 56.15 -81.52 53.64 -78.19 51.12 C-72.42 46.79 -66.62 42.51 -60.81 38.25 C-53.99 33.24 -47.23 28.15 -40.5 23 C-33.48 17.63 -26.43 12.31 -19.31 7.06 C-18.91 6.76 -18.91 6.76 -16.86 5.25 C-16.12 4.71 -15.38 4.16 -14.61 3.6 C-13.96 3.12 -13.31 2.64 -12.64 2.14 C-8.65 -0.64 -4.69 -1.06 0 0 Z "
     fill="#8A2909"
     transform="translate(431,381)"
     id="path9" />
  <path
     d="M0 0 C11.79 3.55 21.94 10.84 31 19 C31.8 19.72 32.61 20.44 33.43 21.18 C45.07 32.19 53.31 47.11 54.17 63.24 C54.32 72.7 53.04 81.46 51 90.69 C45.49 115.75 45.49 115.75 51 125 C52.89 127.25 54.16 127.87 57.05 128.31 C62.65 128.61 65.52 127.61 70 124 C80.37 108.56 80.45 91.96 80 74 C95.11 82.55 105.05 100.55 109.98 116.81 C113.01 128.07 112.87 140.02 111.49 151.54 C110.96 156.02 110.81 160.43 110.81 164.94 C110.81 165.33 110.81 165.33 110.81 167.3 C110.86 173.04 111.44 178.45 113 184 C105.75 189.65 98.42 195.19 91 200.62 C84.08 205.69 77.24 210.85 70.44 216.06 C63.11 221.68 55.72 227.19 48.19 232.53 C44.91 234.86 41.7 237.2 38.64 239.8 C33.01 244.49 28.65 247.57 21.12 246.93 C14.43 244.93 9.31 240.36 4 236 C2.79 235.04 1.59 234.08 0.38 233.12 C-2.12 231.14 -4.61 229.14 -7.08 227.14 C-11.16 223.85 -15.33 220.67 -19.5 217.5 C-25.61 212.86 -31.64 208.12 -37.61 203.31 C-43.67 198.44 -49.83 193.72 -56 189 C-61.98 184.4 -61.98 184.4 -63.82 182.96 C-66.99 180.5 -70.21 178.14 -73.49 175.83 C-73.88 175.56 -73.88 175.56 -75.82 174.16 C-77.32 173.08 -78.83 172.03 -80.35 170.99 C-86.01 166.87 -87.91 162.87 -89 156 C-89.38 152.42 -89.48 148.91 -89.44 145.31 C-89.43 144.35 -89.42 143.39 -89.41 142.4 C-88.84 118.87 -76.71 99.19 -60.26 83.06 C-54.7 78 -54.7 78 -52 78 C-52.01 78.32 -52.01 78.32 -52.05 79.92 C-52.46 98.96 -51.42 117.87 -37.62 132.6 C-34.67 135.15 -31.41 137.12 -28 139 C-28.29 138.2 -28.58 137.4 -28.88 136.57 C-33.97 120.98 -33.72 105.96 -26.56 90.99 C-23.12 84.66 -18.91 79.38 -14.2 74 C-1.09 58.85 6.57 42.06 6.33 21.83 C5.67 14.11 2.9 7.13 0 0 Z "
     fill="#E2530B"
     transform="translate(290,189)"
     id="path10" />
  <path
     d="M0 0 C1.46 0.01 2.91 0.01 4.37 0.02 C8.15 0.03 11.92 0.07 15.69 0.12 C19.57 0.16 23.44 0.18 27.32 0.2 C34.88 0.24 42.44 0.31 50 0.39 C45.64 8.06 41.26 15.72 36.69 23.27 C31.31 32.18 26 41.13 20.69 50.08 C14.86 59.91 9.01 69.72 3.12 79.52 C0.75 83.47 -1.63 87.43 -4 91.39 C-4.6 92.38 -5.19 93.38 -5.81 94.4 C-24.17 125.05 -24.17 125.05 -24.06 133.58 C-24.05 134.48 -24.04 135.38 -24.04 136.31 C-24.02 137 -24.01 137.68 -24 138.39 C-29.35 141.13 -34.73 143.62 -40.29 145.91 C-41.09 146.24 -41.88 146.57 -42.7 146.91 C-44.43 147.64 -46.17 148.35 -47.9 149.07 C-52.66 151.05 -57.42 153.03 -62.18 155.02 C-63.2 155.44 -64.21 155.87 -65.26 156.3 C-80.43 162.65 -95.54 169.13 -110.66 175.6 C-157.11 195.45 -157.11 195.45 -177.12 187.52 C-180.64 186.08 -183.83 184.5 -187 182.39 C-175.4 125.43 -132.74 69.93 -86 36.39 C-85.41 35.97 -84.82 35.54 -84.22 35.11 C-70.22 25.11 -55.68 15.35 -40.19 7.83 C-39.59 7.53 -39 7.23 -38.38 6.93 C-26.16 1.27 -13.31 -0.21 0 0 Z "
     fill="#9A3107"
     transform="translate(670,748.609375)"
     id="path11" />
  <path
     d="M0 0 C14.33 0.31 28.67 0.64 43 1 C43.39 1.01 43.39 1.01 45.35 1.06 C49.76 1.17 54.16 1.3 58.56 1.44 C59.6 1.46 60.63 1.49 61.7 1.52 C79.61 2.14 91.49 9.13 104.5 21.12 C110.99 27.05 118.01 32.27 125.04 37.53 C126.7 38.77 128.34 40.03 129.98 41.29 C148.41 55.25 169.76 64.24 192.25 69.17 C207.3 72.48 219.04 76.89 231 87 C231.37 87.26 231.37 87.26 233.24 88.58 C233.82 89.05 234.4 89.52 235 90 C235 90.66 235 91.32 235 92 C235.58 92.26 236.16 92.51 236.76 92.77 C243.32 96.37 249.69 103.93 254 110 C254 113 254 113 251.33 115.78 C250.17 116.84 248.99 117.89 247.81 118.94 C247.23 119.46 246.66 119.99 246.06 120.53 C243.5 122.84 240.92 125.06 238.2 127.19 C236 129 236 129 234 132 C233.34 132 232.68 132 232 132 C231.88 132.28 231.88 132.28 231.3 133.71 C229.66 136.6 227.62 138.42 225.19 140.69 C220.34 145.36 216.15 150.4 212.06 155.75 C211.79 156.1 211.79 156.1 210.42 157.9 C207.25 162.11 204.51 166.37 202 171 C195.85 169.08 190.04 166.79 184.22 164.05 C183.41 163.67 182.6 163.3 181.77 162.91 C179.2 161.72 176.63 160.51 174.06 159.31 C171.54 158.13 169.01 156.96 166.48 155.78 C164.82 155.01 163.15 154.23 161.48 153.45 C157.27 151.48 153.04 149.57 148.77 147.74 C148.35 147.56 148.35 147.56 146.24 146.65 C144.65 145.97 143.06 145.3 141.47 144.63 C139.61 143.84 137.8 142.93 136 142 C135 139 135 139 135.83 136.79 C142.99 123.67 152.53 113.1 163.23 102.77 C166 100 166 100 167 98 C151.68 100.36 141.95 104.57 132 117 C128.44 106.32 137.76 90.3 142.44 80.62 C145.48 74.71 148.98 69.3 153 64 C140.54 67.75 132.57 73.69 126 85 C124.19 88.61 122.54 92.27 121 96 C120.67 96 120.34 96 120 96 C119.98 90.36 119.96 84.72 119.95 79.09 C119.94 77.17 119.93 75.26 119.92 73.35 C119.83 52.95 119.83 52.95 121 44 C112.91 50.03 109.33 57.24 107 67 C106.65 70.14 106.5 73.28 106.38 76.44 C106.34 77.26 106.3 78.09 106.26 78.94 C106.16 80.96 106.08 82.98 106 85 C105.34 85 104.68 85 104 85 C103.71 84.04 103.42 83.09 103.12 82.11 C98.9 68.66 93.79 55.8 81.32 48.14 C77.97 46.49 74.51 45.27 71 44 C71.29 44.5 71.29 44.5 72.76 47.02 C78.94 57.95 82.85 68.86 86 81 C86.2 81.73 86.39 82.47 86.6 83.23 C87.77 87.7 88.19 91.42 88 96 C87.01 95.13 86.02 94.27 85 93.38 C70.25 80.77 70.25 80.77 61 81 C61.66 81.89 62.33 82.79 63.01 83.71 C73.72 98.3 73.72 98.3 76 105 C75.67 105.66 75.34 106.32 75 107 C40.59 83.9 11.17 55.37 0.62 14.06 C0.04 10.93 -0.07 7.93 -0.04 4.75 C-0.04 4.3 -0.04 4.3 -0.02 2.04 C-0.01 1.37 -0.01 0.7 0 0 Z "
     fill="#9C3207"
     transform="translate(100,681)"
     id="path12" />
  <path
     d="M0 0 C0.33 0.66 0.66 1.32 1 2 C-0.1 4.84 -1.26 7.6 -2.5 10.38 C-5.46 17.19 -8.16 24.03 -10.56 31.06 C-13.03 38.31 -15.66 45.46 -18.53 52.55 C-19.92 56.02 -21.16 59.41 -22.06 63.04 C-24.84 73.67 -29.79 78.3 -38.27 84.67 C-40.76 86.58 -43.06 88.69 -45.38 90.81 C-48.13 93.32 -50.91 95.78 -53.75 98.19 C-79.92 121.22 -79.92 121.22 -80.88 134.38 C-80.43 138.54 -79.3 141.28 -76.32 144.23 C-64.9 152.95 -51.34 158.01 -38 163 C-35.36 163.99 -32.72 164.98 -30 166 C-30 177.88 -30 189.76 -30 202 C-52.68 202 -70.62 195.12 -87.05 179.61 C-90.54 176.31 -94.12 173.2 -97.88 170.19 C-101.55 167.24 -104.88 164.18 -108.14 160.8 C-111.25 157.79 -114.67 155.16 -118.04 152.45 C-121.13 149.9 -124.07 147.23 -127 144.5 C-130.73 141.03 -134.52 137.7 -138.5 134.5 C-142.48 131.3 -146.27 127.97 -150 124.5 C-154.6 120.22 -159.36 116.21 -164.25 112.27 C-170.07 107.46 -175.72 102.39 -181 97 C-174.35 91.33 -167.68 85.7 -160.83 80.27 C-157.17 77.34 -153.55 74.36 -149.94 71.38 C-149.21 70.78 -148.49 70.18 -147.75 69.57 C-145.5 67.71 -143.25 65.86 -141 64 C-138.02 61.54 -135.04 59.08 -132.06 56.62 C-131.35 56.04 -130.64 55.45 -129.91 54.85 C-125.33 51.08 -120.73 47.36 -116.09 43.69 C-114.01 42.01 -112 40.27 -110 38.5 C-107 36 -107 36 -105 36 C-105 35.34 -105 34.68 -105 34 C-104.34 34.33 -103.68 34.66 -103 35 C-104.16 37.5 -105.33 40 -106.5 42.5 C-106.86 43.28 -107.23 44.05 -107.6 44.85 C-109.32 48.51 -111.06 52.16 -112.93 55.74 C-120.46 70.21 -126.95 85.48 -132 101 C-120.82 93.94 -109.98 86.54 -99.33 78.71 C-96.94 76.95 -94.53 75.2 -92.13 73.45 C-83.18 66.91 -74.35 60.24 -65.68 53.34 C-63.93 51.95 -62.17 50.57 -60.41 49.19 C-54.16 44.3 -47.96 39.35 -41.84 34.3 C-38.63 31.7 -35.38 29.16 -32.12 26.62 C-25.82 21.7 -19.7 16.57 -13.62 11.38 C-10.83 9 -8.01 6.66 -5.19 4.31 C-4.19 3.48 -3.19 2.65 -2.17 1.8 C-1.81 1.5 -1.81 1.5 0 0 Z "
     fill="#1F4356"
     transform="translate(759,374)"
     id="path13" />
  <path
     d="M0 0 C-2.24 1.49 -4.21 2.64 -6.62 3.77 C-7.31 4.1 -8 4.43 -8.71 4.78 C-10.14 5.46 -11.58 6.14 -13.02 6.81 C-18.67 9.55 -22.47 12.71 -26 18 C-26.76 21.78 -26.7 25.35 -25.18 28.93 C-18.52 38.32 -2.57 41.06 8 43 C10.91 43.49 13.83 43.97 16.75 44.44 C47.54 49.48 87.55 58.5 108.38 83.71 C115.11 93.21 114.99 103.19 113.56 114.46 C111.24 126.65 104.9 135.68 95 143 C94.26 143.56 93.52 144.11 92.75 144.68 C83.98 150.31 72.31 152.25 62 153 C61.01 152.67 60.02 152.34 59 152 C59.89 151.38 60.79 150.77 61.71 150.13 C83.12 135.21 83.12 135.21 88 125 C88.32 124.34 88.63 123.67 88.96 122.99 C92.55 114.06 92.2 103.4 89.05 94.38 C86.21 87.92 83.06 81.92 77 78 C77.33 78.99 77.66 79.98 78 81 C80.87 92.83 79.65 104.23 74 115 C58.7 139.68 24.83 155 0.34 168.47 C-6.89 172.46 -13.97 176.68 -21 181 C-21.65 181.4 -22.29 181.79 -22.96 182.2 C-32.18 187.88 -41.27 193.73 -50.23 199.8 C-51.38 200.58 -52.54 201.36 -53.69 202.14 C-62.46 208.03 -70.78 214.37 -79 221 C-79.72 221.58 -80.45 222.15 -81.19 222.75 C-85.64 226.41 -89.3 230.59 -93 235 C-93.8 235.91 -94.6 236.82 -95.42 237.76 C-103.61 247.25 -109.78 257.15 -114 269 C-118.36 268.43 -121.86 267.36 -125.84 265.5 C-126.9 265 -127.96 264.51 -129.06 264 C-130.15 263.49 -131.25 262.97 -132.38 262.44 C-133.49 261.92 -134.61 261.4 -135.76 260.86 C-138.51 259.58 -141.26 258.29 -144 257 C-140.09 239.26 -117.94 219.19 -104 208 C-102.93 207.11 -101.85 206.23 -100.78 205.34 C-69.95 180.09 -35.48 161.96 0.25 144.69 C45.17 122.96 45.17 122.96 56 103 C57.74 97.77 58.02 92.01 56.23 86.75 C48.08 72.07 25.62 66 10.46 61.67 C6.59 60.61 2.69 59.7 -1.23 58.84 C-18.77 54.97 -34.9 49.04 -46 34 C-47.54 30.93 -47.23 28.4 -47 25 C-44.33 17.47 -38.68 12.65 -31.81 8.94 C-22.69 4.64 -10.22 -0.88 0 0 Z "
     fill="#008FB7"
     transform="translate(466,605)"
     id="path14" />
  <path
     d="M0 0 C1.46 0.01 2.91 0.01 4.37 0.02 C8.15 0.03 11.92 0.07 15.69 0.12 C19.57 0.16 23.44 0.18 27.32 0.2 C34.88 0.24 42.44 0.31 50 0.39 C45.01 9.17 39.98 17.9 34.72 26.52 C32.01 30.97 29.41 35.45 26.95 40.05 C26.44 40.96 25.94 41.88 25.42 42.82 C24.46 44.57 23.52 46.34 22.62 48.12 C20.7 51.55 19.3 53.86 15.58 55.38 C9.92 56.55 4.23 56.49 -1.54 56.41 C-15.39 56.31 -24.52 59.97 -36 67.39 C-37.22 68.15 -38.45 68.9 -39.68 69.66 C-41.82 70.97 -43.95 72.3 -46.08 73.63 C-56.32 79.81 -63.65 81.69 -75.38 79.39 C-89.64 76.7 -89.64 76.7 -95.92 79.86 C-106.98 87.55 -114.1 98.14 -121.49 109.14 C-124.12 113.05 -126.78 116.94 -129.44 120.83 C-129.98 121.63 -130.53 122.42 -131.09 123.24 C-134.72 128.56 -138.4 133.83 -142.12 139.08 C-147.37 146.48 -152.55 153.92 -157.65 161.42 C-159.03 163.43 -160.41 165.42 -161.8 167.41 C-166.24 173.83 -170.11 179.71 -172 187.39 C-171.34 187.72 -170.68 188.05 -170 188.39 C-176.49 187.97 -181.33 185.48 -187 182.39 C-175.4 125.43 -132.74 69.93 -86 36.39 C-85.41 35.97 -84.82 35.54 -84.22 35.11 C-70.22 25.11 -55.68 15.35 -40.19 7.83 C-39.59 7.53 -39 7.23 -38.38 6.93 C-26.16 1.27 -13.31 -0.21 0 0 Z "
     fill="#CC5109"
     transform="translate(670,748.609375)"
     id="path15" />
  <path
     d="M0 0 C0.66 -0.33 1.32 -0.66 2 -1 C2.28 1.27 2.28 1.27 2 4 C0.09 5.89 0.09 5.89 -2.5 7.69 C-13.94 16.39 -19.54 27.61 -24 41 C-24.55 40.86 -25.1 40.71 -25.66 40.56 C-39.31 37.37 -53.03 37.79 -65.31 44.88 C-75.41 51.4 -82.27 59.08 -85 71 C-85.47 74.01 -85.76 76.96 -86 80 C-86.57 79.92 -86.57 79.92 -89.45 79.52 C-104.36 77.67 -117.31 78.38 -129.93 87.29 C-133.92 90.59 -137.66 94.51 -140.13 99.09 C-142 101 -142 101 -145.32 101.48 C-146.71 101.49 -148.11 101.48 -149.5 101.45 C-149.88 101.45 -149.88 101.45 -151.81 101.46 C-154.32 101.45 -156.84 101.42 -159.36 101.39 C-161.1 101.38 -162.84 101.38 -164.59 101.37 C-169.18 101.36 -173.77 101.32 -178.36 101.27 C-183.05 101.23 -187.73 101.22 -192.42 101.2 C-201.61 101.15 -210.81 101.08 -220 101 C-219.83 100.67 -219.83 100.67 -219 99 C-219.15 98.42 -219.15 98.42 -219.94 95.5 C-222.53 85.76 -221.07 75.94 -216.39 67.08 C-210.37 58.07 -202.43 52.56 -192 50 C-182.64 49.18 -174.41 49.47 -166 54 C-165.35 53.09 -164.69 52.19 -164.02 51.25 C-153.5 37.06 -140.98 27.02 -122.97 24.27 C-112.32 23.29 -101.63 24.08 -91 25 C-90.61 24.32 -90.22 23.64 -89.82 22.95 C-80.47 7.39 -67.7 -2.55 -50 -7 C-32.3 -10.1 -16.2 -7.54 0 0 Z "
     fill="#345D70"
     transform="translate(701,133)"
     id="path16" />
  <path
     d="M0 0 C8.88 5.86 16.28 14.06 23.69 21.62 C25.83 23.81 27.98 25.99 30.14 28.16 C30.65 28.68 31.16 29.2 31.69 29.74 C35.09 33.15 38.61 36.38 42.28 39.5 C44.99 41.86 47.49 44.43 50 47 C59.75 56.81 66.94 63.08 80.94 65.44 C94.15 67.72 101.6 73.96 111 83 C116.36 87.83 121.89 92.48 127.37 97.17 C145.55 112.74 145.55 112.74 153.25 119.75 C156.52 122.72 159.87 125.54 163.31 128.31 C168.13 132.2 172.65 136.33 177.16 140.56 C181.37 144.48 185.76 148.12 190.25 151.72 C193.8 154.66 197.16 157.78 200.52 160.92 C203.71 163.87 206.98 166.66 210.38 169.38 C215.46 173.46 220.18 177.85 224.92 182.31 C229.4 186.51 234.03 190.39 239 194 C238.67 194.66 238.34 195.32 238 196 C228.63 196.16 223.15 193.21 215.69 187.81 C213.57 186.34 211.45 184.87 209.32 183.4 C208.27 182.66 207.21 181.92 206.11 181.15 C201.49 177.96 196.76 174.94 192 171.94 C191.11 171.37 190.21 170.81 189.29 170.22 C181.54 165.32 173.75 160.46 165.96 155.61 C158.37 150.87 150.81 146.07 143.26 141.25 C138.68 138.32 134.08 135.42 129.45 132.56 C117.38 125.11 105.49 117.43 93.69 109.56 C92.99 109.1 92.28 108.63 91.56 108.15 C83.24 102.61 75.03 96.97 67 91 C69.08 97.51 71.84 103.64 74.62 109.88 C75.16 111.08 75.7 112.29 76.25 113.53 C79.75 121.36 83.41 129.07 87.38 136.67 C89.19 140.38 90.6 144.11 92 148 C82.02 145.34 72.64 141.28 63.12 137.31 C59.62 135.86 56.12 134.4 52.62 132.95 C51.77 132.6 50.92 132.25 50.05 131.89 C44.63 129.65 39.18 127.53 33.68 125.48 C19.26 120.05 10.4 110.83 1 99 C0.77 98.71 0.77 98.71 -0.41 97.24 C-6.77 89.29 -12.93 81.18 -19 73 C-10.03 73 -0.23 81.2 7.14 85.84 C9.17 87.1 11.21 88.34 13.26 89.57 C23.44 95.69 33.29 102.16 43 109 C42.32 105.23 40.64 102.39 38.71 99.11 C38.38 98.54 38.04 97.96 37.7 97.37 C36.59 95.5 35.48 93.62 34.38 91.75 C33.6 90.44 32.83 89.13 32.06 87.82 C25.46 76.65 18.6 65.64 11.67 54.66 C9.18 50.69 6.74 46.69 4.31 42.69 C-0.02 35.56 -4.45 28.49 -8.94 21.45 C-17.11 8.62 -17.11 8.62 -16.62 5.81 C-11.88 0.52 -6.93 -1.76 0 0 Z "
     fill="#E55D0D"
     transform="translate(431,381)"
     id="path17" />
  <path
     d="M0 0 C0.33 0 0.66 0 1 0 C1.16 1 1.32 2.01 1.48 3.04 C3.89 17.51 8.96 29.42 15.99 42.23 C23.54 56.15 26.14 69.3 27 85 C34.2 79.03 39.92 72.85 45 65 C45.55 64.17 46.09 63.34 46.65 62.49 C51.6 54.27 53.71 45.23 56 36 C63.65 44.34 64.7 60.13 64.29 70.86 C64.2 72.24 64.1 73.62 64 75 C63.98 75.41 63.98 75.41 63.86 77.46 C63.71 80.04 63.52 82.61 63.31 85.19 C63.26 85.99 63.21 86.79 63.15 87.62 C62.78 91.4 62.38 93.5 60.04 96.57 C55.75 100 51.45 103.38 47.06 106.69 C46.13 107.4 45.2 108.1 44.23 108.83 C38.38 113.25 32.5 117.63 26.48 121.81 C23.44 123.93 20.65 126.18 17.88 128.62 C13.88 131.56 10.17 132.1 5.26 131.83 C-1.55 130.1 -6.68 125.38 -12 121 C-13.21 120.04 -14.41 119.08 -15.62 118.12 C-18.11 116.15 -20.59 114.16 -23.06 112.16 C-27.27 108.76 -31.57 105.47 -35.88 102.19 C-36.59 101.64 -37.31 101.09 -38.05 100.52 C-41.02 98.24 -43.99 96 -47.07 93.87 C-52.75 89.89 -52.75 89.89 -53.88 85.88 C-52.81 81.17 -51.18 76.87 -49.38 72.41 C-46.11 64.32 -43.58 56.73 -43 48 C-37.21 50.27 -34.82 55.75 -32 61 C-30.66 64.36 -29.45 67.71 -28.34 71.15 C-26.73 74.57 -25.19 76.02 -22 78 C-19.65 78.46 -19.65 78.46 -17.38 78.38 C-16.62 78.36 -15.86 78.35 -15.09 78.34 C-13 78 -13 78 -10 76 C-7.4 68.77 -9.14 60.82 -10.5 53.5 C-13.75 35.33 -13.23 18.77 -2.49 3.01 C-1 1 -1 1 0 0 Z "
     fill="#F08A22"
     transform="translate(306,304)"
     id="path18" />
  <path
     d="M0 0 C0.65 0.05 0.65 0.05 3.96 0.33 C5.91 0.49 7.86 0.65 9.81 0.81 C10.35 0.86 10.35 0.86 13.07 1.08 C19.68 1.62 26.28 2.09 32.9 2.49 C36.69 2.72 40.48 2.96 44.28 3.2 C46.15 3.32 48.03 3.43 49.91 3.53 C78.82 5.14 78.82 5.14 90.88 13.44 C91.53 13.87 92.18 14.29 92.85 14.73 C100.11 19.58 107 24.94 113.86 30.33 C117.38 33.08 120.94 35.79 124.5 38.5 C128.81 41.79 133.12 45.09 137.39 48.43 C153 60.58 168.17 71.95 188.57 72.57 C190.38 72.64 192.19 72.81 194 73 C194.33 73.66 194.66 74.32 195 75 C194.16 75.46 193.33 75.92 192.46 76.4 C185.08 80.52 177.96 84.9 170.98 89.67 C168.06 91.66 165.22 93.54 162 95 C160.42 93.71 158.83 92.42 157.25 91.12 C156.24 90.3 155.23 89.48 154.2 88.64 C152.12 86.94 150.09 85.21 148.05 83.46 C130.11 68.03 111.17 60.84 88.56 55.42 C78.7 53.02 70.88 50.67 63 44 C60.68 42.09 58.34 40.2 56 38.31 C55.37 37.8 54.73 37.29 54.08 36.76 C42.9 27.81 30.88 20.33 18.3 13.52 C2.44 4.88 2.44 4.88 0 0 Z "
     fill="#993207"
     transform="translate(214,681)"
     id="path19" />
  <path
     d="M0 0 C6.03 4.22 11.31 9.01 16.65 14.05 C20.19 17.36 23.78 20.53 27.56 23.56 C32.23 27.3 36.59 31.27 40.95 35.35 C45.47 39.55 50.12 43.57 54.83 47.56 C58.7 50.85 62.47 54.23 66.19 57.69 C70.76 61.93 75.49 65.91 80.35 69.82 C83.83 72.68 87.13 75.71 90.46 78.74 C93.14 81.12 95.9 83.38 98.69 85.62 C102.47 88.68 105.96 91.84 109.34 95.33 C111.72 97.73 114.28 99.91 116.84 102.12 C120.08 104.94 123.26 107.82 126.44 110.69 C128.09 112.18 129.75 113.67 131.4 115.15 C137.73 120.83 143.99 126.57 150.23 132.36 C151.43 133.48 152.64 134.59 153.85 135.71 C162.42 143.63 170.82 151.68 179 160 C176.59 160.86 175.37 161.13 172.92 160.28 C172.55 160.08 172.55 160.08 170.68 159.08 C169.85 158.64 169.01 158.19 168.15 157.74 C167.25 157.25 166.36 156.76 165.44 156.25 C164.5 155.75 163.56 155.24 162.6 154.72 C159.72 153.17 156.86 151.59 154 150 C153.19 149.55 152.38 149.1 151.54 148.64 C138.7 141.45 126.26 133.63 113.82 125.78 C111.32 124.2 108.81 122.64 106.3 121.08 C80.09 104.75 53.62 87.93 30.52 67.33 C29.07 66.06 27.58 64.83 26.09 63.61 C9.71 49.85 5.06 21.97 0 2 C0 1.34 0 0.68 0 0 Z "
     fill="#8C2A0A"
     transform="translate(192,416)"
     id="path20" />
  <path
     d="M0 0 C4.66 2.2 8.29 5.59 11 10 C11.45 12.78 11.59 14.84 11.46 17.59 C11.44 18.36 11.42 19.12 11.41 19.91 C11.05 30.87 9.99 41.82 8.97 52.73 C8.62 56.52 8.29 60.31 7.95 64.09 C7.73 66.53 7.51 68.97 7.29 71.41 C7.19 72.52 7.09 73.64 6.99 74.79 C5.31 92.66 5.31 92.66 1.5 96.56 C-2.68 98.96 -5.09 99.49 -10 99 C-14.36 96.28 -16.29 94.1 -17.57 89.14 C-18.45 84.74 -18.86 80.29 -19.29 75.82 C-19.34 75.28 -19.34 75.28 -19.62 72.53 C-19.84 70.23 -20.07 67.93 -20.29 65.63 C-20.62 62.2 -20.97 58.77 -21.32 55.34 C-22.45 44.02 -23.3 32.68 -23.59 21.3 C-23.64 20.28 -23.69 19.26 -23.74 18.21 C-23.81 11.65 -22.48 8.28 -17.9 3.55 C-12.44 -0.9 -6.79 -0.73 0 0 Z "
     fill="#142E45"
     transform="translate(798,733)"
     id="path21" />
  <path
     d="M0 0 C4.45 2.19 7.19 4.94 10 9 C11.69 14.08 11.56 18.32 9.38 23.19 C6.76 27.99 3.15 30.28 -2 32 C-7.35 32.35 -10.68 32.5 -15 29 C-20.12 23.56 -21.36 20.15 -21.28 12.76 C-20.76 7.56 -18.12 5.04 -14.44 1.62 C-9.57 -0.68 -5.29 -0.78 0 0 Z "
     fill="#142E45"
     transform="translate(797,846)"
     id="path22" />
  <path
     d="M0 0 C5.41 -0.23 9.88 0.12 15 2 C18.26 6.94 18.9 12.14 19.69 17.88 C19.75 18.31 19.75 18.31 20.08 20.54 C20.4 22.69 20.7 24.85 21 27 C15.72 26.34 10.44 25.68 5 25 C3.65 21.64 2.74 19.3 2.15 15.9 C2.02 15.16 1.89 14.42 1.76 13.66 C1.63 12.91 1.51 12.15 1.38 11.38 C1.24 10.61 1.11 9.85 0.97 9.06 C0.44 6.01 0 3.11 0 0 Z "
     fill="#C13C09"
     transform="translate(325,613)"
     id="path23" />
  <path
     d="M0 0 C0.33 0 0.66 0 1 0 C1 52.47 1 104.94 1 159 C1.99 159.33 2.98 159.66 4 160 C2.06 160.56 2.06 160.56 0 161 C-1.82 159.18 -1.13 156.34 -1.13 153.89 C-1.13 153.25 -1.13 152.61 -1.13 151.94 C-1.14 149.77 -1.13 147.59 -1.13 145.41 C-1.13 143.86 -1.13 142.31 -1.13 140.75 C-1.14 136.52 -1.14 132.29 -1.13 128.06 C-1.13 123.64 -1.13 119.22 -1.14 114.8 C-1.14 107.38 -1.14 99.95 -1.13 92.53 C-1.12 83.94 -1.13 75.34 -1.13 66.75 C-1.14 59.39 -1.14 52.02 -1.13 44.65 C-1.13 40.25 -1.13 35.85 -1.14 31.44 C-1.14 27.3 -1.14 23.16 -1.13 19.02 C-1.13 17.5 -1.13 15.97 -1.13 14.45 C-1.14 12.38 -1.13 10.3 -1.13 8.23 C-1.13 7.07 -1.13 5.91 -1.13 4.71 C-1 2 -1 2 0 0 Z "
     fill="#323243"
     transform="translate(99,452)"
     id="path24" />
  <path
     d="M0 0 C0.99 0 1.98 0 3 0 C3.51 3.06 4 6.12 4.5 9.19 C4.64 10.05 4.79 10.92 4.93 11.81 C5.59 15.91 6.21 19.83 6 24 C3.89 23.72 1.79 23.42 -0.31 23.12 C-1.48 22.96 -2.66 22.8 -3.86 22.63 C-7 22 -7 22 -10 20 C-8.9 17.41 -7.8 14.83 -6.69 12.25 C-6.38 11.52 -6.07 10.79 -5.75 10.04 C-2.53 2.58 -2.53 2.58 0 0 Z "
     fill="#BE3C0A"
     transform="translate(316,612)"
     id="path25" />
  <path
     d="M0 0 C2.06 0.34 2.06 0.34 4.06 2.34 C4.71 7.42 4.71 7.42 4.06 10.34 C1.43 12.9 1.43 12.9 -1.94 14.34 C-5.2 14.27 -7.11 13.85 -9.88 12.15 C-10.94 10.34 -10.94 10.34 -10.82 7.4 C-8.89 0.64 -6.73 -0.11 0 0 Z "
     fill="#782203"
     transform="translate(304.94140625,792.6640625)"
     id="path26" />
  <path
     d="M0 0 C2.38 1.56 2.38 1.56 4 4 C4.43 7.49 4.67 9.85 2.88 12.94 C0.01 14.56 -1.77 14.52 -5 14 C-7.94 11.94 -7.94 11.94 -10 9 C-10 5.31 -10 5.31 -9 2 C-5.51 -0.33 -4.11 -0.5 0 0 Z "
     fill="#0098B3"
     transform="translate(669,675)"
     id="path27" />
  <path
     d="M0 0 C1.11 2.23 1.16 3.53 1.19 6 C1.2 6.7 1.22 7.4 1.23 8.12 C1 10 1 10 -1 12 C-3.06 12.3 -3.06 12.3 -5.44 12.31 C-5.83 12.32 -5.83 12.32 -7.81 12.36 C-10.5 11.92 -11.39 11.17 -13 9 C-12.91 5.67 -12.24 4.28 -10.06 1.75 C-6.43 -1.34 -4.6 -1.08 0 0 Z "
     fill="#00445C"
     transform="translate(507,802)"
     id="path28" />
  <path
     d="M0 0 C1.94 1.12 1.94 1.12 3 3 C3 6.5 3 6.5 2 10 C-0.25 12 -0.25 12 -3 13 C-6.4 12.76 -7.57 12.43 -10 10 C-10.68 2.86 -10.68 2.86 -8.38 -0.06 C-5.16 -1.33 -3.29 -0.98 0 0 Z "
     fill="#752102"
     transform="translate(593,852)"
     id="path29" />
  <path
     d="M0 0 C2 1.06 2 1.06 3 3 C2.93 6.73 2.8 9.08 0.31 11.94 C-2.72 13.33 -4.7 13.49 -8 13 C-9.94 11.38 -9.94 11.38 -11 9 C-10.87 5.89 -10.48 3.8 -8.88 1.12 C-5.88 -0.67 -3.41 -0.36 0 0 Z "
     fill="#00465F"
     transform="translate(537,775)"
     id="path30" />
  <path
     d="M0 0 C3.95 1.56 3.95 1.56 5.38 3.94 C5.31 7.65 5.13 10.01 2.75 12.94 C-0.64 14.37 -3.1 13.74 -6.62 12.94 C-7.62 11.94 -7.62 11.94 -8 8.12 C-7.96 4.69 -7.79 4.13 -5.44 1.38 C-2.62 -0.06 -2.62 -0.06 0 0 Z "
     fill="#882D0A"
     transform="translate(400.625,720.0625)"
     id="path31" />
  <path
     d="M0 0 C0.4 0.06 0.4 0.06 2.4 0.36 C3.2 0.47 3.99 0.58 4.81 0.69 C6.77 1.11 6.77 1.11 7.77 2.11 C8.17 5.67 8.2 7.49 6.15 10.48 C3.06 12.6 1.45 12.72 -2.23 12.11 C-4.66 10.42 -4.66 10.42 -6.23 8.11 C-6.16 5.24 -5.69 3.72 -3.96 1.44 C-2.23 0.11 -2.23 0.11 0 0 Z "
     fill="#862C09"
     transform="translate(385.2265625,692.890625)"
     id="path32" />
  <path
     d="M0 0 C2.38 1.19 2.38 1.19 4 3 C4.5 5.44 4.5 5.44 4 8 C2.44 10.31 2.44 10.31 0 12 C-3.56 12.5 -3.56 12.5 -7 12 C-9 10.31 -9 10.31 -10 8 C-9.86 5.18 -9.36 3.54 -7.81 1.19 C-5.1 -0.59 -3.17 -0.39 0 0 Z "
     fill="#882D0A"
     transform="translate(438,702)"
     id="path33" />
  <path
     d="M0 0 C2.44 1.69 2.44 1.69 4 4 C3.93 6.83 3.36 8.42 1.88 10.81 C-1.14 12.72 -3.53 12.43 -7 12 C-9 10.31 -9 10.31 -10 8 C-9.86 5.18 -9.36 3.54 -7.81 1.19 C-5.07 -0.61 -3.2 -0.46 0 0 Z "
     fill="#0098B2"
     transform="translate(698,652)"
     id="path34" />
  <path
     d="M0 0 C2.44 1.62 2.44 1.62 4 4 C3.94 7.12 3.94 7.12 3 10 C-0.7 12.47 -2.62 12.47 -7 12 C-9 10.31 -9 10.31 -10 8 C-9.86 5.18 -9.36 3.54 -7.81 1.19 C-5.07 -0.61 -3.2 -0.46 0 0 Z "
     fill="#0099B2"
     transform="translate(780,618)"
     id="path35" />
  <path
     d="M0 0 C1.97 0.27 1.97 0.27 4.97 2.27 C5.47 5.14 5.47 5.14 4.97 8.27 C2.52 10.93 0.93 12.11 -2.65 12.7 C-5.03 12.27 -5.03 12.27 -6.84 11.2 C-8.67 8.21 -8.34 5.69 -8.03 2.27 C-5.42 -0.34 -3.55 0.03 0 0 Z "
     fill="#732002"
     transform="translate(632.02734375,840.734375)"
     id="path36" />
  <path
     d="M0 0 C2.56 0.44 2.56 0.44 4.94 2.06 C6.56 4.44 6.56 4.44 6.62 7.44 C5.31 11.15 3.95 12.47 0.56 14.44 C-1.87 14.23 -3.27 13.52 -5.44 12.44 C-5.52 11 -5.58 9.56 -5.62 8.12 C-5.66 7.32 -5.69 6.52 -5.73 5.7 C-5.44 3.44 -5.44 3.44 -4.08 1.67 C-2.44 0.44 -2.44 0.44 0 0 Z "
     fill="#822C09"
     transform="translate(656.4375,772.5625)"
     id="path37" />
  <path
     d="M0 0 C-3.74 4.12 -7.9 7.16 -12.5 10.28 C-14.69 11.79 -16.78 13.37 -18.88 15 C-22 17 -22 17 -24.2 16.62 C-24.49 16.52 -24.49 16.52 -26 16 C-25.4 15.71 -24.8 15.42 -24.19 15.12 C-22 14 -22 14 -19 12 C-18.71 9.84 -18.71 9.84 -18.81 7.38 C-18.84 6.56 -18.87 5.74 -18.89 4.9 C-18.93 4.27 -18.96 3.65 -19 3 C-12.68 0.69 -6.72 -0.16 0 0 Z "
     fill="#004F6B"
     transform="translate(522,759)"
     id="path38" />
  <path
     d="M0 0 C1 1 1 1 1.25 4.31 C1 8 1 8 -0.06 10.44 C-2 12 -2 12 -5.56 12.38 C-9 12 -9 12 -11 10 C-11.46 6.44 -11.43 4.65 -9.44 1.62 C-6.16 -0.56 -3.86 -0.36 0 0 Z "
     fill="#00435C"
     transform="translate(465,809)"
     id="path39" />
  <path
     d="M0 0 C1.88 1.06 1.88 1.06 3 3 C3.31 6.56 3.31 6.56 3 10 C1 12 1 12 -2.44 12.38 C-6 12 -6 12 -7.94 10.31 C-9.19 7.58 -9.46 5.97 -9 3 C-6.74 -0.65 -4.03 -0.5 0 0 Z "
     fill="#004760"
     transform="translate(428,814)"
     id="path40" />
  <path
     d="M0 0 C3.62 0.19 3.62 0.19 6.62 2.19 C7.06 5.62 7.06 5.62 6.62 9.19 C4.94 11.19 4.94 11.19 2.62 12.19 C-0.18 12.05 -1.86 11.5 -4.25 10.06 C-6.07 7.03 -5.11 4.51 -4.38 1.19 C-3.38 0.19 -3.38 0.19 0 0 Z "
     fill="#01455E"
     transform="translate(395.375,841.8125)"
     id="path41" />
  <path
     d="M0 0 C2.88 0.88 2.88 0.88 4.88 2.88 C5.12 6.38 5.12 6.38 4.88 9.88 C2.88 11.88 2.88 11.88 -0.56 12.19 C-4.12 11.88 -4.12 11.88 -6.06 10.69 C-7.54 8.17 -7.62 6.75 -7.12 3.88 C-4.89 0.61 -4.02 -0.16 0 0 Z "
     fill="#008CAD"
     transform="translate(499.125,761.125)"
     id="path42" />
  <path
     d="M0 0 C1.94 1.06 1.94 1.06 3 3 C2.67 9.33 2.67 9.33 0 12 C-3.5 11.81 -3.5 11.81 -7 11 C-9.16 7.77 -9.47 6.75 -9 3 C-6.74 -0.65 -4.03 -0.5 0 0 Z "
     fill="#721F02"
     transform="translate(280,811)"
     id="path43" />
  <path
     d="M0 0 C0.08 1.62 0.14 3.25 0.19 4.88 C0.22 5.78 0.26 6.68 0.29 7.62 C0.2 8.4 0.1 9.19 0 10 C-3.22 12.15 -4.26 12.56 -8 12 C-10.29 9.87 -10.92 8.53 -11.38 5.44 C-11 3 -11 3 -10 1.19 C-6.76 -0.74 -3.72 -0.18 0 0 Z "
     fill="#822B09"
     transform="translate(619,793)"
     id="path44" />
  <path
     d="M0 0 C2.61 2.61 2.7 4.38 3 8 C2.67 8.5 2.67 8.5 1 11 C-2.44 11.44 -2.44 11.44 -6 11 C-8.41 8.9 -8.9 7.57 -9.44 4.44 C-9 2 -9 2 -7.31 0.12 C-4.38 -1.3 -3.05 -1.04 0 0 Z "
     fill="#742002"
     transform="translate(553,875)"
     id="path45" />
  <path
     d="M0 0 C2 2 2 2 2.25 5 C2 8 2 8 0 10 C-6.1 10.55 -6.1 10.55 -8.94 8.81 C-10.39 6.34 -10.42 4.82 -10 2 C-7.59 -2.25 -4.23 -1 0 0 Z "
     fill="#00445C"
     transform="translate(444,844)"
     id="path46" />
  <path
     d="M0 0 C1.88 1.06 1.88 1.06 3 3 C2.67 9.33 2.67 9.33 0 12 C-2.81 12.36 -4.38 12.38 -6.81 10.88 C-8.55 8.13 -8.4 6.18 -8 3 C-5.91 -0.31 -3.76 -0.56 0 0 Z "
     fill="#0094B4"
     transform="translate(472,783)"
     id="path47" />
  <path
     d="M0 0 C2.44 0.88 2.44 0.88 4.44 3.88 C4.69 6.94 4.69 6.94 4.44 9.88 C2.44 11.88 2.44 11.88 -0.5 12.25 C-3.56 11.88 -3.56 11.88 -5.5 10.19 C-6.86 7.23 -6.65 5.92 -5.56 2.88 C-3.8 0.24 -3.21 -0.16 0 0 Z "
     fill="#0099B3"
     transform="translate(665.5625,627.125)"
     id="path48" />
  <path
     d="M0 0 C0.66 0.7 1.32 1.4 2 2.12 C5.37 5.48 9.13 8.27 12.94 11.12 C14.47 12.28 16 13.44 17.53 14.6 C18.29 15.18 19.04 15.75 19.82 16.34 C22.91 18.69 25.96 21.09 29 23.5 C35.11 28.33 41.29 33.06 47.49 37.76 C48.18 38.29 48.87 38.81 49.58 39.35 C50.19 39.81 50.8 40.28 51.43 40.75 C53 42 53 42 55 44 C51.19 43.39 48.91 41.65 45.88 39.31 C45.36 38.92 44.85 38.53 44.32 38.12 C42.54 36.76 40.77 35.38 39 34 C37.61 32.93 36.23 31.85 34.84 30.78 C31.03 27.82 27.22 24.85 23.41 21.88 C19.32 18.69 15.22 15.5 11.12 12.31 C10.37 11.72 9.62 11.14 8.84 10.53 C8.13 9.98 7.42 9.43 6.7 8.86 C6.08 8.38 5.46 7.9 4.82 7.4 C2.89 5.92 0.95 4.46 -1 3 C-0.67 2.01 -0.34 1.02 0 0 Z "
     fill="#EF9917"
     transform="translate(254,390)"
     id="path49" />
  <path
     d="M0 0 C2.92 1.31 4.95 2.72 7.17 5.01 C7.75 5.6 8.33 6.19 8.92 6.8 C9.53 7.42 10.13 8.04 10.75 8.69 C15.02 13.03 19.29 17.23 23.95 21.16 C27.29 24.15 30.4 27.38 33.55 30.58 C37.08 34.13 40.72 37.49 44.57 40.7 C46 42 46 42 47 44 C42.52 42.59 40.24 40.32 37 37 C36.28 36.65 35.56 36.3 34.81 35.94 C33 35 33 35 32.12 33.16 C30.81 30.64 29.36 29.36 27.19 27.56 C24.52 25.34 21.99 23.04 19.55 20.57 C17.57 18.57 15.57 16.59 13.57 14.61 C11.95 12.99 10.32 11.37 8.69 9.75 C7.85 8.92 7.02 8.09 6.15 7.24 C5.36 6.46 4.58 5.67 3.76 4.86 C3.04 4.14 2.32 3.43 1.57 2.69 C0 1 0 1 0 0 Z "
     fill="#F06C06"
     transform="translate(449,399)"
     id="path50" />
  <path
     d="M0 0 C3.5 0.25 3.5 0.25 5.5 2.25 C5.75 5.25 5.75 5.25 5.5 8.25 C3.5 10.25 3.5 10.25 0 10.5 C-3.5 10.25 -3.5 10.25 -5.5 8.25 C-5.75 5.25 -5.75 5.25 -5.5 2.25 C-3.5 0.25 -3.5 0.25 0 0 Z "
     fill="#009AB3"
     transform="translate(810.5,627.75)"
     id="path51" />
  <path
     d="M0 0 C2.44 0.75 2.44 0.75 4.44 2.75 C4.69 5.75 4.69 5.75 4.44 8.75 C3.78 9.41 3.12 10.07 2.44 10.75 C-1.06 10.56 -1.06 10.56 -4.56 9.75 C-6.56 6.75 -6.56 6.75 -6.38 4.19 C-5.21 0.68 -3.69 -0.36 0 0 Z "
     fill="#0098B4"
     transform="translate(616.5625,644.25)"
     id="path52" />
  <path
     d="M0 0 C3 0.25 3 0.25 5 2.25 C5.31 5.75 5.31 5.75 5 9.25 C2 11.25 2 11.25 -0.56 11 C-3 10.25 -3 10.25 -5 8.25 C-5.25 5.25 -5.25 5.25 -5 2.25 C-3 0.25 -3 0.25 0 0 Z "
     fill="#0099B4"
     transform="translate(594,675.75)"
     id="path53" />
  <path
     d="M0 0 C2.44 0.81 2.44 0.81 4.44 3.81 C3.88 9.37 3.88 9.37 2.44 10.81 C-0.5 11 -0.5 11 -3.56 10.81 C-5.56 8.81 -5.56 8.81 -5.88 5.31 C-5.82 4.74 -5.82 4.74 -5.56 1.81 C-2.56 -0.19 -2.56 -0.19 0 0 Z "
     fill="#0099B3"
     transform="translate(638.5625,691.1875)"
     id="path54" />
  <path
     d="M0 0 C6.58 0.58 6.58 0.58 8 2 C8.29 4.76 8.32 6.44 6.94 8.88 C3.88 10.65 1.34 9.69 -2 9 C-2.12 5.62 -2.12 5.62 -2 2 C-1.34 1.34 -0.68 0.68 0 0 Z "
     fill="#7E2808"
     transform="translate(349,695)"
     id="path55" />
  <path
     d="M0 0 C2.5 0.25 2.5 0.25 4.5 2.25 C4.62 5.88 4.62 5.88 4.5 9.25 C1.12 9.88 1.12 9.88 -2.5 10.25 C-4.5 8.25 -4.5 8.25 -4.75 5.25 C-4.44 1.48 -3.84 0.38 0 0 Z "
     fill="#0099B4"
     transform="translate(645.5,656.75)"
     id="path56" />
  <path
     d="M0 0 C2.62 0.33 4.64 0.82 7 2 C7.23 4.8 7.34 6.46 5.81 8.88 C4 10 4 10 1.44 9.81 C-1 9 -1 9 -3 7 C-2.67 3.7 -2.38 2.38 0 0 Z "
     fill="#0098B4"
     transform="translate(585,733)"
     id="path57" />
  <path
     d="M0 0 C5.57 0.57 5.57 0.57 7 2 C7.19 4.94 7.19 4.94 7 8 C5 10 5 10 2.5 10.25 C0 10 0 10 -2 8 C-2.25 5 -2.25 5 -2 2 C-1.34 1.34 -0.68 0.68 0 0 Z "
     fill="#0099B4"
     transform="translate(606,707)"
     id="path58" />
  <path
     d="M0 0 C5.71 0.71 5.71 0.71 7 2 C7.19 4.94 7.19 4.94 7 8 C5 10 5 10 2.5 10.25 C0 10 0 10 -2 8 C-1.42 1.42 -1.42 1.42 0 0 Z "
     fill="#009AB4"
     transform="translate(713,628)"
     id="path59" />
  <path
     d="M0 0 C0.95 0.04 1.9 0.08 2.88 0.12 C3.5 3.5 3.5 3.5 3.88 7.12 C3.22 7.78 2.55 8.45 1.88 9.12 C-1.25 8.75 -1.25 8.75 -4.12 8.12 C-4.75 5.25 -4.75 5.25 -5.12 2.12 C-3.12 0.12 -3.12 0.12 0 0 Z "
     fill="#0098B2"
     transform="translate(760.125,647.875)"
     id="path60" />
  <path
     d="M0 0 C0.66 1.32 1.32 2.64 2 4 C1.58 4.02 1.58 4.02 -0.52 4.11 C-1.61 4.18 -2.69 4.24 -3.81 4.31 C-4.35 4.34 -4.35 4.34 -7.08 4.49 C-10.17 5.03 -11.13 5.55 -13 8 C-15 6 -15 6 -17 3 C-17 2.34 -17 1.68 -17 1 C-14.19 0.83 -14.19 0.83 0 0 Z "
     fill="#B33D10"
     transform="translate(194,509)"
     id="path61" />
  <path
     d="M0 0 C1.81 0.75 1.81 0.75 2.81 1.75 C2.85 3.75 2.86 5.75 2.81 7.75 C0.1 9.1 -2.2 8.82 -5.19 8.75 C-5.52 6.77 -5.85 4.79 -6.19 2.75 C-2.75 -0.31 -2.75 -0.31 0 0 Z "
     fill="#01435C"
     transform="translate(419.1875,873.25)"
     id="path62" />
  <path
     d="M0 0 C1.88 0.75 1.88 0.75 2.88 1.75 C3.06 4.19 3.06 4.19 2.88 6.75 C2.21 7.41 1.56 8.07 0.88 8.75 C-1.75 8.38 -1.75 8.38 -4.12 7.75 C-4.81 5.44 -4.81 5.44 -5.12 2.75 C-3.57 0.3 -2.93 -0.34 0 0 Z "
     fill="#00435B"
     transform="translate(475.125,838.25)"
     id="path63" />
  <path
     d="M0 0 C2.93 0.37 3.86 0.86 6 3 C5.63 5.93 5.14 6.86 3 9 C-0.54 8.46 -0.54 8.46 -2 7 C-2.19 4.56 -2.19 4.56 -2 2 C-1.34 1.34 -0.68 0.68 0 0 Z "
     fill="#009AB4"
     transform="translate(701,689)"
     id="path64" />
  <path
     d="M0 0 C2.62 0.38 2.62 0.38 5 1 C5.62 3.38 5.62 3.38 6 6 C5.34 6.66 4.68 7.32 4 8 C1.38 7.62 1.38 7.62 -1 7 C-1.62 4.62 -1.62 4.62 -2 2 C-1.34 1.34 -0.68 0.68 0 0 Z "
     fill="#009AB3"
     transform="translate(738,623)"
     id="path65" />
  <path
     d="M0 0 C0.66 0 1.32 0 2 0 C1.67 8.91 1.34 17.82 1 27 C0.67 27 0.34 27 0 27 C-0.9 22.39 -1.13 18.01 -1.12 13.31 C-1.13 12.01 -1.13 10.71 -1.13 9.36 C-1 6 -1 6 0 3 C-0.66 2.67 -1.32 2.34 -2 2 C-1.34 1.34 -0.68 0.68 0 0 Z "
     fill="#EF5A03"
     transform="translate(236,267)"
     id="path66" />
  <path
     d="M0 0 C2.38 -0.12 2.38 -0.12 5 0 C5.66 0.66 6.32 1.32 7 2 C6.46 5.54 6.46 5.54 5 7 C3.33 7.04 1.67 7.04 0 7 C-1.12 2.25 -1.12 2.25 0 0 Z "
     fill="#013E55"
     transform="translate(454,872)"
     id="path67" />
  <path
     d="M0 0 C3.92 1.61 6.67 4.31 9.69 7.19 C14.57 11.77 19.61 16.01 25 20 C24.34 20.66 23.68 21.32 23 22 C22.08 21.14 21.16 20.29 20.22 19.4 C18.98 18.25 17.74 17.09 16.5 15.94 C15.86 15.34 15.22 14.75 14.57 14.14 C10.57 10.43 6.53 6.78 2.36 3.27 C1 2 1 2 0 0 Z "
     fill="#102852"
     transform="translate(637,546)"
     id="path68" />
  <path
     d="M0 0 C1.88 0.75 1.88 0.75 2.88 1.75 C2.92 3.42 2.92 5.08 2.88 6.75 C0.57 6.75 -1.75 6.75 -4.12 6.75 C-4.81 4.94 -4.81 4.94 -5.12 2.75 C-3.55 0.35 -2.9 -0.34 0 0 Z "
     fill="#0099B3"
     transform="translate(726.125,663.25)"
     id="path69" />
  <path
     d="M0 0 C0.66 0 1.32 0 2 0 C2.16 8.72 1.66 17.31 1 26 C0.67 26 0.34 26 0 26 C-0.33 18.74 -0.66 11.48 -1 4 C-1.99 4.66 -2.98 5.32 -4 6 C-2.85 3.53 -1.95 1.95 0 0 Z "
     fill="#083053"
     transform="translate(219,725)"
     id="path70" />
  <path
     d="M0 0 C3.96 0 7.92 0 12 0 C10.12 6.02 7.94 11.43 5 17 C4.67 16.34 4.34 15.68 4 15 C4.9 12.76 5.89 10.55 6.94 8.38 C7.5 7.19 8.07 6 8.65 4.77 C9.1 3.86 9.54 2.94 10 2 C7.03 2 4.06 2 1 2 C0.67 1.34 0.34 0.68 0 0 Z "
     fill="#D74104"
     transform="translate(226,570)"
     id="path71" />
  <path
     d="M0 0 C3.86 1.29 4.59 2.93 6.88 6.25 C9.68 10.23 12.4 13.74 16 17 C9.51 14.87 5.33 9.81 1.82 4.07 C1.15 2.74 0.56 1.38 0 0 Z "
     fill="#EB5A05"
     transform="translate(242,310)"
     id="path72" />
  <path
     d="M0 0 C0.66 0.33 1.32 0.66 2 1 C0.33 2.84 -1.14 4.08 -3.31 5.31 C-6.24 7.15 -8.4 9.21 -10.81 11.69 C-11.21 12.09 -11.21 12.09 -13.21 14.14 C-13.8 14.75 -14.39 15.37 -15 16 C-15 13 -15 13 -12.99 10.62 C-12.11 9.76 -11.22 8.89 -10.31 8 C-9.44 7.13 -8.57 6.27 -7.68 5.38 C-5.2 3.18 -2.96 1.45 0 0 Z "
     fill="#2E576B"
     transform="translate(632,134)"
     id="path73" />
  <path
     d="M0 0 C0 3 0 3 -1 6 C-1.35 7.66 -1.68 9.33 -2 11 C-2.66 11 -3.32 11 -4 11 C-4 10.34 -4 9.68 -4 9 C-5.65 9.66 -7.3 10.32 -9 11 C-8.07 9.73 -7.13 8.46 -6.19 7.19 C-5.67 6.48 -5.14 5.77 -4.61 5.04 C-3.17 3.21 -1.68 1.6 0 0 Z "
     fill="#D85505"
     transform="translate(538,829)"
     id="path74" />
  <path
     d="M0 0 C1.32 0.66 2.64 1.32 4 2 C1.03 4.31 -1.94 6.62 -5 9 C-5.66 8.67 -6.32 8.34 -7 8 C-5.62 5.5 -5.62 5.5 -4 3 C-3.34 3 -2.68 3 -2 3 C-1.67 2.34 -1.34 1.68 -1 1 C-0.67 0.67 -0.34 0.34 0 0 Z "
     fill="#EB5A06"
     transform="translate(376,388)"
     id="path75" />
  <path
     d="M0 0 C0 0.99 0 1.98 0 3 C-1.49 3.16 -1.49 3.16 -9 4 C-9 4.66 -9 5.32 -9 6 C-9.66 6 -10.32 6 -11 6 C-11.17 5.17 -11.17 5.17 -12 1 C-10.02 0.84 -10.02 0.84 0 0 Z "
     fill="#D73F03"
     transform="translate(274,569)"
     id="path76" />
  <path
     d="M0 0 C0.33 0.66 0.66 1.32 1 2 C-0.29 3.82 -1.58 5.63 -2.88 7.44 C-3.23 7.94 -3.23 7.94 -5.05 10.5 C-7 13 -7 13 -9 14 C-7.96 11.76 -6.97 9.96 -5.38 8.06 C-3.69 5.53 -3.75 3.98 -4 1 C-2.68 0.67 -1.36 0.34 0 0 Z "
     fill="#D74005"
     transform="translate(124,582)"
     id="path77" />
  <path
     d="M0 0 C4.52 1.15 8.04 2.58 12 5 C12.99 5 13.98 5 15 5 C15.33 5.5 15.33 5.5 17 8 C12.4 7.46 9.13 6.23 5.12 3.94 C4.16 3.39 3.19 2.84 2.2 2.28 C1.47 1.86 0.75 1.43 0 1 C0 0.67 0 0.34 0 0 Z "
     fill="#812509"
     transform="translate(354,569)"
     id="path78" />
  <path
     d="M0 0 C0 4.14 -1.72 5.21 -4.5 8.19 C-5.34 9.09 -6.17 9.99 -7.03 10.92 C-7.68 11.61 -8.33 12.29 -9 13 C-9.66 12.67 -10.32 12.34 -11 12 C-9.92 10.56 -8.84 9.12 -7.75 7.69 C-7.45 7.29 -7.45 7.29 -5.92 5.26 C-4.1 3.11 -2.32 1.58 0 0 Z "
     fill="#5D8692"
     transform="translate(439,147)"
     id="path79" />
  <path
     d="M0 0 C0.66 0.33 1.32 0.66 2 1 C0.81 3 0.81 3 -1 5 C-3.69 5.25 -3.69 5.25 -6 5 C-2.25 1.12 -2.25 1.12 0 0 Z M-8 5 C-7.34 5 -6.68 5 -6 5 C-6 5.99 -6 6.98 -6 8 C-7.65 8.33 -9.3 8.66 -11 9 C-9.62 7 -9.62 7 -8 5 Z "
     fill="#123455"
     transform="translate(389,767)"
     id="path80" />
  <path
     d="M0 0 C3.54 1.61 6.55 3.72 9.69 6 C10.66 6.7 11.63 7.4 12.64 8.12 C15 10 15 10 16 12 C11.67 10.55 8.68 8.35 5.19 5.44 C4.21 4.63 3.24 3.83 2.23 3 C1.49 2.34 0.76 1.68 0 1 C0 0.67 0 0.34 0 0 Z "
     fill="#0F2F52"
     transform="translate(357,498)"
     id="path81" />
  <path
     d="M0 0 C0 3 0 3 -2 6 C-2 6.99 -2 7.98 -2 9 C-2.66 9.33 -2.66 9.33 -6 11 C-6.33 10.01 -6.66 9.02 -7 8 C-5.57 5.96 -5.57 5.96 -3.56 3.81 C-2.9 3.1 -2.25 2.38 -1.57 1.64 C-1.05 1.1 -0.53 0.56 0 0 Z "
     fill="#D03F06"
     transform="translate(110,439)"
     id="path82" />
  <path
     d="M0 0 C3.63 0.66 7.26 1.32 11 2 C11 2.99 11 3.98 11 5 C12.32 5.66 13.64 6.32 15 7 C11.15 6.4 8.14 5.23 4.69 3.44 C3.8 2.98 2.92 2.53 2.01 2.06 C1.35 1.71 0.68 1.36 0 1 C0 0.67 0 0.34 0 0 Z "
     fill="#00769E"
     transform="translate(437,911)"
     id="path83" />
  <path
     d="M0 0 C0.99 0 1.98 0 3 0 C4.04 5.05 4.1 9.87 4 15 C3.67 15 3.34 15 3 15 C2.34 11.04 1.68 7.08 1 3 C0.67 3.16 0.67 3.16 -1 4 C-0.67 2.68 -0.34 1.36 0 0 Z "
     fill="#DA3E05"
     transform="translate(316,612)"
     id="path84" />
  <path
     d="M0 0 C0.66 0.66 1.32 1.32 2 2 C-1.3 5.63 -4.6 9.26 -8 13 C-8 9.01 -6.52 7.85 -4 4.81 C-3.26 3.91 -2.51 3.01 -1.75 2.08 C-1.17 1.39 -0.6 0.71 0 0 Z "
     fill="#182639"
     transform="translate(901,738)"
     id="path85" />
  <path
     d="M0 0 C1.98 0 3.96 0 6 0 C3.32 3.57 0.57 6.32 -3 9 C-3.66 8.67 -4.32 8.34 -5 8 C-3.71 6.62 -2.37 5.29 -1 4 C-0.34 4 0.32 4 1 4 C0.67 2.68 0.34 1.36 0 0 Z "
     fill="#AF3407"
     transform="translate(349,792)"
     id="path86" />
  <path
     d="M0 0 C0.83 0.17 0.83 0.17 5 1 C4.01 1.33 3.02 1.66 2 2 C2.04 3.07 2.08 4.14 2.12 5.25 C2 9 2 9 0 13 C0 8.71 0 4.42 0 0 Z "
     fill="#0B2239"
     transform="translate(525,377)"
     id="path87" />
  <path
     d="M0 0 C0 4.54 0 4.54 -1 7 C-3.56 8.75 -3.56 8.75 -6 10 C-4.63 6 -2.74 3.2 0 0 Z "
     fill="#DC5606"
     transform="translate(522,849)"
     id="path88" />
  <path
     d="M0 0 C3.6 2.06 6.89 4.25 10 7 C10 7.66 10 8.32 10 9 C8.68 9.33 7.36 9.66 6 10 C5.75 9.24 5.5 8.47 5.25 7.69 C3.88 4.74 2.61 3.83 0 2 C0 1.34 0 0.68 0 0 Z "
     fill="#E25607"
     transform="translate(366,768)"
     id="path89" />
  <path
     d="M0 0 C0.66 0.33 1.32 0.66 2 1 C-0.31 4.63 -2.62 8.26 -5 12 C-6 10 -6 10 -5.31 7.12 C-3.96 3.91 -2.61 2.26 0 0 Z "
     fill="#CD3F08"
     transform="translate(147,486)"
     id="path90" />
  <path
     d="M0 0 C2 0 2 0 4.56 2.31 C7 5 7 5 8 8 C8.99 8.33 9.98 8.66 11 9 C7 9 7 9 5.08 7.29 C4.47 6.55 3.87 5.82 3.25 5.06 C2.64 4.33 2.02 3.6 1.39 2.85 C0 1 0 1 0 0 Z "
     fill="#DE5008"
     transform="translate(346,782)"
     id="path91" />
  <path
     d="M0 0 C0.36 0.37 0.36 0.37 2.19 2.25 C4.69 4.69 7.24 6.87 10 9 C9.67 9.66 9.34 10.32 9 11 C5.7 8.36 2.4 5.72 -1 3 C-0.67 2.01 -0.34 1.02 0 0 Z "
     fill="#E3931C"
     transform="translate(254,390)"
     id="path92" />
  <path
     d="M0 0 C0.66 0.33 1.32 0.66 2 1 C1.67 1.66 1.34 2.32 1 3 C3.64 3 6.28 3 9 3 C9 3.66 9 4.32 9 5 C5.37 5 1.74 5 -2 5 C-1.34 3.35 -0.68 1.7 0 0 Z "
     fill="#052C55"
     transform="translate(229,565)"
     id="path93" />
  <path
     d="M0 0 C0.38 0.17 0.38 0.17 2.31 1 C5 2 5 2 8 2 C8.66 3.65 9.32 5.3 10 7 C5.57 5.61 3.13 3.39 0 0 Z "
     fill="#7A200A"
     transform="translate(466,484)"
     id="path94" />
  <path
     d="M0 0 C0.66 0.33 1.32 0.66 2 1 C1.34 1.99 1.34 1.99 -2 7 C-3.32 6.34 -4.64 5.68 -6 5 C-4.02 3.35 -2.04 1.7 0 0 Z "
     fill="#0F2C4F"
     transform="translate(375,393)"
     id="path95" />
  <path
     d="M0 0 C2.31 0 4.62 0 7 0 C7 0.66 7 1.32 7 2 C5.35 2 3.7 2 2 2 C1.34 3.32 0.68 4.64 0 6 C-0.66 5.34 -1.32 4.68 -2 4 C-1.34 3.67 -0.68 3.34 0 3 C0 2.01 0 1.02 0 0 Z "
     fill="#EF6608"
     transform="translate(422,381)"
     id="path96" />
  <path
     d="M0 0 C0 0.66 0 1.32 0 2 C-4.29 1.67 -8.58 1.34 -13 1 C-13 0.67 -13 0.34 -13 0 C-11.21 -0.19 -9.42 -0.38 -7.62 -0.56 C-7.13 -0.61 -7.13 -0.61 -4.6 -0.88 C-2 -1 -2 -1 0 0 Z "
     fill="#092C50"
     transform="translate(282,610)"
     id="path97" />
  <path
     d="M0 0 C0.66 0.33 1.32 0.66 2 1 C-1.91 4.55 -4.98 5.82 -10 7 C-7.02 3.67 -4.14 1.71 0 0 Z "
     fill="#0C3155"
     transform="translate(426,596)"
     id="path98" />
  <path
     d="M0 0 C0.99 0.66 1.98 1.32 3 2 C2.01 2.83 2.01 2.83 -3 7 C-3.66 6.67 -4.32 6.34 -5 6 C-3.35 4.02 -1.7 2.04 0 0 Z "
     fill="#173451"
     transform="translate(336,809)"
     id="path99" />
  <path
     d="M0 0 C2.64 0 5.28 0 8 0 C6.25 2.06 6.25 2.06 4 4 C1.75 3.75 1.75 3.75 0 3 C0 2.01 0 1.02 0 0 Z "
     fill="#113252"
     transform="translate(577,784)"
     id="path100" />
  <path
     d="M0 0 C2.01 0.29 4.01 0.62 6 1 C6 1.99 6 2.98 6 4 C5.26 3.79 4.51 3.59 3.75 3.38 C0.68 2.96 -0.43 3.38 -3 5 C-1.12 1.12 -1.12 1.12 0 0 Z "
     fill="#0098B7"
     transform="translate(496,761)"
     id="path101" />
  <path
     d="M0 0 C0.5 0.33 0.5 0.33 3 2 C3 2.66 3 3.32 3 4 C3.99 4 4.98 4 6 4 C6.33 5.98 6.66 7.96 7 10 C3.61 6.87 1.39 4.43 0 0 Z "
     fill="#DB4004"
     transform="translate(186,525)"
     id="path102" />
  <path
     d="M0 0 C3.82 1.56 6.19 4.04 9 7 C6.69 6.67 4.38 6.34 2 6 C2 5.01 2 4.02 2 3 C1.34 2.67 0.68 2.34 0 2 C0 1.34 0 0.68 0 0 Z "
     fill="#D64006"
     transform="translate(233,402)"
     id="path103" />
  <path
     d="M0 0 C0.33 0.66 0.66 1.32 1 2 C0.22 3.73 0.22 3.73 -0.94 5.62 C-1.62 6.74 -2.3 7.85 -3 9 C-3.66 8.01 -4.32 7.02 -5 6 C-4.67 5.01 -4.34 4.02 -4 3 C-3.01 3 -2.02 3 -1 3 C-0.67 2.01 -0.34 1.02 0 0 Z "
     fill="#103253"
     transform="translate(517,853)"
     id="path104" />
  <path
     d="M0 0 C0.66 0.99 1.32 1.98 2 3 C0.5 4 0.5 4 -7 9 C-5.44 5.18 -2.96 2.81 0 0 Z "
     fill="#D94004"
     transform="translate(171,370)"
     id="path105" />
  <path
     d="M0 0 C3.09 2.53 3.91 5.22 5 9 C3.35 8.01 1.7 7.02 0 6 C0.33 5.34 0.66 4.68 1 4 C0.56 1.88 0.56 1.88 0 0 Z "
     fill="#B63204"
     transform="translate(171,779)"
     id="path106" />
  <path
     d="M0 0 C0.66 0.99 1.32 1.98 2 3 C1.67 3.99 1.34 4.98 1 6 C-1.31 5.67 -3.62 5.34 -6 5 C-6 4.67 -6 4.34 -6 4 C-4.02 4 -2.04 4 0 4 C0 2.68 0 1.36 0 0 Z "
     fill="#082E52"
     transform="translate(346,636)"
     id="path107" />
  <path
     d="M0 0 C2.15 3.23 2.2 4.28 2 8 C0.35 7.67 -1.3 7.34 -3 7 C-2.01 6.67 -1.02 6.34 0 6 C0 4.02 0 2.04 0 0 Z "
     fill="#CD3F09"
     transform="translate(320,628)"
     id="path108" />
  <path
     d="M0 0 C0.62 1.88 0.62 1.88 1 4 C0.34 4.66 -0.32 5.32 -1 6 C-2.32 5.34 -3.64 4.68 -5 4 C-3.35 2.68 -1.7 1.36 0 0 Z "
     fill="#0C264C"
     transform="translate(343,417)"
     id="path109" />
  <path
     d="M0 0 C3.37 1.39 4.99 2.98 7 6 C3.76 5.44 2.07 4.59 0 2 C0 1.34 0 0.68 0 0 Z "
     fill="#D9640C"
     transform="translate(438,388)"
     id="path110" />
  <path
     d="M0 0 C0.6 0.33 1.2 0.66 1.81 1 C4 2 4 2 7 2 C7.33 3.32 7.66 4.64 8 6 C2.25 3.38 2.25 3.38 0 0 Z "
     fill="#112A52"
     transform="translate(255,323)"
     id="path111" />
</svg>
