<?xml version="1.0" encoding="UTF-8" standalone="no"?>
<!-- Generator: Adobe Illustrator 15.0.2, SVG Export Plug-In . SVG Version: 6.00 Build 0)  -->

<svg
   xmlns:dc="http://purl.org/dc/elements/1.1/"
   xmlns:cc="http://creativecommons.org/ns#"
   xmlns:rdf="http://www.w3.org/1999/02/22-rdf-syntax-ns#"
   xmlns:svg="http://www.w3.org/2000/svg"
   xmlns="http://www.w3.org/2000/svg"
   xmlns:sodipodi="http://sodipodi.sourceforge.net/DTD/sodipodi-0.dtd"
   xmlns:inkscape="http://www.inkscape.org/namespaces/inkscape"
   version="1.1"
   id="Layer_1"
   x="0px"
   y="0px"
   width="598.67902"
   height="664.198"
   viewBox="0 0 598.67902 664.198"
   enable-background="new 0 0 612 792"
   xml:space="preserve"
   inkscape:version="0.48.4 r9939"
   sodipodi:docname="ForestServiceLogoOfficial.svg"><metadata
   id="metadata89"><rdf:RDF><cc:Work
       rdf:about=""><dc:format>image/svg+xml</dc:format><dc:type
         rdf:resource="http://purl.org/dc/dcmitype/StillImage" /></cc:Work></rdf:RDF></metadata><defs
   id="defs87" /><sodipodi:namedview
   pagecolor="#ffffff"
   bordercolor="#666666"
   borderopacity="1"
   objecttolerance="10"
   gridtolerance="10"
   guidetolerance="10"
   inkscape:pageopacity="0"
   inkscape:pageshadow="2"
   inkscape:window-width="640"
   inkscape:window-height="480"
   id="namedview85"
   showgrid="false"
   fit-margin-top="0"
   fit-margin-left="0"
   fit-margin-right="0"
   fit-margin-bottom="0"
   inkscape:zoom="0.2979798"
   inkscape:cx="300"
   inkscape:cy="333.198"
   inkscape:window-x="0"
   inkscape:window-y="0"
   inkscape:window-maximized="0"
   inkscape:current-layer="Layer_1" />
<polygon
   points="274.919,695.719 268.079,691.759 260.879,688.519 253.679,685.998 245.759,683.839 237.839,682.038 229.919,680.599 221.64,679.519 213,678.438 204.359,677.358 195.72,676.278 186.72,674.839 177.72,673.398 169.08,672.318 160.8,670.879 153.24,669.799 145.68,668.719 138.84,667.639 132.72,666.559 126.6,665.479 121.2,664.759 116.16,663.679 111.479,662.959 107.52,661.879 103.92,661.158 100.68,660.438 97.8,659.358 95.64,658.639 87,655.398 78.36,651.438 70.44,647.118 62.88,642.078 55.68,636.679 48.84,630.559 42.72,624.078 36.96,617.599 31.56,610.398 26.52,603.198 22.2,595.278 18.24,587.358 15,579.438 12.12,571.159 9.96,562.879 8.52,554.239 8.16,550.639 7.8,547.398 7.44,543.799 7.44,540.199 7.44,536.239 7.44,532.279 7.8,528.318 8.16,523.999 8.52,519.679 9.24,514.999 9.96,510.679 10.68,505.999 11.4,500.959 12.48,495.919 13.56,490.879 14.64,485.479 18.96,468.199 23.64,450.199 28.68,432.199 33.36,413.479 38.04,395.119 42,376.039 45.24,357.319 47.76,338.599 48.84,319.879 48.84,301.52 47.04,283.16 43.44,265.52 37.68,247.879 29.76,230.959 18.96,214.399 6,198.56 98.88,65 125.52,74.36 152.52,82.28 180.24,88.76 207.959,93.8 235.68,97.76 263.399,100.28 290.759,101.36 318.119,101.72 345.119,100.64 371.759,98.48 397.319,95.6 422.519,91.28 446.999,86.24 470.039,80.12 492.358,73.64 513.599,65.72 604.679,199.64 590.639,215.479 580.198,231.68 571.919,248.24 566.519,265.52 562.919,283.16 561.479,301.159 561.839,319.52 563.639,338.239 566.158,356.959 570.118,376.039 574.438,395.119 579.479,414.199 584.519,433.279 589.559,451.999 594.238,471.079 598.198,489.439 599.278,493.399 599.998,496.999 600.719,500.239 601.438,503.119 601.799,505.639 602.519,508.159 602.879,510.319 603.238,512.479 603.599,514.279 603.599,516.438 603.959,518.239 603.959,520.398 604.318,522.559 604.318,525.079 604.318,527.599 604.318,530.479 604.318,536.959 603.959,543.438 603.238,549.559 602.519,555.679 601.078,561.799 599.639,567.919 597.839,573.679 595.679,579.438 593.519,585.198 590.639,590.959 587.759,596.358 584.519,601.759 580.919,607.158 576.959,612.559 572.998,617.599 568.679,622.639 564.719,626.959 560.398,630.559 556.078,634.519 551.759,637.759 547.079,641.358 542.039,644.238 536.999,647.479 531.959,649.998 526.559,652.519 520.799,655.038 515.039,656.839 508.919,658.998 502.799,660.438 496.318,661.879 489.839,663.318 482.999,664.398 463.919,667.998 446.279,670.879 429.719,673.038 414.599,675.198 400.919,676.998 387.959,678.799 376.439,680.599 365.639,682.759 355.561,685.639 346.561,688.879 338.279,692.839 330.359,697.519 323.52,703.639 316.68,710.838 310.199,719.118 304.439,729.198 303.719,729.198 298.679,720.198 293.279,712.639 287.52,706.158 281.399,700.398 "
   id="polygon3"
   style="fill:#ffe363"
   transform="translate(-6,-65.000001)" />
<polygon
   points="389.759,649.998 393.359,649.639 396.959,648.919 400.199,648.559 403.439,648.198 407.039,647.839 410.279,647.479 413.879,647.118 417.479,646.398 421.079,646.038 425.039,645.318 426.119,645.318 429.359,644.959 433.319,644.238 438.359,643.519 444.119,642.438 450.239,641.358 457.079,640.278 464.279,639.198 471.479,638.118 478.318,636.679 485.159,635.599 491.279,634.519 497.039,633.438 501.719,632.358 505.318,631.639 507.839,630.919 516.119,627.318 524.039,622.999 531.599,618.318 538.438,613.278 544.559,607.519 550.318,601.398 555.358,595.278 560.039,588.438 563.999,581.599 567.238,574.398 570.118,567.198 572.639,559.639 574.078,552.438 575.158,544.879 575.879,537.318 575.879,529.759 575.519,526.519 575.158,522.559 574.438,517.519 573.358,511.398 571.919,504.559 570.479,496.639 568.318,487.999 566.158,478.279 563.999,467.839 561.118,456.319 558.238,443.719 554.999,430.399 551.398,416.359 547.799,400.879 543.839,385.039 539.519,367.759 536.639,356.959 534.839,346.159 533.398,335 532.318,324.199 531.959,313.399 532.318,302.6 533.039,291.799 534.479,281 536.639,270.199 539.158,259.76 542.759,249.319 546.719,238.879 551.039,228.439 556.438,218.359 562.559,208.64 569.398,198.92 500.999,99.2 479.398,107.12 456.719,113.6 432.959,119 408.119,123.32 382.199,126.56 355.919,128.36 329.279,129.44 302.639,129.44 276,128.36 249.719,126.56 223.799,123.68 198.6,120.44 174.479,115.76 151.439,110.72 129.479,104.96 109.32,98.48 40.2,198.92 42.72,201.8 45.24,205.399 48.12,210.08 51.36,215.479 54.6,221.24 57.84,227.72 61.08,234.919 64.32,242.84 67.2,251.12 69.72,259.76 72.24,268.76 74.4,278.12 75.84,287.839 76.92,297.919 77.64,308 77.28,318.08 76.92,322.399 76.92,326.359 76.56,329.959 76.2,333.56 75.84,336.799 75.48,339.679 75.12,342.919 74.76,345.799 74.4,349.039 73.68,351.919 72.96,355.519 71.88,359.119 71.16,363.079 70.08,367.399 69,372.439 67.56,377.839 65.76,385.759 63.6,393.319 61.8,400.879 60,408.799 58.2,416.359 56.4,423.919 54.6,431.119 52.8,438.679 51,445.879 49.56,453.079 47.76,460.639 45.96,467.839 44.52,474.679 42.72,481.879 41.28,488.719 39.84,495.559 38.4,501.319 37.32,507.079 36.24,512.839 35.16,518.239 34.8,523.999 34.08,529.759 34.08,535.879 34.08,541.639 34.44,547.759 35.52,553.879 36.96,559.999 38.76,566.479 41.28,572.959 44.52,579.799 48.12,586.639 52.44,593.839 54.24,596.719 56.76,599.599 59.28,602.479 62.16,605.719 65.4,608.959 69,612.198 72.96,615.438 77.28,618.679 81.6,621.919 86.28,624.799 91.68,627.318 96.72,629.839 102.48,632.358 108.6,634.158 114.72,635.599 121.2,637.038 131.64,638.479 141.72,639.919 151.439,641.719 160.439,643.158 169.08,644.238 177.359,645.318 185.28,646.759 192.839,647.839 199.68,648.559 206.16,649.639 212.279,650.719 218.04,651.438 223.08,652.158 228.12,652.879 232.439,653.238 236.399,653.599 240,653.959 243.959,654.679 247.56,655.398 251.159,656.118 255.119,656.839 259.08,657.919 263.04,659.358 267,660.799 270.959,662.238 275.279,664.398 279.599,666.559 283.919,669.078 288.599,671.959 293.279,675.198 297.959,678.799 303.359,682.759 305.879,679.879 308.759,676.998 311.999,674.479 315.6,671.959 319.199,669.438 322.799,667.278 326.759,665.479 331.079,663.679 335.039,661.879 339.359,660.438 343.68,658.998 347.999,657.559 352.318,656.479 356.639,655.398 360.959,654.679 365.279,653.599 369.959,652.879 374.279,652.158 378.6,651.799 382.559,651.078 386.159,650.358 "
   id="polygon5"
   style="fill:#00502f"
   transform="translate(-6,-65.000001)" />
<polygon
   points="332.159,438.679 327.119,437.959 325.68,436.879 324.6,435.079 321.719,429.319 320.279,426.799 318.839,426.439 318.479,429.319 318.119,432.56 317.398,435.079 317.398,437.959 317.039,441.199 316.68,444.079 316.68,449.839 316.318,452.719 316.318,467.839 316.68,471.079 316.68,477.199 317.039,479.719 317.039,488.719 317.398,490.519 317.398,491.959 317.759,493.399 318.119,495.559 318.839,496.999 319.919,498.438 346.561,510.679 349.079,511.759 351.239,512.839 353.398,513.559 355.561,514.639 359.159,516.079 360.6,517.159 364.199,518.959 366.719,521.479 367.079,522.919 365.999,523.999 364.561,523.999 361.68,523.279 360.239,523.279 358.439,522.919 353.039,522.919 351.6,523.279 350.159,523.279 348.719,523.639 345.839,523.639 341.52,522.559 339.719,522.199 334.68,522.199 332.52,522.559 329.999,522.559 327.479,522.919 326.039,523.279 324.239,523.639 322.439,523.639 320.999,523.999 317.398,524.719 315.959,525.079 314.159,525.079 312.719,525.438 310.919,525.799 303.719,525.799 301.199,525.079 299.399,524.719 297.239,524.358 295.439,523.639 293.639,523.639 290.039,522.919 288.239,522.919 286.439,522.559 274.919,522.559 273.479,522.919 271.319,523.279 269.52,523.279 267.719,523.639 265.919,523.639 264.119,523.999 262.679,523.999 261.239,524.358 254.04,524.358 252.6,523.999 250.799,523.639 244.679,523.639 242.879,523.999 238.56,524.719 237.12,524.358 236.759,522.919 237.839,521.479 240.719,520.039 243.239,518.959 244.679,518.239 246.839,517.519 249.359,516.438 252.239,514.999 256.199,513.559 260.52,511.759 265.919,509.599 272.399,507.079 279.599,504.199 281.039,503.479 282.839,502.759 285.359,501.319 287.52,499.879 291.119,496.999 292.559,494.119 292.919,492.679 292.919,443.719 293.279,441.559 293.279,439.039 293.639,437.599 293.639,431.839 292.919,430.399 291.479,430.399 290.399,431.479 288.599,433.639 287.52,434.719 286.079,435.799 285,436.879 283.56,437.959 281.039,439.759 277.439,441.559 276.359,440.479 276.719,439.039 277.439,437.599 275.639,437.959 274.199,438.679 271.319,440.839 269.159,443.719 267,445.879 264.119,447.319 262.319,447.679 260.52,447.679 259.799,445.879 258.719,444.799 257.279,445.879 255.479,447.319 253.679,448.399 252.239,448.759 251.159,447.679 249.719,448.399 248.279,449.479 245.399,450.199 243.959,450.199 242.879,449.119 241.439,448.399 240,448.759 237.12,450.199 229.919,451.999 227.04,451.279 225.239,450.919 224.52,449.119 224.52,447.679 224.879,446.239 225.6,444.799 228.479,442.639 227.399,441.559 226.68,440.119 226.319,438.679 226.319,436.879 226.68,435.439 227.759,433.639 230.279,431.119 231.719,430.039 236.399,426.439 234.6,425.719 234.239,424.279 244.319,414.199 245.399,412.759 246.479,411.679 247.56,410.239 249.359,408.079 250.799,405.919 251.879,403.759 250.439,403.039 249,404.839 247.56,405.56 246.12,405.919 244.679,405.919 244.319,404.479 242.879,404.479 241.799,405.56 239.279,407.719 237.839,408.439 236.04,408.439 234.6,407.719 233.159,406.639 232.799,404.839 233.52,403.399 234.6,402.319 236.04,401.239 237.12,400.159 238.199,398.719 239.64,397.279 240.719,395.479 242.159,394.039 243.239,392.239 244.679,390.439 245.399,388.999 246.479,387.559 247.56,386.479 248.279,385.039 249.359,383.599 250.799,382.519 251.879,380.719 252.959,379.639 255.119,376.759 256.199,374.959 257.639,373.159 260.879,368.839 263.04,366.679 263.399,365.239 261.959,366.319 259.08,367.759 257.639,368.839 255.839,369.919 253.679,370.999 251.52,372.439 247.56,374.959 246.12,374.959 245.759,373.519 246.479,372.079 246.839,370.639 246.839,367.759 247.56,366.319 248.64,364.879 249.359,363.439 250.439,362.359 251.159,360.919 252.239,359.479 251.52,358.039 251.879,356.599 253.319,355.519 253.679,354.079 252.239,354.079 250.799,354.799 249.359,355.159 247.56,355.519 242.879,355.519 241.439,355.159 241.08,353.719 242.52,352.279 244.679,350.839 246.479,349.399 247.56,348.319 249.359,346.879 251.159,345.079 252.959,343.639 254.399,341.839 256.199,340.399 257.279,339.319 258.359,337.879 259.799,335.719 261.599,333.56 262.679,332.479 264.839,329.599 265.919,327.799 267,326.359 269.879,322.759 271.319,320.6 272.039,319.159 273.119,317.719 273.839,316.279 270.599,318.439 268.439,320.239 266.639,321.679 265.199,322.04 263.399,322.399 261.599,322.04 260.159,321.319 259.439,319.879 259.439,317.719 259.799,316.279 264.479,311.6 263.759,310.159 264.119,308.719 265.199,307.279 266.639,304.399 267,302.959 267.719,301.52 268.799,300.08 270.239,299.359 270.959,297.919 269.52,298.279 268.079,299 267.359,297.56 267.359,296.12 265.919,296.12 264.839,295.04 265.56,293.6 265.919,292.159 269.52,287.479 270.599,286.04 271.319,284.6 272.399,283.16 274.56,278.839 275.639,277.399 276.359,275.6 277.799,273.08 278.879,270.919 279.599,269.12 280.679,267.68 281.399,266.239 282.479,264.439 283.919,262.279 284.639,260.479 285.719,259.04 286.439,256.16 285,255.8 282.839,257.959 281.759,259.399 279.959,260.479 278.52,261.2 277.079,261.56 276,257.959 276.719,251.479 275.639,252.56 274.199,252.919 273.479,251.479 274.56,250.04 275.279,248.6 276.359,247.16 277.799,245.359 279.239,243.2 280.679,241.76 283.919,237.439 285,235.64 286.079,234.2 287.52,231.319 288.599,229.879 291.839,223.399 292.919,221.6 294.359,218.72 295.439,216.919 297.239,213.319 298.319,210.8 299.759,207.919 300.119,206.479 300.839,205.04 301.199,203.6 301.919,202.16 302.639,200.36 303.359,198.92 303.719,197.479 304.439,196.04 306.239,196.76 310.561,202.16 311.641,204.32 312.719,206.12 313.799,208.28 314.159,209.72 315.239,211.88 315.959,213.68 316.318,215.479 317.039,216.919 317.759,218.72 319.199,221.6 319.919,223.399 321.359,225.919 322.439,228.08 323.879,230.24 325.318,231.68 326.398,233.12 328.561,235.28 329.279,236.72 327.839,237.8 323.52,236.72 322.079,236 320.641,235.64 320.279,237.439 320.999,239.6 321.719,241.04 323.159,244.64 324.239,246.439 325.318,248.959 328.199,254 329.641,256.879 333.239,263.359 334.318,264.799 335.759,268.399 336.479,269.839 337.199,271.64 339.359,274.52 340.439,275.6 341.52,277.04 342.6,278.12 343.318,279.919 341.879,281 340.079,280.279 338.639,279.919 337.199,278.839 332.879,277.76 332.159,279.199 332.879,280.64 333.239,282.08 334.318,283.879 335.398,285.319 336.119,286.759 344.398,295.04 347.639,299 347.279,300.439 345.839,301.159 344.039,300.799 342.239,300.08 340.799,299.719 339.359,299 339.719,300.439 340.799,301.52 342.239,302.6 343.68,303.319 345.119,304.399 346.199,305.839 346.919,307.279 345.479,308 345.839,309.439 346.561,310.879 348.719,313.759 351.959,319.159 353.398,320.959 354.479,322.759 356.639,325.639 362.039,331.04 362.759,332.479 363.119,333.919 361.68,334.639 358.799,333.919 357.359,333.199 356.999,334.639 356.999,336.079 355.561,336.079 354.119,335.359 352.318,333.919 349.079,330.679 347.999,331.759 349.439,333.919 350.879,335.719 351.959,337.52 353.398,339.319 355.561,342.919 357.719,345.799 359.159,347.239 360.239,348.679 361.68,350.479 362.759,351.919 364.199,353.719 365.639,355.159 367.439,357.319 368.879,359.119 370.68,360.199 372.119,360.919 373.561,361.999 375.359,362.719 377.159,363.799 377.52,365.239 376.079,366.319 374.639,366.679 373.199,366.319 371.759,366.319 367.439,364.159 367.799,366.319 367.799,367.759 366.359,368.479 364.561,368.479 363.119,368.119 360.239,366.679 359.159,365.599 357.719,365.599 357.359,367.039 357.719,368.479 362.039,374.239 363.119,376.039 364.199,377.479 364.919,379.279 365.999,381.079 367.079,382.519 368.52,384.679 369.6,386.119 371.039,387.919 372.119,388.999 373.561,390.799 375.359,392.239 377.159,393.319 378.6,394.399 378.239,395.839 375.359,395.839 373.919,396.199 376.079,399.799 377.52,401.6 378.6,402.68 382.919,409.159 384.359,410.959 385.439,412.759 386.52,414.199 387.239,415.639 387.959,417.439 387.6,418.879 386.159,418.879 383.999,418.159 382.559,417.799 380.759,416.719 378.959,415.999 377.52,415.279 376.079,414.919 376.439,416.359 377.52,418.159 378.239,419.959 379.318,421.759 380.398,424.279 381.839,426.799 385.079,431.119 386.159,432.199 387.239,433.639 389.759,436.159 390.119,437.959 390.119,439.759 389.039,441.199 388.318,442.999 387.6,444.439 386.52,445.52 386.52,446.959 386.879,448.399 387.6,449.839 386.879,451.279 385.439,451.279 383.999,450.919 382.559,449.839 381.479,448.759 380.398,447.319 379.68,445.879 379.68,444.439 378.239,444.079 376.799,444.439 373.199,445.879 371.759,446.239 367.079,446.239 369.239,448.399 369.959,449.839 368.52,450.919 367.079,450.919 365.279,450.199 361.68,448.399 360.6,447.319 359.159,446.599 358.079,445.159 356.639,444.079 355.561,442.279 354.119,440.839 352.68,441.199 351.239,441.199 349.799,441.559 348.359,441.199 347.279,440.119 345.839,440.119 344.398,440.839 342.239,438.679 342.239,440.119 342.959,441.559 343.318,442.999 341.879,442.999 339.719,442.279 337.919,441.199 335.759,440.119 333.6,439.399 "
   id="polygon7"
   style="fill:#ffe363"
   transform="translate(-6,-65.000001)" />
<polygon
   points="219.839,284.239 219.479,284.6 219.12,284.6 218.759,284.959 218.399,285.319 218.04,285.319 217.68,285.68 217.319,286.04 216.959,286.04 216.959,286.399 216.6,286.759 216.6,287.12 216.6,428.239 216.6,429.319 216.6,430.399 216.6,431.119 216.6,432.199 216.239,433.279 216.239,434.359 215.879,435.439 215.52,436.52 215.52,437.959 215.16,439.039 214.799,440.119 214.439,441.199 214.08,442.279 213.359,443.719 213,444.799 212.64,445.879 211.2,449.119 209.759,451.999 207.959,454.879 206.16,457.399 204.359,459.919 202.2,462.439 200.04,464.599 197.52,466.399 195.359,468.199 192.839,469.639 189.959,471.079 187.08,472.519 184.2,473.599 180.959,474.319 178.08,475.399 174.479,475.759 165.84,476.479 157.919,476.479 150.36,475.759 143.52,473.959 137.76,471.799 132.36,468.919 127.32,465.319 123,461.719 119.4,457.759 116.16,453.439 113.64,449.119 111.479,444.439 110.04,440.119 108.96,436.159 108.24,432.199 107.88,428.239 107.52,288.919 107.52,288.56 107.52,288.56 107.52,288.199 107.52,287.839 107.16,287.479 107.16,287.479 107.16,287.12 106.8,286.759 106.8,286.759 106.8,286.399 106.44,286.399 106.44,286.04 106.08,286.04 106.08,286.04 105.72,286.04 105.72,285.68 102.84,285.68 102.48,285.68 102.48,285.68 102.48,285.68 102.48,285.68 102.48,285.68 102.12,285.68 102.12,285.68 102.12,285.68 102.12,285.68 102.12,285.319 102.12,285.319 102.12,285.319 102.12,285.319 102.12,284.959 102.12,284.959 102.12,271.279 144.24,270.56 145.32,271.279 145.32,284.6 141,286.04 140.64,286.399 140.64,286.399 140.28,286.399 140.28,286.759 139.919,286.759 139.919,286.759 139.919,287.12 139.919,287.12 139.56,287.12 139.56,287.479 139.56,287.479 139.56,287.479 139.56,287.479 139.56,287.839 139.56,287.839 139.56,288.199 139.2,422.479 139.919,428.959 141.36,435.079 143.88,440.119 147.12,444.799 151.08,448.399 155.399,451.279 160.08,453.799 165.479,454.879 170.52,455.239 175.56,454.879 180.6,453.079 185.28,450.919 189.24,447.319 192.839,442.639 195.72,436.879 197.879,429.679 197.879,428.959 198.24,427.879 198.24,426.439 198.6,424.999 198.6,423.56 198.6,421.759 198.6,419.6 198.959,417.079 198.959,414.56 198.959,412.039 198.959,409.159 198.959,405.919 198.959,402.68 198.959,399.079 198.959,395.119 199.319,391.159 199.319,292.52 198.959,291.799 198.959,290.719 198.959,290 198.959,289.279 198.6,288.56 198.6,287.839 198.24,287.12 197.879,286.759 197.879,286.04 197.52,285.68 197.16,285.319 196.799,285.319 196.439,284.959 196.08,284.6 195.359,284.6 195,284.6 186.359,284.6 186.359,272.359 186.359,272.359 186.359,272 186.359,272 186.359,272 186.359,271.64 186.359,271.64 186.359,271.279 186.359,271.279 186.359,271.279 186.359,270.919 186.359,270.919 186.359,270.919 186.359,270.919 186.359,270.56 186.359,270.56 186.72,270.56 228.839,269.12 228.839,269.12 229.199,269.479 229.199,269.479 229.199,269.479 229.199,269.479 229.199,269.479 229.199,269.479 229.199,269.839 229.199,269.839 229.56,269.839 229.56,269.839 229.56,269.839 229.56,270.199 229.56,270.199 229.56,283.879 220.919,283.879 220.56,284.239 220.56,284.239 220.199,284.239 219.839,284.239 "
   id="polygon9"
   style="fill:#ffe363"
   transform="translate(-6,-65.000001)" />
<polygon
   points="517.919,438.319 516.839,440.839 515.759,443.359 514.318,445.52 512.879,448.039 511.438,450.199 509.999,452.359 508.199,454.52 506.759,456.679 504.959,458.479 503.159,459.919 500.639,462.439 497.759,464.599 494.879,466.759 491.999,468.559 489.119,469.999 486.239,471.439 483.358,472.879 480.479,473.959 477.599,475.039 474.358,475.759 471.479,476.479 468.239,476.839 464.999,477.199 462.119,477.199 458.879,477.199 455.639,476.839 453.839,476.839 452.039,476.479 450.239,476.119 448.438,475.759 446.639,475.399 444.839,475.039 443.039,474.319 441.239,473.959 439.799,473.239 437.999,472.879 436.199,472.159 434.759,471.439 432.959,470.359 431.159,469.639 429.359,468.919 427.919,467.839 427.199,467.839 426.839,467.479 426.479,467.119 426.119,466.759 425.759,466.759 425.399,466.399 425.039,466.399 424.679,466.039 424.319,466.039 423.959,465.679 423.239,465.679 422.879,465.679 422.519,465.319 422.159,465.319 421.439,465.319 421.079,465.319 420.359,465.319 419.999,465.679 419.639,465.679 419.279,465.679 418.919,466.039 418.559,466.399 418.559,466.759 418.199,467.479 418.199,467.839 418.199,468.199 418.199,468.919 418.199,469.639 418.559,470.359 418.559,471.079 418.919,471.799 419.279,472.879 419.279,472.879 419.279,472.879 419.279,473.239 419.279,473.239 419.279,473.599 419.279,473.599 419.279,473.599 419.279,473.959 419.279,473.959 419.279,474.319 419.279,474.319 419.279,474.319 418.919,474.679 418.919,474.679 418.919,474.679 403.439,474.679 403.079,474.679 403.079,474.679 403.079,474.319 403.079,474.319 403.079,474.319 402.719,474.319 402.719,473.959 402.719,473.959 402.719,473.959 402.719,473.599 402.719,473.599 402.719,473.239 402.719,473.239 402.719,473.239 402.719,472.879 402.719,472.519 402.719,422.479 418.559,422.479 418.199,423.56 418.559,424.639 418.559,425.719 418.559,426.799 418.559,427.52 418.559,428.599 418.919,429.319 418.919,430.039 419.279,431.119 419.639,431.839 419.639,432.56 419.999,433.279 420.359,433.999 420.359,435.079 420.719,435.799 421.079,436.52 422.879,440.839 425.039,444.439 427.919,447.319 430.799,449.839 434.039,452.359 437.999,454.159 441.599,455.599 445.559,457.039 449.159,457.759 453.119,458.119 457.079,458.479 460.679,458.479 463.919,458.479 467.519,458.119 470.398,457.759 472.919,457.039 475.438,456.319 477.599,454.879 480.479,453.079 482.999,450.919 485.519,448.399 488.039,445.52 490.199,442.639 491.999,439.039 493.438,435.439 494.519,431.119 494.879,427.159 494.519,422.479 493.799,417.799 491.999,412.759 489.839,407.719 486.239,402.319 483.719,399.079 481.199,396.199 478.318,393.319 475.438,390.799 472.919,387.919 470.039,385.759 467.159,383.239 464.639,381.079 461.398,378.559 458.519,376.399 455.639,374.239 452.759,372.439 449.879,370.279 446.999,368.119 444.119,365.599 441.239,363.439 436.559,360.199 432.239,356.959 428.279,353.719 424.679,350.839 421.439,348.319 418.199,345.439 415.679,342.919 413.159,340.759 410.999,338.239 409.199,335.719 407.399,333.56 405.959,331.04 404.519,328.52 403.439,326 402.359,323.119 401.639,320.239 400.919,317 400.559,313.399 400.559,309.799 401.279,305.839 401.999,302.239 403.439,298.279 404.879,294.68 407.039,291.08 409.559,287.479 412.439,284.239 416.039,281 419.999,278.12 424.319,275.6 429.359,273.08 434.759,271.279 440.519,269.839 442.319,269.479 444.479,269.12 446.639,269.12 448.799,269.12 451.319,269.12 453.479,269.12 455.999,269.12 458.159,269.479 461.039,269.479 463.559,270.199 466.079,270.56 468.959,270.919 471.839,271.64 474.719,272.359 477.599,273.08 480.839,273.799 480.839,274.16 481.199,274.16 481.559,274.16 481.919,274.52 482.279,274.52 482.639,274.52 482.639,274.52 482.999,274.879 483.358,274.879 483.719,274.879 484.079,274.879 484.438,275.239 484.799,275.239 485.159,275.239 485.159,275.239 485.519,275.239 485.879,271.279 502.079,271.279 502.079,315.199 487.318,315.56 486.959,310.159 486.959,308.719 486.959,306.919 486.599,305.479 486.239,303.679 485.519,302.239 485.159,300.799 484.438,299.359 483.719,298.279 482.999,296.839 481.919,295.759 480.839,294.68 479.759,293.6 478.679,292.52 477.239,291.439 476.159,290.359 474.358,289.64 470.398,287.479 466.079,286.04 461.759,285.319 457.799,285.319 453.839,285.68 449.879,286.399 446.279,287.479 443.039,289.279 440.159,291.439 437.639,293.959 435.839,296.839 434.039,300.08 433.319,303.319 432.959,306.56 433.319,310.52 434.398,314.119 434.759,315.56 435.479,316.639 436.559,318.08 437.639,319.52 438.719,320.959 440.159,322.759 441.959,324.199 443.759,326 445.919,327.799 447.719,329.959 450.239,331.759 452.759,333.56 455.279,335.719 458.159,337.879 461.398,340.399 464.639,342.56 467.879,345.079 471.119,347.239 474.358,349.399 477.239,351.559 480.119,353.719 482.639,355.879 485.159,357.679 487.679,359.479 489.839,361.279 491.999,362.719 494.159,364.519 495.959,365.959 497.398,367.399 499.199,368.479 500.639,369.919 501.719,370.999 503.159,372.439 504.599,373.879 506.039,375.679 507.479,377.479 509.278,379.279 510.719,381.439 512.158,383.599 513.599,385.759 515.039,387.559 516.119,389.719 517.199,391.519 518.278,393.319 519.358,395.119 519.719,396.199 520.438,397.639 520.438,398.719 520.799,399.799 521.158,400.879 521.519,401.6 522.238,402.68 522.238,403.759 522.599,404.839 522.959,406.279 523.318,407.719 523.318,409.159 523.318,410.6 523.679,412.399 523.679,414.199 523.318,416.359 523.318,418.879 522.959,421.399 522.238,424.279 521.879,426.079 521.519,428.599 520.799,430.759 520.079,433.279 518.999,435.799 "
   id="polygon11"
   style="fill:#ffe363"
   transform="translate(-6,-65.000001)" />
<polygon
   points="509.278,549.919 509.639,549.559 509.639,549.199 509.999,548.479 510.358,548.119 510.719,547.398 511.079,547.039 511.079,546.679 511.438,545.959 511.799,545.599 511.799,545.239 511.799,545.599 512.158,545.959 512.158,545.959 512.519,546.318 512.879,546.679 512.879,547.039 513.238,547.039 513.599,547.398 513.959,547.398 514.318,547.759 514.318,548.119 514.679,548.119 515.039,548.119 515.398,548.479 515.759,548.839 516.119,548.839 534.839,555.679 537.358,557.119 539.879,557.839 542.039,558.199 543.839,558.199 545.278,558.199 546.719,557.479 547.799,556.759 548.158,556.039 548.879,554.959 548.879,554.239 548.158,552.799 547.799,552.079 546.719,550.999 545.278,549.919 543.479,549.199 541.318,548.479 518.278,543.079 517.919,543.079 517.919,543.079 517.559,543.079 517.199,542.719 517.199,542.719 516.839,542.719 516.839,542.719 516.479,542.719 516.119,542.719 515.759,542.719 515.398,542.719 515.039,542.719 514.679,542.719 513.959,542.719 513.599,542.719 512.879,543.079 513.959,533.358 514.318,533.719 514.679,534.079 514.679,534.079 515.039,534.079 515.398,534.438 516.119,534.438 516.479,534.799 516.839,534.799 517.199,534.799 517.559,535.159 517.919,535.159 517.919,535.159 518.278,535.159 518.639,535.159 518.999,535.159 518.999,535.159 524.039,536.239 526.199,536.959 528.719,537.679 530.879,538.039 532.679,538.398 534.479,539.119 536.278,539.479 538.079,539.839 539.519,540.199 540.959,540.559 542.398,540.919 543.479,541.279 544.559,541.639 545.278,541.999 546.358,541.999 546.719,542.358 547.438,542.719 551.039,544.159 553.559,545.959 555.719,548.119 557.158,550.639 557.879,552.799 557.879,555.318 557.519,557.839 556.799,559.999 555.358,562.159 553.198,563.959 551.039,565.398 548.158,566.119 545.278,566.479 541.679,566.479 538.079,565.398 533.759,563.959 530.879,562.519 527.999,561.438 525.479,560.358 522.599,559.278 520.438,558.199 518.278,557.479 516.119,556.759 514.318,555.679 512.879,555.318 511.438,554.599 509.999,554.239 508.919,553.519 508.199,553.519 507.479,553.159 507.119,553.159 507.119,553.159 507.479,552.438 507.839,552.079 508.199,551.719 508.559,550.999 508.919,550.639 "
   id="polygon13"
   style="fill:#ffe363"
   transform="translate(-6,-65.000001)" />
<polygon
   points="70.08,521.119 70.44,520.759 70.44,520.039 70.44,519.679 70.44,518.959 70.44,518.599 70.44,517.879 70.44,517.159 70.44,516.799 70.44,516.079 70.44,515.359 55.32,516.438 55.32,516.438 55.32,516.799 55.32,517.519 55.32,518.239 55.32,519.318 55.32,520.398 55.32,521.479 55.32,522.559 55.68,523.639 55.68,525.079 55.68,526.519 56.04,527.599 56.04,528.679 56.04,529.759 56.4,530.479 56.4,531.199 56.04,531.559 55.68,531.559 55.32,531.559 54.96,531.559 54.24,531.559 53.88,531.559 53.16,531.559 52.8,531.559 52.08,531.559 51.36,531.199 51,531.199 50.28,531.199 49.92,530.839 49.56,530.839 48.84,530.479 48.48,530.479 47.76,507.799 47.76,508.159 47.76,508.159 48.12,508.159 48.48,508.159 48.84,508.159 49.2,508.159 49.56,508.159 49.92,508.519 50.64,508.519 51,508.519 51.36,508.519 51.72,508.519 52.08,508.519 52.44,508.519 52.8,508.519 53.16,508.519 92.76,506.359 93.12,506.359 93.12,506.359 93.48,506.359 93.84,505.999 94.2,505.999 94.56,505.639 94.92,505.639 95.28,505.279 95.64,505.279 96,504.919 96.36,504.919 96.72,504.559 96.72,504.559 97.08,504.559 97.08,504.559 97.08,504.559 98.16,525.438 97.44,525.799 96.72,525.799 96,526.159 95.28,526.159 94.92,526.159 94.2,526.519 93.84,526.519 93.12,526.519 92.76,526.879 92.04,526.879 91.68,526.879 91.32,526.879 90.6,526.879 90.24,527.239 89.88,527.239 89.52,527.239 89.52,527.239 89.52,526.879 89.52,526.879 89.88,526.519 89.88,526.519 89.88,526.159 90.24,526.159 90.24,525.799 90.24,525.799 90.24,525.438 90.24,525.438 90.24,525.438 90.24,525.079 90.24,525.079 90.24,524.719 90.24,524.719 90.24,514.639 78.36,514.639 78,515.359 78,516.079 78,516.799 78,517.159 78,517.879 78,518.239 78,518.959 78,519.318 78.36,520.039 78.36,520.398 78.36,520.759 78.36,521.119 78.36,521.479 78.72,522.199 78.72,522.559 78.72,522.559 78.72,522.919 78.36,522.919 78,522.919 77.64,522.919 77.28,522.919 76.92,522.919 76.56,523.279 75.84,523.279 75.12,523.279 74.4,523.279 73.68,523.639 72.96,523.639 72.24,523.639 71.52,523.639 70.44,523.639 69.72,523.999 69.72,523.639 69.72,522.919 70.08,522.559 70.08,522.199 70.08,521.479 "
   id="polygon15"
   style="fill:#ffe363"
   transform="translate(-6,-65.000001)" />
<polygon
   points="529.799,489.799 529.799,489.439 529.799,488.719 529.799,488.359 529.799,487.999 529.799,487.279 529.438,486.919 529.438,486.559 529.438,485.839 529.438,485.119 529.799,484.759 530.519,484.399 531.238,484.039 531.599,484.039 532.318,483.679 533.039,483.679 533.398,483.319 534.119,483.319 534.479,483.319 534.839,483.319 535.198,482.959 535.559,483.319 535.919,483.319 536.278,483.319 536.999,483.319 537.358,483.319 537.719,483.319 537.358,484.039 537.358,484.759 537.358,485.119 537.358,485.839 536.999,486.559 536.999,486.919 536.999,487.639 536.999,488.359 536.999,488.719 536.999,489.439 536.999,490.159 536.999,490.519 537.358,491.239 537.358,491.959 537.358,492.679 537.719,493.039 538.799,493.039 539.879,493.039 540.959,493.039 542.039,493.039 543.479,493.039 544.559,493.039 545.999,493.039 547.079,492.679 548.158,492.679 549.599,492.679 550.679,492.319 551.759,492.319 552.479,491.959 553.198,491.959 553.919,491.599 554.639,491.599 554.278,490.159 554.278,489.079 554.278,487.639 553.919,486.559 553.919,485.479 553.559,484.759 553.559,484.039 553.559,482.959 553.198,482.239 553.198,481.519 553.198,480.799 553.198,480.439 552.839,479.719 552.839,479.359 552.839,478.999 552.479,478.639 552.839,478.639 553.198,478.639 553.559,478.639 554.278,478.639 554.999,478.639 555.358,478.999 556.078,478.999 556.799,478.999 557.519,479.359 557.879,479.359 558.599,479.359 559.318,479.719 560.039,479.719 560.398,480.079 561.118,480.439 561.479,480.799 561.479,502.399 561.118,502.039 560.759,502.039 560.398,501.679 560.039,501.319 560.039,500.959 559.679,500.599 559.318,500.599 558.959,500.239 558.599,500.239 558.238,499.879 557.879,499.879 557.519,499.879 557.158,499.519 556.799,499.519 556.438,499.519 555.719,499.159 520.079,500.959 519.719,500.959 518.999,500.959 518.639,500.959 518.278,501.319 517.919,501.319 517.559,501.319 517.199,501.679 516.839,501.679 516.479,502.039 516.119,502.039 515.398,502.399 515.039,502.759 514.679,503.119 514.679,503.119 514.318,503.479 513.959,503.839 512.519,478.639 512.879,478.279 513.599,478.279 513.959,478.279 514.679,477.919 515.398,477.919 516.119,477.559 516.479,477.559 517.199,477.559 517.919,477.199 518.639,477.199 519.358,477.199 520.079,477.199 520.438,476.839 521.158,476.839 521.519,476.839 522.238,476.839 522.238,477.199 521.879,477.559 521.879,477.559 521.519,477.919 521.519,478.279 521.519,478.279 521.158,478.639 521.158,478.639 521.158,478.999 521.158,478.999 520.799,479.359 520.799,479.359 520.799,479.719 520.799,479.719 520.799,480.079 520.799,480.079 520.438,480.799 520.438,481.519 520.079,482.239 520.079,482.959 520.079,483.679 520.079,484.399 520.079,485.119 520.079,485.839 520.438,486.559 520.438,487.279 520.438,488.359 520.799,489.439 520.799,490.159 521.158,491.239 521.519,492.319 521.879,493.039 530.519,493.039 530.519,492.679 530.519,491.959 530.158,491.239 530.158,490.879 530.158,490.159 "
   id="polygon17"
   style="fill:#ffe363"
   transform="translate(-6,-65.000001)" />
<polygon
   points="509.278,555.318 509.639,555.679 509.999,555.679 510.358,556.039 510.719,556.398 511.079,556.759 511.438,556.759 511.799,557.119 512.158,557.479 512.519,557.479 512.879,557.839 512.519,558.199 512.158,558.559 511.799,558.919 511.799,558.919 511.438,559.278 511.079,559.639 510.719,559.999 510.719,560.358 510.358,560.719 509.999,561.079 509.639,561.799 509.639,562.159 509.278,562.519 509.278,562.879 509.278,563.239 509.278,563.599 511.438,565.759 513.959,567.559 516.119,569.358 518.639,571.519 520.799,573.318 522.959,575.119 525.479,576.919 527.639,578.719 529.799,580.159 531.599,581.599 533.398,583.039 535.198,584.479 536.999,585.559 538.438,586.639 539.879,587.358 541.318,588.079 535.559,595.999 535.198,595.639 534.839,594.919 534.479,594.198 534.119,593.839 533.759,593.119 533.039,592.398 532.679,591.679 531.959,590.959 531.238,590.238 530.519,589.519 529.799,588.799 528.719,587.719 527.999,586.999 526.919,586.278 525.839,585.559 525.119,584.479 509.278,571.519 504.959,567.919 504.238,568.639 503.879,568.999 503.519,569.358 502.799,570.079 502.438,570.438 502.079,570.799 501.719,571.519 501.358,571.879 500.999,572.238 500.639,572.599 500.639,572.959 500.278,573.679 499.919,573.679 499.919,574.398 499.559,574.759 499.559,574.759 498.839,574.398 498.479,573.679 498.119,573.318 497.759,572.599 497.398,572.238 497.039,571.879 496.679,571.519 496.318,571.159 495.959,570.799 495.959,570.438 495.599,570.079 495.599,569.719 495.239,569.358 495.239,569.358 495.239,568.999 495.239,568.999 495.239,568.639 495.599,568.278 495.959,567.559 496.679,566.839 497.398,566.119 498.119,565.398 498.839,564.318 499.559,563.239 500.278,562.159 500.999,561.079 502.079,559.999 503.159,558.559 503.879,557.479 504.599,556.398 505.679,554.959 506.398,553.879 506.759,554.239 507.479,554.599 507.839,554.599 508.559,554.959 508.919,555.318 "
   id="polygon19"
   style="fill:#ffe363"
   transform="translate(-6,-65.000001)" />
<polygon
   points="490.199,577.999 489.839,577.639 489.479,577.278 489.119,576.919 488.759,576.919 488.398,576.559 488.039,576.198 487.318,575.839 486.959,575.479 486.599,575.119 486.239,575.119 485.879,574.759 486.239,574.398 486.599,574.039 487.318,573.679 487.679,573.318 488.039,572.599 488.759,572.238 489.119,571.879 489.839,571.519 490.199,571.159 490.919,570.799 491.279,570.438 491.999,570.079 492.358,569.719 493.079,569.358 493.438,568.999 493.799,568.999 493.799,569.358 493.799,569.719 494.159,570.079 494.519,570.799 494.519,571.159 494.879,571.519 494.879,572.238 495.239,572.599 495.599,573.318 495.599,573.679 495.959,574.398 496.318,575.119 496.679,575.839 497.398,576.559 497.759,576.919 498.119,577.639 514.318,602.839 522.599,597.079 522.599,597.079 522.959,596.719 522.959,596.719 523.318,596.358 523.318,596.358 523.679,595.999 523.679,595.999 524.039,595.639 524.039,595.278 524.398,594.919 524.398,594.919 524.759,594.559 524.759,594.198 525.119,593.839 525.119,593.479 525.479,593.119 525.839,593.479 526.199,594.198 526.559,594.559 526.919,594.919 527.278,595.639 527.639,595.999 527.999,596.719 528.358,597.079 528.358,597.799 528.719,598.158 528.719,598.879 528.719,599.238 528.719,599.959 528.719,600.318 528.719,601.039 528.719,601.398 526.919,603.198 525.119,604.639 523.318,606.079 521.879,607.158 520.079,608.599 518.999,609.318 517.559,610.398 516.479,611.479 515.398,612.198 514.318,612.919 513.599,613.278 512.879,613.999 512.158,614.358 511.799,614.358 511.438,614.719 511.079,614.719 504.599,601.759 491.279,579.438 491.279,579.438 491.279,579.079 490.919,578.719 490.559,578.358 "
   id="polygon21"
   style="fill:#ffe363"
   transform="translate(-6,-65.000001)" />
<polygon
   points="420.719,151.76 421.439,152.12 422.519,152.48 423.239,152.84 424.319,153.2 425.039,153.92 426.119,154.28 426.839,155 427.199,155.72 427.919,156.44 428.279,157.16 439.079,187.4 446.639,167.6 446.639,167.24 446.999,167.24 446.999,166.88 446.999,166.52 446.999,166.52 446.999,166.52 446.999,166.16 447.359,165.8 447.359,165.8 447.359,165.44 447.359,165.44 447.359,165.08 447.359,165.08 447.359,164.72 447.359,164.72 447.359,164.36 447.359,159.68 455.639,162.92 443.039,207.56 442.679,207.56 442.319,207.56 441.959,207.56 441.599,207.56 441.239,207.2 440.879,207.2 440.519,207.2 440.159,207.2 439.438,206.84 439.079,206.84 438.719,206.479 437.999,206.479 437.639,206.12 436.919,206.12 436.559,205.76 435.839,205.399 419.639,157.88 419.639,157.52 419.639,157.16 419.639,157.16 419.639,156.8 419.279,156.44 419.279,156.08 418.919,155.72 418.919,155 418.559,154.64 418.199,154.28 417.839,153.92 417.479,153.2 417.479,152.84 417.119,152.48 416.399,152.12 416.039,151.76 416.759,151.4 417.479,151.4 418.199,151.4 418.919,151.76 419.639,151.76 "
   id="polygon23"
   style="fill:#ffe363"
   transform="translate(-6,-65.000001)" />
<polygon
   points="170.16,629.479 170.52,629.118 170.879,628.759 170.879,628.398 170.879,628.039 171.24,627.679 171.24,627.318 171.6,626.959 171.6,626.599 171.6,626.238 171.6,625.879 171.959,625.519 173.76,608.959 164.04,629.479 160.439,607.158 158.28,623.719 157.919,624.078 157.919,624.438 157.919,624.799 157.919,625.158 157.919,625.519 157.919,625.879 157.919,626.238 157.919,626.599 158.28,626.959 158.28,627.318 158.28,627.679 158.28,628.039 158.64,628.398 158.64,628.398 158.64,628.759 159,629.118 148.919,627.679 148.919,627.318 149.28,627.318 149.28,626.959 149.64,626.599 150,626.238 150,625.879 150,625.519 150.36,625.158 150.36,624.799 150.36,624.438 150.36,624.078 150.36,623.719 150.72,623.358 150.72,622.999 150.72,622.639 150.72,622.278 150.72,621.919 151.08,621.198 151.08,620.118 151.439,619.398 151.439,618.318 151.8,616.879 152.16,615.438 152.52,613.639 152.52,611.479 152.879,609.318 153.6,607.158 153.959,604.639 154.32,601.759 154.68,598.519 155.399,595.278 155.76,592.039 155.76,590.599 156.12,589.879 156.12,588.799 156.12,587.719 156.12,586.999 156.12,586.278 156.12,585.559 156.12,584.839 156.12,584.119 156.12,583.759 156.12,583.039 155.76,582.679 155.76,582.318 155.76,581.959 155.399,581.238 155.399,580.879 164.04,582.679 166.919,603.559 175.2,584.479 185.64,585.559 185.28,585.559 185.28,585.919 184.919,586.278 184.56,586.639 184.56,586.999 184.2,587.358 184.2,587.719 183.839,588.079 183.479,588.438 183.479,588.799 183.479,589.158 183.12,589.519 183.12,589.519 183.12,589.879 183.12,590.238 183.12,590.599 180.959,609.679 180.6,612.198 180.24,614.719 179.879,616.879 179.879,619.039 179.52,620.839 179.52,622.639 179.52,624.078 179.16,625.879 179.16,627.318 179.16,628.398 179.16,629.479 179.16,630.198 179.16,631.278 179.16,631.639 179.16,632.358 179.16,632.719 169.08,630.919 169.439,630.559 169.8,630.198 169.8,629.839 170.16,629.479 "
   id="polygon25"
   style="fill:#ffe363"
   transform="translate(-6,-65.000001)" />
<polygon
   points="322.439,187.4 320.999,186.68 319.561,186.32 318.119,185.6 317.039,184.88 315.6,183.8 314.159,183.08 312.719,182 311.641,180.56 310.199,179.479 308.759,178.04 309.119,177.32 309.119,176.6 309.119,175.88 309.479,175.52 309.839,174.8 309.839,174.439 310.199,174.08 310.561,173.36 310.919,173 311.279,172.64 311.999,172.28 312.359,171.92 312.719,171.56 313.439,171.2 313.799,171.2 314.52,170.84 315.239,170.84 315.239,171.92 315.6,173 315.959,174.08 316.68,175.16 317.039,175.88 317.759,176.6 318.479,177.32 319.199,178.04 319.561,178.4 320.641,179.12 321.359,179.479 322.079,179.84 323.159,180.2 323.879,180.2 324.959,180.56 325.68,180.56 326.759,180.56 328.199,180.92 329.279,180.56 330.359,180.56 331.439,180.2 332.52,179.84 333.239,179.479 334.318,178.76 335.039,178.04 335.759,177.68 336.479,176.96 337.199,176.24 337.561,175.52 337.919,175.16 338.279,174.439 338.279,173.72 338.639,172.64 338.639,171.56 338.639,170.479 338.639,169.76 338.639,168.68 338.279,167.96 337.919,166.88 337.561,166.16 336.839,165.44 336.119,165.08 335.398,164.36 334.68,164 333.6,163.28 332.52,162.92 331.439,162.56 329.999,162.2 325.68,161.479 324.6,161.12 323.52,161.12 322.799,160.76 322.079,160.76 321.359,160.4 320.641,160.4 319.919,160.04 319.199,160.04 318.839,160.04 318.119,159.68 317.759,159.68 317.398,159.32 317.039,159.32 316.68,159.32 316.318,158.96 316.318,158.96 315.239,158.24 314.52,157.88 313.799,157.16 313.079,156.44 312.359,155.72 311.999,155 311.641,154.28 311.279,153.56 310.919,152.84 310.919,151.76 310.561,150.68 310.561,149.96 310.919,148.88 310.919,147.8 311.279,147.08 311.641,145.64 312.719,143.48 313.799,141.68 315.6,140.24 317.039,139.16 319.199,138.44 321.359,137.72 323.52,137.72 325.68,137.72 327.839,137.72 329.999,138.08 332.159,138.8 334.318,139.88 336.119,140.6 337.919,142.04 339.719,143.12 340.799,144.56 341.159,144.92 341.52,145.28 341.52,146 341.52,146.36 341.159,147.08 341.159,147.44 340.799,147.8 340.079,148.52 339.719,148.88 338.999,149.24 338.639,149.6 337.919,149.96 337.561,150.32 336.839,150.68 336.479,150.68 336.119,151.04 335.398,149.6 334.318,148.16 333.239,147.08 331.799,146 330.359,145.28 328.919,144.92 327.119,144.56 325.68,144.56 324.239,144.56 322.799,144.92 321.359,145.28 320.279,146 319.561,146.72 318.839,147.8 318.479,149.24 318.479,150.32 318.839,150.68 319.199,151.04 319.561,151.4 319.919,151.76 320.279,152.12 320.641,152.48 321.359,152.84 321.719,152.84 322.079,153.2 322.799,153.2 323.159,153.56 323.879,153.92 324.6,153.92 324.959,153.92 325.68,154.28 326.759,154.28 331.079,155.36 335.039,156.44 338.639,157.88 341.159,160.04 343.318,162.2 344.759,164.72 345.479,167.24 345.839,170.12 345.839,173 345.119,175.88 344.039,178.4 342.6,180.92 340.799,183.439 338.639,185.24 336.119,186.68 333.239,187.76 330.359,188.479 328.919,188.479 327.839,188.479 326.398,188.12 324.959,188.12 323.52,187.76 "
   id="polygon27"
   style="fill:#ffe363"
   transform="translate(-6,-65.000001)" />
<polygon
   points="234.239,192.439 232.799,192.08 231.359,191.72 229.919,191 228.479,190.64 227.04,189.92 225.6,188.84 224.16,188.12 222.719,187.04 221.279,185.96 219.839,184.88 219.839,183.8 219.839,183.439 219.839,182.72 219.839,182 220.199,181.64 220.56,180.92 220.56,180.56 220.919,179.84 221.279,179.479 221.64,179.12 222,178.76 222.719,178.4 223.08,178.04 223.439,177.68 224.16,177.32 224.52,176.96 225.239,176.96 225.6,178.04 225.959,179.12 226.68,180.2 227.04,180.92 227.759,181.64 228.479,182.36 229.199,183.08 229.919,183.8 230.64,184.16 231.359,184.52 232.439,184.88 233.159,184.88 234.239,185.24 234.959,185.24 236.04,185.24 236.759,185.24 238.199,185.6 239.279,185.6 240.359,185.24 241.439,184.88 242.52,184.52 243.6,184.16 244.319,183.439 245.04,182.72 245.759,182 246.479,181.28 247.199,180.56 247.56,179.84 247.919,179.479 248.279,178.4 248.64,178.04 248.64,177.32 248.64,176.24 248.64,175.16 248.64,174.08 248.64,173.36 248.279,172.28 247.919,171.56 247.56,170.84 246.839,170.12 246.479,169.4 245.399,169.04 244.679,168.32 243.959,167.96 242.879,167.6 241.799,167.24 240.719,167.24 239.279,166.88 234.6,166.52 233.52,166.52 232.799,166.52 231.719,166.16 231,166.16 230.279,166.16 229.56,166.16 228.839,165.8 228.479,165.8 227.759,165.8 227.04,165.44 226.68,165.44 226.319,165.44 225.959,165.44 225.6,165.08 225.239,165.08 225.239,165.08 224.16,164.36 223.439,164 222.359,163.64 221.64,162.92 220.919,162.2 220.56,161.479 219.839,160.76 219.479,160.04 219.12,159.32 219.12,158.24 218.759,157.52 218.759,156.44 218.759,155.72 218.759,154.64 218.759,153.56 219.12,152.48 219.839,150.32 220.919,148.16 222.359,146.36 224.16,145.28 225.959,144.2 227.759,143.48 229.919,143.12 232.08,142.76 234.239,142.76 236.759,142.76 238.919,143.12 241.08,143.84 242.879,144.56 245.04,145.64 246.479,146.72 247.919,147.8 248.64,148.52 248.64,148.88 249,149.6 249,149.96 248.64,150.32 248.64,151.04 248.279,151.4 247.919,152.12 247.199,152.48 246.839,153.2 246.12,153.56 245.759,153.92 245.399,154.28 244.679,154.64 244.319,155 243.959,155 243.239,153.56 242.159,152.48 240.719,151.4 239.279,150.68 237.839,149.96 236.04,149.6 234.6,149.6 233.159,149.6 231.719,149.96 230.279,150.32 228.839,151.04 227.759,151.76 227.04,152.48 226.68,153.56 226.319,155 226.68,156.08 226.68,156.44 227.04,156.8 227.399,157.16 228.12,157.52 228.479,157.88 228.839,157.88 229.199,158.24 229.919,158.24 230.279,158.6 231,158.6 231.719,158.96 232.08,158.96 232.799,158.96 233.52,159.32 234.239,159.32 234.959,159.32 239.64,159.68 243.6,160.4 247.199,161.479 249.719,163.28 252.239,165.44 254.04,167.6 255.119,170.479 255.839,173 256.199,175.88 255.839,178.76 255.119,181.64 253.679,184.16 252.239,186.68 250.08,188.84 247.919,190.64 245.399,192.08 242.159,192.8 240.719,193.16 239.64,193.16 238.199,193.16 236.759,193.16 235.319,192.8 "
   id="polygon29"
   style="fill:#ffe363"
   transform="translate(-6,-65.000001)" />
<polygon
   points="279.599,147.08 279.239,147.08 278.879,147.08 278.52,147.08 277.799,147.08 277.439,147.44 276.719,147.44 276.359,147.44 276,147.44 275.639,147.8 274.919,147.8 274.56,148.16 274.199,183.8 274.199,183.8 274.199,183.8 274.199,183.8 274.199,183.8 274.199,184.16 274.199,184.16 274.199,184.16 274.199,184.16 274.199,184.16 274.199,184.52 274.199,184.52 274.199,184.52 274.199,184.52 275.279,186.68 265.56,188.479 266.639,186.32 266.639,185.96 266.639,185.96 266.639,185.96 266.639,185.96 266.639,185.96 266.639,185.96 266.639,185.96 266.639,185.96 266.639,185.6 266.639,185.6 266.639,185.6 266.639,185.6 266.639,185.6 267,148.52 266.639,148.16 266.279,148.16 265.56,147.8 265.199,147.8 264.479,147.8 263.759,147.8 263.04,147.44 262.319,147.44 261.599,147.44 260.879,147.8 259.799,147.8 259.08,147.8 258.359,147.8 257.279,147.8 256.56,148.16 255.839,148.16 255.479,148.16 255.119,148.16 255.119,148.52 254.759,148.52 254.399,148.52 254.399,148.52 254.04,148.88 254.04,148.88 253.679,148.88 253.679,149.24 253.319,149.24 252.959,149.6 252.959,149.6 252.6,149.6 252.6,149.96 252.239,149.96 252.239,141.68 286.799,139.88 286.799,148.16 282.479,147.08 281.759,147.08 281.399,147.08 280.679,147.08 280.319,147.08 "
   id="polygon31"
   style="fill:#ffe363"
   transform="translate(-6,-65.000001)" />
<polygon
   points="477.959,621.559 477.239,620.839 476.519,620.479 476.159,619.759 475.438,619.039 475.079,618.318 474.719,617.599 473.999,616.519 473.639,615.438 473.279,614.358 473.279,613.278 472.919,612.559 472.559,611.839 472.199,610.759 472.199,610.039 471.839,608.959 471.479,607.879 471.479,607.158 471.119,606.079 470.759,605.358 470.759,604.278 470.398,603.559 470.398,602.479 470.039,601.759 470.039,600.679 469.679,599.959 469.318,598.879 468.959,597.079 468.599,595.639 468.239,594.198 467.879,592.759 467.879,591.679 467.519,590.238 467.159,589.158 466.799,588.438 466.799,587.358 466.438,586.639 466.438,585.919 466.079,585.559 466.079,585.198 466.079,584.839 466.079,584.479 466.079,584.479 465.719,584.479 465.719,584.119 465.719,583.759 465.358,583.398 465.358,583.398 465.358,583.039 465.358,583.039 465.358,582.679 464.999,582.679 464.999,582.318 464.639,581.959 464.639,581.959 464.279,581.599 463.919,581.238 463.559,580.879 463.199,580.519 472.199,577.999 472.199,578.358 471.839,578.719 471.839,579.079 471.839,579.438 471.839,579.799 471.839,580.159 471.839,580.159 472.199,580.519 472.199,580.879 472.199,581.238 472.199,581.599 472.199,581.959 472.559,582.318 472.559,582.679 472.559,583.039 472.919,583.039 473.279,585.198 473.639,586.999 473.999,588.438 474.358,590.238 474.719,591.679 475.079,593.119 475.438,594.559 475.799,596.358 476.159,597.799 476.519,599.599 477.239,601.398 477.599,603.559 478.679,605.719 479.398,607.879 480.119,610.398 481.199,613.278 481.559,613.999 481.919,614.358 482.279,614.719 482.999,615.078 483.719,615.438 484.438,615.438 485.159,615.438 485.879,615.438 486.599,615.438 486.959,615.078 487.679,614.719 488.039,613.999 488.398,613.278 488.759,612.198 488.759,611.119 488.759,609.679 488.398,609.318 488.039,608.238 487.679,606.799 487.318,605.358 486.599,603.198 485.879,600.679 485.159,598.158 484.079,595.639 483.358,593.119 482.639,590.599 481.919,588.438 481.199,586.278 480.479,584.479 480.119,583.039 479.759,581.959 479.398,581.599 479.398,581.599 479.039,581.238 479.039,580.879 479.039,580.519 478.679,580.159 478.679,580.159 478.679,579.799 478.318,579.438 478.318,579.079 477.959,579.079 477.959,578.719 477.599,578.358 477.239,577.999 476.879,577.639 476.519,577.278 476.159,576.919 484.438,574.398 486.239,579.799 487.679,584.119 489.119,588.438 490.559,592.039 491.639,595.639 492.358,598.519 493.438,601.398 494.159,603.559 494.519,605.719 494.879,607.519 495.239,608.959 495.599,610.398 495.599,611.479 495.959,612.559 495.959,613.278 495.599,613.999 495.599,615.438 494.879,616.879 494.519,617.959 493.438,619.039 492.719,620.118 491.999,620.839 490.919,621.559 490.199,621.919 489.119,622.639 488.039,622.999 486.959,622.999 485.879,623.358 484.799,623.358 484.079,623.358 483.358,623.358 482.639,623.358 481.559,622.999 480.839,622.999 480.119,622.639 479.398,622.278 478.679,621.919 "
   id="polygon33"
   style="fill:#ffe363"
   transform="translate(-6,-65.000001)" />
<polygon
   points="498.479,214.399 498.839,214.76 499.199,214.76 499.559,215.12 499.919,215.479 500.278,215.84 500.639,216.2 500.639,216.56 500.999,216.919 501.358,217.28 501.719,218 501.719,218.359 501.719,219.08 501.358,219.8 500.999,220.88 499.919,221.6 498.839,222.68 497.398,223.76 495.959,224.479 494.159,224.84 492.358,225.56 490.559,225.56 488.398,225.56 486.239,225.2 484.079,224.479 481.919,223.399 479.759,221.6 478.679,220.52 477.599,219.439 476.519,218.359 475.799,217.28 474.719,215.84 473.999,214.76 473.279,213.68 472.919,212.24 472.199,210.8 471.839,209.359 471.479,207.919 471.119,206.479 470.759,205.04 470.759,203.6 470.759,201.8 470.759,200.36 470.759,194.6 471.479,189.92 472.919,185.6 474.358,182.36 476.159,179.479 478.679,177.32 480.839,175.52 483.358,174.439 485.879,173.72 488.398,173.72 490.919,174.08 493.438,174.8 495.599,175.88 497.759,177.68 499.199,179.479 500.639,181.64 500.278,182.36 499.919,183.08 499.559,183.8 499.199,184.52 498.839,185.24 498.119,185.6 497.759,186.32 497.398,186.68 497.039,187.04 496.679,187.76 496.318,188.12 495.959,188.12 495.599,188.479 494.879,188.84 494.519,189.2 494.159,189.2 494.159,187.04 493.438,185.24 492.719,183.8 491.639,182.36 490.199,181.64 489.119,181.28 487.318,181.28 485.879,181.64 484.438,182.72 482.999,184.16 481.559,185.96 480.479,188.479 479.398,191.36 478.679,194.6 478.318,198.56 478.679,203.24 479.039,206.479 480.119,209.359 481.199,211.52 482.279,213.319 483.719,214.76 485.159,215.84 486.599,216.919 488.039,217.28 489.479,217.64 490.919,217.64 491.999,217.64 493.079,216.919 494.159,216.56 494.879,215.84 495.239,215.12 495.599,214.04 495.599,212.6 495.959,212.959 496.679,213.319 497.398,213.319 497.759,213.68 498.119,214.04 "
   id="polygon35"
   style="fill:#ffe363"
   transform="translate(-6,-65.000001)" />
<polygon
   points="222,589.879 222,589.879 222.359,590.238 222.359,590.238 222.719,590.238 222.719,590.238 223.08,590.238 223.08,590.238 223.439,590.238 223.439,590.238 223.799,590.599 224.16,590.599 235.319,622.639 236.399,593.839 236.399,593.839 236.399,593.479 236.399,593.119 236.399,593.119 236.399,592.759 236.399,592.759 236.399,592.398 236.04,592.398 236.04,592.039 236.04,592.039 236.04,591.679 236.04,591.679 236.04,591.318 236.04,591.318 235.68,590.959 235.68,590.959 237.839,590.959 238.199,591.318 238.919,591.318 239.279,591.318 239.64,591.318 240.359,591.318 240.359,591.318 241.08,591.318 241.439,591.679 241.799,591.679 242.159,591.679 242.52,592.039 242.879,592.039 243.239,592.039 243.6,592.398 243.959,592.759 244.319,593.119 243.6,597.438 243.239,602.479 242.879,606.438 242.879,610.398 242.52,613.999 242.52,617.238 242.159,620.479 242.159,623.358 241.799,625.879 241.439,628.398 241.439,630.919 241.439,632.719 241.08,634.519 241.08,636.318 240.719,637.398 240.719,638.839 240.359,639.559 240.359,640.278 239.64,640.278 238.919,640.278 238.199,640.278 237.479,640.278 237.12,640.278 236.399,639.919 236.04,639.919 235.68,639.919 235.319,639.919 234.959,639.559 234.6,639.559 234.239,639.559 233.879,639.198 233.52,639.198 233.159,638.839 232.799,638.479 230.64,633.438 229.919,631.639 229.56,630.198 228.839,628.398 228.479,627.318 227.759,625.879 227.399,624.438 226.68,623.358 226.319,622.278 225.959,621.198 225.6,620.118 225.239,619.398 224.879,618.318 224.52,617.599 224.16,616.879 223.799,616.519 223.799,615.799 222.359,637.759 221.64,637.759 220.919,637.759 220.56,637.759 219.839,637.759 219.479,637.759 218.759,637.759 218.04,637.759 217.68,637.759 216.959,637.759 216.6,637.398 215.879,637.398 215.52,637.398 214.799,637.398 214.439,637.038 214.08,637.038 213.72,636.679 213.72,636.679 214.08,636.318 214.08,635.959 214.439,635.238 214.439,634.519 214.799,633.799 215.16,633.078 215.16,631.998 215.52,631.278 215.52,630.198 215.52,628.759 215.879,627.679 215.879,626.238 216.239,625.158 216.239,623.719 216.6,622.278 216.6,618.679 216.959,615.438 217.319,612.198 217.68,609.318 217.68,606.799 217.68,604.278 218.04,602.119 218.04,600.318 218.04,598.519 218.04,596.719 218.399,595.278 218.399,594.198 218.04,593.119 218.04,592.398 218.04,591.679 218.04,590.959 218.04,590.959 218.04,590.959 218.04,590.959 218.04,590.599 217.68,590.599 217.68,590.599 217.68,590.238 217.68,590.238 217.68,590.238 217.68,589.879 217.319,589.879 217.319,589.879 217.319,589.519 216.959,589.519 216.959,589.519 216.959,589.158 221.279,589.879 221.279,589.879 221.64,589.879 221.64,589.879 221.64,589.879 "
   id="polygon37"
   style="fill:#ffe363"
   transform="translate(-6,-65.000001)" />
<polygon
   points="188.879,198.92 188.879,198.56 188.879,198.2 189.24,197.84 189.24,197.479 189.24,197.12 189.24,197.12 189.24,196.76 189.24,196.399 189.24,196.04 189.24,195.68 189.24,158.6 189.24,158.24 189.24,157.88 189.24,157.52 189.24,157.16 189.24,156.8 188.879,156.44 188.879,156.08 188.879,156.08 188.52,155.72 188.52,155.36 188.16,155 188.16,155 187.799,154.64 187.439,154.28 187.08,153.92 186.72,153.92 213,147.8 213,148.16 213,148.52 213,148.88 213,149.24 213,149.6 213,150.32 213,150.68 213.359,151.04 213.359,151.4 213.359,152.12 213.359,152.48 213.359,153.2 213.359,153.56 213.72,154.28 213.72,155 213.72,155.36 213.72,155.36 213.72,155.36 213.359,155.36 213.359,155.36 213,155.36 213,155.36 212.64,155.36 212.279,155 212.279,155 211.919,155 211.56,155 211.56,155 211.56,155 211.2,155 211.2,155 210.12,155 209.04,155 208.319,155 207.239,155 206.52,155 205.799,155.36 205.08,155.36 204.359,155.72 203.64,155.72 202.919,156.08 201.839,156.08 200.76,156.44 200.04,157.16 198.6,157.52 197.52,157.88 196.08,158.6 196.08,166.88 196.439,166.88 197.16,166.88 197.879,166.88 198.6,166.88 198.959,166.52 199.68,166.52 200.76,166.52 201.479,166.16 202.2,166.16 202.919,165.8 203.64,165.44 204.359,165.44 205.08,165.08 205.799,164.72 206.52,164.36 207.239,164.36 207.239,164.36 207.239,164.36 207.239,164.72 207.6,165.08 207.6,165.44 207.6,165.8 207.959,166.16 207.959,166.52 207.959,167.24 208.319,167.6 208.319,168.32 208.319,169.04 208.68,169.76 208.68,170.479 208.68,171.56 209.04,172.28 207.959,172.28 207.239,172.28 206.16,172.64 205.08,172.64 204.359,172.64 203.279,173 202.56,173 201.839,173 200.76,173.36 200.04,173.72 199.319,174.08 198.6,174.08 197.879,174.439 197.16,174.8 196.799,175.16 196.08,175.52 196.08,177.32 196.08,178.76 196.08,180.2 196.08,181.28 196.08,182.36 196.08,183.439 196.08,184.52 196.439,185.24 196.439,186.32 196.439,187.04 196.439,187.76 196.439,188.479 196.439,189.2 196.439,189.92 196.439,190.28 196.799,191 197.52,191 198.6,191 199.68,190.64 200.76,190.28 201.839,189.92 202.919,189.56 204.359,189.2 205.799,188.84 206.879,188.479 208.319,188.12 209.399,187.76 210.839,187.4 212.279,187.04 213.359,186.68 214.799,186.32 216.239,185.96 216.239,187.04 215.879,188.12 215.879,188.84 215.879,189.92 215.879,190.64 215.52,191.36 215.52,192.08 215.52,192.439 215.16,193.16 215.16,193.52 214.799,193.88 214.439,194.24 214.08,194.6 213.72,194.6 213.72,194.96 213.359,194.96 187.439,200.72 187.799,200.36 188.16,200 188.16,199.64 188.52,199.64 188.52,199.28 "
   id="polygon39"
   style="fill:#ffe363"
   transform="translate(-6,-65.000001)" />
<polygon
   points="369.959,190.28 368.159,190.28 366.359,189.56 364.561,189.2 362.759,188.84 360.959,188.479 359.159,188.12 357.359,187.76 355.919,187.4 354.479,187.04 352.68,186.68 351.6,186.32 353.039,181.64 353.039,181.64 353.398,181.64 353.398,181.64 353.398,181.28 353.398,181.28 353.398,181.28 353.398,181.28 353.398,181.28 353.398,180.92 353.398,180.92 353.398,180.92 353.398,180.92 353.398,180.56 353.398,180.56 353.398,180.56 354.119,147.8 353.759,147.8 353.759,147.44 353.759,147.44 353.759,147.44 353.759,147.08 353.759,147.08 353.759,146.72 353.759,146.36 353.759,146.36 353.759,146.36 353.759,146 353.759,146 353.759,145.64 353.398,145.64 353.398,145.28 353.398,145.28 352.318,141.68 353.039,141.68 354.479,142.04 355.919,142.04 357.719,142.04 359.879,142.4 362.039,142.4 364.199,142.76 366.359,143.12 368.52,143.48 370.68,143.48 372.839,144.2 374.999,144.2 376.799,144.56 378.239,144.92 379.318,145.28 380.398,145.64 381.119,153.56 374.639,151.04 373.561,150.68 372.839,150.68 371.759,150.68 370.68,150.32 369.6,150.32 368.52,150.32 367.439,149.96 366.359,149.96 365.279,149.96 364.561,149.96 363.839,149.96 363.119,149.96 362.398,149.96 362.039,149.96 361.68,150.32 361.318,150.32 361.318,158.96 362.039,158.96 362.398,159.32 363.119,159.32 363.479,159.32 364.199,159.68 364.919,159.68 365.639,159.68 366.359,159.68 367.079,159.68 367.439,159.68 368.159,159.68 368.879,159.68 369.6,159.68 370.318,159.68 371.039,159.68 371.759,159.32 371.759,166.88 371.039,166.88 370.318,166.88 369.6,166.52 368.879,166.52 368.159,166.52 367.439,166.16 366.719,166.16 366.359,166.16 365.639,165.8 364.919,165.8 364.561,165.8 363.839,165.8 363.119,165.44 362.759,165.44 362.039,165.8 361.68,165.8 361.68,166.52 361.318,167.6 361.318,168.68 361.318,169.4 361.318,170.479 361.318,171.2 361.318,172.28 361.318,173 361.318,174.08 361.318,175.16 361.318,175.88 361.318,176.96 361.318,177.68 361.318,178.76 361.68,179.84 361.68,180.56 362.039,180.92 362.398,180.92 362.759,181.28 363.119,181.28 363.839,181.28 364.199,181.64 364.919,181.64 365.639,181.64 366.359,182 367.079,182.36 367.439,182.36 368.52,182.36 369.239,182.72 369.959,182.72 370.68,183.08 371.759,183.08 372.479,183.08 372.839,183.439 373.561,183.439 373.919,183.439 374.639,183.439 375.359,183.439 375.719,183.439 376.439,183.439 376.799,183.08 377.52,183.08 378.239,183.08 378.6,183.08 379.318,183.08 379.68,183.08 380.398,182.72 381.119,182.72 377.52,191.36 376.079,191.36 374.639,191 373.199,191 371.398,190.64 "
   id="polygon41"
   style="fill:#ffe363"
   transform="translate(-6,-65.000001)" />
<polygon
   points="187.08,632.719 187.439,632.358 187.799,632.358 187.799,631.998 187.799,631.998 188.16,631.639 188.16,631.639 188.52,631.278 188.52,630.919 188.52,630.559 188.879,630.198 188.879,629.839 189.24,629.118 189.24,627.679 189.6,625.519 189.959,622.999 190.319,619.759 190.68,616.519 191.04,612.919 191.399,609.318 191.76,606.079 192.12,602.479 192.12,599.238 192.479,596.358 192.479,593.479 192.839,591.679 192.479,590.238 192.479,589.158 191.76,585.919 213.359,589.158 213.359,589.519 213.359,589.879 213.359,590.238 213.72,590.599 213.72,590.959 213.72,591.318 213.72,591.679 213.72,592.398 213.72,592.759 213.72,593.479 214.08,594.198 214.08,594.919 214.08,595.639 214.08,596.358 214.439,597.079 214.439,597.799 209.759,595.278 209.399,595.278 209.399,595.278 208.68,595.278 207.959,595.278 207.239,594.919 206.52,594.919 205.439,594.919 204.72,594.919 204,594.559 202.919,594.559 202.2,594.559 201.479,594.559 200.76,594.559 200.399,594.559 200.04,594.919 200.04,594.919 198.6,606.438 198.959,606.799 199.319,606.799 199.68,606.799 200.04,606.799 200.399,606.799 200.76,606.799 201.479,606.799 201.839,607.158 202.2,607.158 202.919,607.158 203.64,607.519 204.359,607.519 205.08,607.519 205.799,607.879 206.52,607.879 207.239,607.879 207.239,608.599 207.239,608.959 207.239,609.679 207.239,610.039 207.239,610.398 207.239,611.119 207.239,611.479 207.239,611.839 207.239,612.198 206.879,612.559 206.879,613.278 206.879,613.639 206.879,613.999 206.52,614.358 206.52,614.719 206.52,615.078 205.799,615.078 205.439,614.719 205.08,614.719 204.359,614.719 204,614.358 203.279,614.358 202.919,614.358 202.2,614.358 201.839,613.999 201.12,613.999 200.76,613.999 200.04,613.999 199.68,613.999 198.959,613.639 198.6,613.639 198.24,613.639 196.439,628.039 207.239,629.479 207.239,629.479 207.6,629.479 207.6,629.479 207.959,629.479 207.959,629.479 208.319,629.479 208.319,629.479 208.319,629.479 208.68,629.479 209.04,629.479 209.04,629.479 209.399,629.479 209.759,629.479 209.759,629.118 210.12,629.118 210.479,628.759 209.04,634.158 209.04,634.158 209.04,634.519 209.04,634.519 209.04,634.519 208.68,634.879 208.68,634.879 208.68,635.238 208.68,635.238 208.68,635.599 208.68,635.599 208.68,635.959 208.68,635.959 208.68,636.318 208.68,636.318 208.68,636.679 208.68,636.679 186,633.438 186,633.438 186.359,633.078 186.72,633.078 187.08,632.719 "
   id="polygon43"
   style="fill:#ffe363"
   transform="translate(-6,-65.000001)" />
<polygon
   points="464.639,614.358 465.358,614.719 465.719,615.078 466.079,615.078 466.438,615.438 466.799,615.799 467.519,616.158 467.879,616.519 468.239,616.879 468.959,617.238 469.318,617.599 469.318,618.679 468.959,620.118 468.599,621.198 468.239,622.278 467.879,623.358 467.159,624.438 466.438,625.158 465.719,625.879 464.999,626.599 464.279,627.318 463.559,627.679 462.839,628.398 462.119,628.398 461.398,628.759 460.679,629.118 460.318,629.118 459.599,629.479 458.519,629.479 457.438,629.118 455.999,628.759 454.559,628.398 453.119,627.679 451.679,626.599 449.879,625.158 448.438,623.358 446.639,621.559 445.559,619.039 444.119,616.158 443.039,612.919 441.959,608.959 441.239,604.639 440.879,599.599 440.519,595.278 440.879,592.039 441.599,588.799 442.319,586.639 443.759,584.479 445.199,583.398 446.639,582.318 448.438,581.599 450.239,581.599 452.039,581.599 453.839,581.959 455.639,582.318 457.079,583.039 458.519,583.759 459.959,584.479 461.039,585.198 461.039,585.559 461.039,585.559 461.039,585.559 461.039,585.559 461.039,585.919 461.039,585.919 461.039,585.919 461.039,585.919 461.039,586.278 461.039,586.278 461.039,586.278 461.039,586.639 461.039,586.639 457.438,593.479 457.438,592.398 457.438,591.679 457.079,590.959 456.719,590.238 456.359,589.879 455.999,589.519 455.279,588.799 454.919,588.799 454.199,588.438 453.839,588.438 453.119,588.079 452.759,588.079 452.039,588.079 451.679,588.079 451.319,588.438 450.599,588.438 449.519,588.799 448.438,590.238 447.719,592.039 447.359,594.198 446.999,596.719 447.359,599.599 447.359,602.479 448.079,605.358 448.799,608.599 449.879,611.479 450.959,613.999 452.398,616.519 453.839,618.679 455.639,620.118 457.438,621.198 459.599,621.919 459.959,621.919 460.318,621.559 460.679,621.559 460.679,621.198 461.039,621.198 461.398,620.839 461.398,620.839 461.759,620.479 461.759,620.118 462.119,619.759 462.119,619.398 462.119,619.039 462.119,618.679 462.119,617.959 462.119,617.599 462.119,616.879 462.119,613.278 462.479,613.278 462.839,613.639 463.559,613.639 463.919,613.999 464.279,614.358 "
   id="polygon45"
   style="fill:#ffe363"
   transform="translate(-6,-65.000001)" />
<polygon
   points="81.96,247.879 81.96,247.52 81.96,247.52 81.96,247.16 81.96,246.8 82.32,246.439 82.32,246.08 82.32,246.08 82.32,245.72 82.32,245.359 82.32,245 82.68,197.479 82.68,197.479 82.68,197.12 82.68,196.76 82.32,196.399 82.32,196.399 82.32,196.04 81.96,195.68 81.96,195.32 81.6,195.32 81.24,194.96 81.24,194.6 80.88,194.6 80.52,194.24 80.16,194.24 80.16,194.24 79.8,194.24 81.24,193.16 82.68,192.439 84.12,191.72 85.2,191 86.28,190.64 87.72,189.92 88.8,189.56 89.52,188.84 90.6,188.479 91.68,188.12 92.76,187.4 93.48,187.04 94.2,186.68 95.28,186.32 96,185.96 97.08,185.6 97.44,185.24 98.16,184.88 98.52,184.52 99.24,184.16 99.96,184.16 100.32,183.8 101.04,183.439 101.76,183.08 102.12,183.08 102.84,182.72 103.56,182.36 104.28,182 104.64,181.64 105.36,181.28 105.72,180.92 106.44,180.56 106.8,188.84 106.08,188.84 105.36,188.84 105,188.84 104.28,189.2 103.92,189.2 103.2,189.56 102.48,190.28 101.4,190.64 100.32,191 99.6,191.72 98.16,192.439 97.08,193.16 95.64,193.88 94.2,194.6 92.4,195.32 90.6,196.399 90.24,197.12 90.24,197.479 89.88,198.2 89.88,198.92 89.52,199.28 89.52,200 89.52,200.36 89.52,201.08 89.52,201.8 89.52,202.52 89.16,202.88 89.16,203.959 89.16,204.68 89.16,205.399 89.16,206.12 89.16,206.84 90.24,206.479 90.96,206.12 91.68,206.12 92.4,205.76 93.12,205.399 93.48,205.04 94.2,205.04 94.92,204.68 95.28,204.32 95.64,204.32 96,203.959 96.36,203.959 96.72,203.959 97.08,203.959 97.08,203.6 97.44,203.6 101.4,201.439 101.4,202.16 101.76,202.52 101.76,203.24 102.12,203.6 102.12,203.959 102.12,204.68 102.48,205.04 102.48,205.399 102.48,206.12 102.48,206.479 102.48,206.84 102.48,207.56 102.48,207.919 102.48,208.28 102.48,208.64 102.48,209 101.76,209.359 101.04,209.359 100.32,209.72 99.24,209.72 98.52,210.08 97.8,210.439 97.08,210.439 96.36,210.8 95.28,211.16 94.56,211.52 93.84,211.88 93.12,212.24 92.04,212.6 91.32,212.959 90.6,213.68 89.52,214.04 89.52,239.959 89.52,240.319 89.52,240.319 89.52,240.319 89.52,240.68 89.52,240.68 89.88,241.04 89.88,241.04 89.88,241.399 89.88,241.399 89.88,241.399 90.24,241.76 90.24,241.76 90.6,242.12 90.6,242.12 90.6,242.12 90.96,242.479 80.88,248.959 81.24,248.959 81.24,248.959 81.24,248.6 81.6,248.24 81.6,248.24 "
   id="polygon47"
   style="fill:#ffe363"
   transform="translate(-6,-65.000001)" />
<polygon
   points="520.079,215.84 519.719,215.84 518.999,215.479 518.278,214.76 517.919,214.76 517.199,214.04 516.479,213.68 515.759,213.68 515.039,212.959 514.318,212.6 513.599,212.6 512.519,212.24 512.519,222.319 512.519,223.399 512.519,224.479 512.519,225.2 512.879,226.28 512.879,227 512.879,227.359 513.238,228.439 513.238,228.8 513.599,229.52 513.599,229.879 513.959,230.24 514.318,230.6 514.318,230.959 514.679,231.319 515.039,231.68 515.398,231.68 525.119,236.359 525.119,236.359 525.479,236.359 525.479,236.359 525.479,236.359 525.839,236.359 525.839,236.359 526.199,236.359 526.199,236 526.559,236 526.559,236 526.919,236 527.278,235.64 527.639,235.64 527.999,235.28 528.358,235.28 528.719,234.919 527.639,246.08 526.559,245.72 525.479,245 524.398,244.279 522.959,243.56 521.879,242.84 520.438,242.12 518.999,241.399 517.559,240.68 515.759,239.6 514.318,238.879 512.519,237.8 510.719,237.08 508.919,236 506.759,234.919 504.959,233.84 502.799,232.76 503.159,232.399 503.519,232.04 503.519,231.68 503.879,231.319 504.238,230.959 504.238,230.6 504.238,230.6 504.599,230.24 504.599,230.24 504.599,229.879 504.959,229.879 504.959,229.52 504.959,229.52 504.959,229.16 504.959,229.16 504.959,228.8 504.959,186.68 504.959,186.68 504.959,186.32 504.959,185.96 504.599,185.6 504.599,185.6 504.599,185.24 504.599,184.88 504.238,184.52 504.238,184.16 503.879,183.8 503.879,183.439 503.519,183.08 503.519,182.72 503.159,182.36 503.159,181.64 502.799,181.28 503.159,181.28 503.159,181.28 503.879,181.64 504.238,181.64 505.318,182.36 506.039,182.72 506.759,183.08 508.199,183.439 509.278,184.16 510.719,184.88 512.158,185.24 513.599,186.32 515.398,187.04 517.199,188.12 518.999,188.84 521.158,189.92 522.238,190.64 522.959,191 524.039,191.36 524.759,192.08 525.479,192.8 526.199,193.16 526.919,193.88 527.639,194.6 527.999,194.96 528.358,195.68 528.719,196.399 529.079,197.12 529.438,197.84 529.438,198.56 529.799,199.28 529.799,199.64 529.079,203.6 528.358,203.24 527.639,202.52 526.559,202.16 525.839,201.439 525.119,200.72 524.039,200.36 523.318,199.64 522.238,199.28 521.158,198.56 520.079,197.84 518.999,197.479 517.919,196.76 516.839,196.399 515.759,195.68 514.318,194.96 512.879,194.6 513.599,205.04 514.318,205.76 514.679,206.12 515.398,206.479 516.119,207.2 516.839,207.2 517.559,207.56 518.278,207.919 518.999,208.28 519.719,208.64 520.079,208.64 520.799,209 521.519,209.359 522.238,209.359 522.599,209.72 523.318,209.72 523.679,210.08 522.959,217.64 522.238,217.64 521.879,216.919 521.158,216.919 520.799,216.2 "
   id="polygon49"
   style="fill:#ffe363"
   transform="translate(-6,-65.000001)" />
<polygon
   points="397.679,633.438 396.959,634.158 395.879,634.879 395.159,635.959 394.079,636.679 393.359,637.398 392.279,637.759 391.199,638.479 390.119,638.839 388.68,639.198 387.6,639.198 386.52,639.198 384.359,638.839 382.199,637.759 380.759,636.679 378.959,634.879 377.52,632.719 376.439,630.559 375.359,628.039 374.279,625.158 373.919,622.639 373.199,619.759 372.839,616.519 372.479,613.639 372.479,610.759 372.479,607.879 372.479,605.358 372.839,602.479 373.199,599.959 373.919,597.438 374.639,595.278 375.719,593.479 376.439,592.039 377.879,590.599 378.959,589.879 380.398,589.158 381.479,588.438 382.919,588.079 384.359,588.079 385.439,588.079 386.879,588.438 387.959,588.438 389.039,588.799 389.759,589.519 391.199,590.238 391.919,590.959 392.999,591.318 393.719,592.398 394.079,593.119 394.439,593.839 394.799,594.559 394.799,595.278 394.799,596.358 394.439,597.079 394.079,598.158 393.719,599.238 392.999,600.318 392.279,601.398 391.199,602.839 390.119,603.919 389.759,603.198 389.759,602.479 389.398,601.759 389.039,601.039 389.039,600.318 388.68,599.599 388.318,599.238 387.959,598.519 387.959,598.158 387.6,597.799 387.6,597.438 387.239,597.079 386.879,596.719 386.879,596.719 386.52,596.358 386.159,596.358 384.359,595.999 382.919,596.719 381.839,597.799 381.119,599.599 380.398,601.759 380.039,604.278 380.039,607.158 380.039,610.039 380.398,612.919 380.759,616.158 381.119,619.039 381.839,621.919 382.559,624.438 383.279,626.599 383.999,628.039 384.719,629.118 385.079,629.479 385.439,630.198 385.439,630.559 386.159,630.919 386.52,630.919 386.879,631.278 387.239,631.639 387.959,631.639 388.318,631.639 388.68,631.639 389.398,631.278 389.759,631.278 390.119,630.919 390.479,630.559 390.839,629.839 391.199,629.118 391.199,619.398 391.199,619.398 391.199,619.398 391.199,619.039 391.199,619.039 390.839,619.039 390.839,618.679 390.839,618.679 390.839,618.679 390.839,618.679 390.839,618.318 390.839,618.318 390.839,618.318 390.839,618.318 390.839,618.318 390.479,618.318 390.479,618.318 390.119,618.318 389.759,618.318 389.398,618.318 389.039,618.318 388.68,618.318 388.318,618.318 387.959,618.318 387.6,618.318 387.239,618.318 386.879,618.679 386.52,618.679 386.159,618.679 386.159,619.039 385.439,619.398 385.439,619.398 385.079,619.759 384.719,617.238 384.719,611.479 384.719,611.479 384.719,611.479 384.719,611.119 384.719,611.119 384.719,611.119 384.719,611.119 384.719,611.119 384.719,611.119 384.719,611.119 385.079,611.119 385.079,611.119 385.079,611.119 385.079,611.119 385.439,610.759 398.039,610.039 399.119,629.479 399.119,630.198 398.759,630.919 398.399,631.639 398.039,632.358 "
   id="polygon51"
   style="fill:#ffe363"
   transform="translate(-6,-65.000001)" />
<polygon
   points="129.479,621.919 129.84,621.919 129.84,621.559 130.2,621.198 130.2,620.839 130.2,620.839 130.56,620.479 130.56,620.118 130.56,619.759 130.92,619.759 130.92,619.398 130.92,619.039 137.4,584.479 137.04,584.119 136.68,583.759 136.32,583.759 135.6,583.398 135.24,583.398 134.88,583.039 134.52,583.039 134.16,582.679 133.439,582.679 133.439,582.679 132.72,582.679 132.36,582.679 132,582.318 132,582.318 131.64,582.318 131.28,582.318 128.76,582.679 128.76,582.318 128.76,581.959 128.76,581.599 128.76,581.238 128.76,580.879 128.76,580.519 128.76,580.159 129.12,579.438 129.12,579.079 129.12,578.719 129.12,577.999 129.479,577.639 129.479,576.919 129.84,576.559 129.84,575.839 130.2,575.119 153.6,580.159 153.6,580.519 153.6,580.879 153.6,581.238 153.6,581.599 153.6,582.318 153.6,582.679 153.6,583.398 153.6,583.759 153.6,584.479 153.24,585.198 153.24,585.559 152.879,586.278 152.879,586.639 152.52,587.358 152.52,587.719 152.16,588.079 151.8,587.719 151.439,587.719 151.08,587.358 150.72,587.358 150.36,586.999 150,586.999 149.28,586.639 148.919,586.639 148.56,586.639 148.2,586.639 147.479,586.278 147.12,586.278 146.399,586.278 146.04,585.919 145.32,585.919 144.959,585.919 144.6,586.639 144.24,588.079 143.88,589.879 143.52,592.039 142.8,594.919 142.08,597.799 141.36,600.679 140.64,603.919 139.919,607.158 139.56,610.398 138.84,613.278 138.12,615.799 137.76,618.318 137.4,619.759 137.4,621.198 137.04,621.559 137.04,621.919 137.04,621.919 137.04,622.278 137.04,622.639 137.04,622.639 137.04,622.999 137.04,623.358 137.04,623.358 137.04,623.719 137.04,624.078 137.04,624.078 137.04,624.438 137.04,624.799 137.04,625.158 137.04,625.519 137.04,625.519 128.04,622.999 128.4,622.999 128.76,622.639 129.12,622.278 129.12,622.278 "
   id="polygon53"
   style="fill:#ffe363"
   transform="translate(-6,-65.000001)" />
<polygon
   points="254.759,639.559 255.119,639.198 255.119,639.198 255.119,638.839 255.119,638.839 255.119,638.479 255.479,638.118 255.479,637.759 255.479,637.759 255.479,637.398 255.479,637.038 255.479,636.679 256.56,599.599 255.839,599.599 255.119,599.238 254.399,599.238 254.04,599.238 253.319,599.238 252.959,599.238 252.239,599.238 251.879,599.238 251.159,599.238 250.799,599.238 250.439,599.238 249.719,599.238 249.359,599.238 248.64,599.238 248.279,599.238 247.919,599.238 247.919,599.238 247.56,598.879 247.56,598.519 247.56,598.158 247.56,598.158 247.56,597.438 247.56,597.079 247.199,596.719 247.199,595.999 247.199,595.639 247.199,595.278 247.199,594.559 247.199,593.839 247.199,593.119 247.199,592.398 247.56,591.679 273.119,593.479 273.119,594.198 273.119,594.559 273.119,595.278 273.119,595.639 273.119,596.358 273.119,596.719 273.119,597.438 273.119,597.799 273.119,598.519 273.119,598.879 273.119,599.238 273.119,599.959 273.119,600.318 273.119,600.679 273.119,601.039 273.119,601.398 272.399,601.398 272.039,601.039 271.319,601.039 270.959,600.679 270.239,600.679 269.879,600.318 269.159,600.318 268.439,599.959 268.079,599.959 267.359,599.959 267,599.959 266.279,599.599 265.56,599.599 264.839,599.599 264.119,599.959 263.759,599.959 262.319,636.679 262.319,637.038 262.319,637.038 262.319,637.398 262.319,637.759 262.319,637.759 262.319,638.118 262.319,638.479 262.319,638.839 262.679,638.839 262.679,639.198 262.679,639.559 262.679,639.919 263.04,639.919 263.04,640.278 263.399,640.998 263.759,641.358 253.679,641.358 254.04,640.998 254.04,640.639 254.399,640.278 254.759,639.919 "
   id="polygon55"
   style="fill:#ffe363"
   transform="translate(-6,-65.000001)" />
<polygon
   points="320.999,629.479 320.999,630.919 320.999,632.358 320.999,633.438 320.999,634.519 321.359,635.599 321.359,636.318 321.359,637.038 321.359,637.759 321.719,638.479 321.719,639.198 321.719,639.559 321.719,639.559 321.719,639.919 322.079,639.919 322.079,639.919 322.079,640.278 322.079,640.278 322.079,640.639 322.439,640.998 322.439,640.998 322.439,641.358 322.439,641.358 322.799,641.719 322.799,641.719 323.159,642.078 323.52,642.078 313.079,642.078 313.079,642.078 313.439,641.719 313.439,641.719 313.799,641.358 313.799,641.358 314.159,640.998 314.159,640.998 314.159,640.639 314.52,640.639 314.52,640.278 314.52,640.278 314.52,640.278 314.52,639.919 314.52,639.919 314.52,639.919 314.52,639.919 313.079,596.358 311.999,593.479 334.68,593.479 335.759,602.119 335.398,601.759 335.398,601.759 335.039,601.398 334.68,601.398 334.68,601.398 334.318,601.398 334.318,601.039 334.318,601.039 333.959,601.039 333.959,601.039 333.6,601.039 333.6,601.039 333.6,601.039 333.6,601.039 333.239,601.039 333.239,601.039 320.279,601.039 320.279,601.759 320.279,602.479 320.279,602.839 320.279,603.559 320.279,604.278 320.279,604.999 320.279,605.719 320.279,606.438 320.279,606.799 320.279,607.519 320.279,608.238 320.279,608.959 320.279,609.679 320.641,610.398 320.641,611.479 320.641,612.198 321.359,612.198 321.719,612.198 322.439,612.198 323.159,612.198 323.52,612.198 324.239,612.198 324.959,612.198 325.68,612.198 326.398,612.198 327.119,611.839 327.839,611.839 328.199,611.839 328.919,611.839 329.279,611.479 329.999,611.479 330.359,611.479 329.999,618.679 329.641,618.679 328.919,618.679 328.561,618.679 327.839,618.679 327.479,618.318 326.759,618.318 326.039,618.318 325.318,618.318 324.959,618.318 324.239,618.318 323.52,618.318 322.799,618.318 322.439,618.679 321.719,618.679 321.359,618.679 320.999,618.679 320.999,621.198 320.999,622.999 320.999,624.799 320.999,626.599 320.999,628.398 "
   id="polygon57"
   style="fill:#ffe363"
   transform="translate(-6,-65.000001)" />
<polygon
   points="434.398,631.998 434.398,631.639 434.398,631.639 434.039,631.639 434.039,631.278 434.039,631.278 434.039,630.919 434.039,630.919 434.039,630.559 434.039,630.198 434.039,630.198 426.119,585.198 426.839,584.839 427.199,584.839 428.279,584.479 428.999,584.479 429.719,584.479 430.438,584.479 431.159,584.119 431.519,584.119 432.239,584.119 432.959,584.119 433.319,584.119 433.679,584.119 434.039,584.119 434.398,584.119 434.759,584.119 434.759,584.119 434.759,584.479 434.398,584.479 434.398,584.479 434.398,584.839 434.039,584.839 434.039,585.198 434.039,585.559 434.039,585.919 434.039,586.278 434.039,586.639 434.039,586.999 434.039,587.358 434.039,588.079 434.039,588.799 434.039,589.519 434.398,590.238 441.239,628.759 441.599,629.118 441.599,629.479 441.599,629.839 441.599,630.198 441.959,630.198 441.959,630.559 441.959,630.919 442.319,630.919 442.319,631.278 442.319,631.278 442.319,631.639 442.679,631.639 442.679,631.998 443.039,631.998 443.039,632.358 443.039,632.358 434.039,633.799 434.039,633.438 434.039,633.078 434.039,632.719 434.039,632.358 434.398,632.358 "
   id="polygon59"
   style="fill:#ffe363"
   transform="translate(-6,-65.000001)" />
<polygon
   points="458.519,212.24 458.519,211.88 458.879,211.52 458.879,211.52 459.239,211.16 459.239,210.8 459.239,210.8 459.239,210.439 459.239,210.08 459.239,210.08 459.599,209.72 459.599,209.359 459.239,169.04 459.239,168.68 459.239,168.32 459.239,167.96 459.239,167.6 459.239,167.24 459.239,166.88 459.239,166.52 459.239,166.16 458.879,165.8 458.879,165.44 458.519,165.08 458.519,164.72 458.159,164.36 458.159,164 457.799,163.28 457.799,162.92 467.159,166.88 466.438,168.68 466.438,168.68 466.079,169.4 466.079,170.479 466.079,171.92 466.079,173.72 466.079,175.88 466.079,178.04 466.079,180.92 466.079,184.16 466.079,187.76 466.438,191.36 466.438,195.68 466.438,200.36 466.799,205.04 466.799,210.439 466.799,216.2 466.799,216.2 466.799,216.2 466.799,216.56 466.799,216.56 466.799,216.56 466.799,216.56 466.799,216.56 466.438,216.56 466.438,216.56 466.438,216.56 466.438,216.56 466.438,216.56 466.079,216.56 466.079,216.56 466.079,216.56 466.079,216.56 457.438,213.319 457.799,213.319 457.799,212.959 458.159,212.6 458.159,212.24 "
   id="polygon61"
   style="fill:#ffe363"
   transform="translate(-6,-65.000001)" />
<path
   d="m 91.08,429.479 -1.44,2.16 -2.52,2.16 -2.88,1.8 -3.24,1.44 -3.6,1.08 -3.6,1.08 -3.96,0.357 -3.96,0.36 -4.32,-0.36 -3.6,-0.72 -3.6,-1.08 -3.6,-1.8 -2.88,-2.16 -2.16,-2.52 -1.8,-3.24 -1.08,-3.96 -0.36,-0.72 v -0.723 -0.72 -0.72 -0.723 l 0.36,-0.72 v -0.72 -0.72 -0.723 -0.72 -0.36 -0.72 -0.359 l 0.36,-0.358 v -0.36 l 0.36,-0.357 0,0 0.36,0.357 h 0.36 l 0,0 h 0.36 l 0.36,0.36 h 0.36 l 0,0 h 0.36 0.36 l 0,0 h 0.36 0.36 l 0,0 h 0.36 l 0,0 39.6,0.72 h 0.36 0.36 0.36 l 0,0 0.36,-0.357 h 0.36 l 0,0 h 0.36 l 0.36,-0.36 h 0.36 l 0,0 0.36,-0.36 0,0 h 0.36 0.36 l 0.36,-0.357 v 1.08 l 0.36,0.72 v 1.08 l 0.36,0.72 v 1.08 l 0.36,0.72 v 0.72 1.08 1.08 0.723 1.08 1.077 l -0.36,0.723 v 1.08 l -0.36,1.08 -0.36,1.08 0,0 0,0 z m -41.76,-7.2 0.72,2.16 0.72,1.438 0.72,1.8 1.44,1.08 1.08,1.08 1.8,0.72 1.44,0.723 1.8,0.357 1.44,0.723 1.8,0.357 h 1.8 1.8 1.44 1.8 1.44 l 1.08,-0.357 1.8,-0.36 1.44,-0.36 1.8,-0.357 1.08,-0.36 1.44,-0.72 1.08,-0.36 1.08,-0.358 0.72,-0.722 0.72,-0.72 0.72,-0.36 0.36,-0.72 0.36,-0.72 0.36,-0.722 v -0.721 -0.72 l -0.36,-0.72 -1.8,-0.36 h -2.16 l -2.16,-0.36 h -2.16 l -2.52,-0.357 h -2.16 -2.52 l -2.16,-0.36 H 64.44 61.92 59.76 57.6 55.44 l -2.16,0.36 h -1.8 l -2.16,-0.004 0,0 0,0 z"
   id="path63"
   inkscape:connector-curvature="0"
   style="fill:#ffe363" />
<path
   d="m 75.6,492.119 -1.08,-0.36 -1.08,-0.72 -1.44,-0.36 -0.72,-0.72 -1.08,-0.359 -1.08,-1.08 -0.72,-0.721 -0.72,-0.72 -1.08,-1.08 -0.36,-1.08 -0.72,-1.08 -0.72,-1.439 -0.36,-1.08 -0.72,-1.439 -0.36,-1.439 L 63,476.64 H 61.56 60.12 58.68 57.24 55.8 54.72 53.64 L 52.2,477 h -1.08 l -1.08,0.359 -1.08,0.358 h -1.08 l -0.72,0.36 -1.08,0.359 -0.72,0.358 -0.72,0.36 -0.36,-0.36 -0.36,-0.72 v -0.721 l -0.36,-0.722 v -0.72 l -0.36,-0.72 v -0.722 l -0.36,-1.08 v -0.721 -0.72 l -0.36,-0.72 v -0.36 -0.72 -0.36 -0.358 -0.359 l 0.36,0.359 0,0 h 0.36 0.36 0.36 l 0,0 h 0.36 l 0,0 H 44.64 45 l 0,0 0,0 h 0.36 l 0,0 h 0.36 0.36 l 9.36,-0.359 30.24,-3.24 h 0.36 0.36 0.36 0.36 0.36 l 0.36,-0.358 h 0.36 0.36 0.36 v -0.359 h 0.36 l 0.36,-0.36 H 90 l 0.36,-0.358 0.36,-0.359 0.36,-0.359 2.16,12.96 0,0 v 0.359 l 0.36,0.359 v 0.359 0.359 0.359 0.358 l 0,0 v 0.722 0.358 l 0,0 v 0.722 0.358 l -0.36,0.359 v 0.358 0.36 l -0.36,1.08 -0.36,0.72 -0.36,1.08 -0.72,0.72 -0.36,1.08 -1.08,0.73 -0.72,0.721 -1.08,1.08 -1.08,0.72 -1.44,0.72 -1.08,0.36 -1.8,0.72 h -1.44 l -1.8,0.36 h -1.8 l -2.16,0 0,0 0,0 z m -3.96,-16.56 v 1.802 l 0.36,1.438 0.36,1.08 0.36,1.08 1.08,1.08 0.72,0.359 0.72,0.721 1.08,0.359 1.08,0.358 0.72,0.36 h 1.08 l 1.08,-0.36 h 1.08 l 0.72,-0.72 1.08,-0.36 0.72,-0.72 0.36,-0.359 0.36,-0.359 0.36,-0.72 0.36,-0.722 0.36,-0.72 v -0.721 -0.722 l 0.36,-0.72 v -0.358 -0.722 l -0.36,-0.358 v -0.721 -0.359 h -0.36 l -0.36,-0.359 0,0 -13.32,1.443 0,0 0,0 z"
   id="path65"
   inkscape:connector-curvature="0"
   style="fill:#ffe363" />
<path
   d="m 72,531.719 -0.36,-0.358 H 71.28 L 70.56,531 l -0.36,-0.36 -0.36,-0.72 -0.72,-0.359 -0.36,-0.721 -0.72,-0.358 -0.36,-0.722 -0.36,-0.358 -0.72,-0.722 -0.36,-0.72 -0.36,-0.359 -0.36,-0.359 -0.36,-0.359 v -0.358 l 0.36,-0.36 0.36,-0.358 0.36,-0.359 0.36,-0.359 0.36,-0.359 0.36,-0.359 0.36,-0.359 0.72,-0.358 0.36,-0.36 0.36,-0.358 0.36,-0.722 v -0.357 l 0.36,-0.36 0.36,-0.359 v -0.721 l 0.36,-0.359 -2.88,-3.238 v -0.36 h -0.36 v -0.359 l -0.36,-0.358 -0.36,-0.36 v -0.359 l -0.36,-0.358 -0.36,-0.36 -0.36,-0.72 -0.36,-0.36 -0.36,-0.72 -0.36,-0.72 -0.36,-0.36 -0.36,-0.72 -0.36,-0.72 -0.36,-0.73 H 62.28 61.56 61.2 60.48 l -0.36,0.359 H 59.4 59.04 58.32 l -0.36,0.36 H 57.6 l -0.36,0.358 h -0.36 -0.36 l -0.36,0.359 H 55.8 55.44 l -0.72,-1.08 -0.36,-1.08 -0.72,-0.72 -0.36,-1.08 -0.36,-0.721 -0.36,-0.721 -0.36,-0.359 -0.36,-0.721 v -0.721 l -0.36,-0.358 v -0.359 -0.721 h -0.36 v -0.721 -0.358 l -0.36,-0.36 0.36,0.36 h 0.36 0.36 l 0.36,0.358 h 0.36 0.36 l 0.36,0.359 h 0.36 0.72 l 0.36,0.359 h 0.36 0.36 0.36 l 0,0 h 0.36 l 0.36,-0.359 31.68,-7.2 4.32,-1.08 0.36,-0.358 h 0.36 0.36 l 0.36,-0.359 h 0.36 l 0,0 0.36,-0.359 h 0.36 l 0.36,-0.358 0.36,-0.36 0,0 0.36,-0.358 0.36,-0.359 0,0 0.36,-0.36 v -0.357 l 0.36,0.357 0.36,0.36 0.72,0.72 0.36,0.36 0.36,0.358 0.36,0.359 0.36,0.72 0.36,0.722 0.36,0.358 0.36,0.722 0.36,0.358 v 0.721 l 0.36,0.359 0.36,0.72 0.36,0.36 0.36,0.359 -1.44,1.08 -1.44,1.438 -1.44,1.439 -1.8,1.8 -2.16,2.16 -1.8,2.16 -2.16,2.521 -2.52,2.159 -2.16,2.521 -2.16,2.521 -2.16,2.16 -1.8,2.521 -1.8,2.16 -1.8,2.159 -1.44,1.801 -1.08,1.439 -0.36,0.358 0,0 -0.36,0.359 v 0.358 l 0,0 v 0.359 l -0.36,0.36 v 0.358 l 0,0 v 0.359 0.36 l 0,0 -0.36,0.354 0,0 v 0.361 l 0,0 0,0 0,0 z m 18,-32.401 -20.16,5.398 v 0.72 l 0.72,0.723 0.36,0.357 0.36,0.722 0.36,0.721 0.36,0.359 0.36,0.721 0.36,0.359 0.36,0.721 0.36,0.72 0.36,0.359 0.72,0.721 0.36,0.359 0.36,0.721 0.72,0.359 0.36,0.721 0.36,-0.36 0.72,-0.72 0.72,-0.721 0.72,-0.721 1.08,-1.079 1.08,-1.08 1.08,-1.08 1.08,-1.439 1.08,-1.08 1.08,-1.438 1.08,-1.08 1.08,-1.08 0.72,-1.079 0.72,-0.721 0.72,-0.722 0.36,-0.361 0,0 0,0 z"
   id="path67"
   inkscape:connector-curvature="0"
   style="fill:#ffe363" />
<path
   d="m 105.84,553.679 0,0 h -0.36 l -0.36,-0.358 h -0.36 -0.36 l -0.36,-0.359 h -0.36 l -0.36,-0.36 h -0.72 l -0.36,-0.358 h -0.72 l -0.72,-0.359 -0.72,-0.358 -0.72,-0.36 -0.72,-0.359 -0.72,-0.721 0,0 h 0.36 l 0.36,-0.359 0,0 0.36,-0.358 0,0 0.36,-0.359 0,0 v -0.36 -0.358 l 0,0 0,0 v -0.359 -0.358 l 0,0 v -0.36 l 1.08,-18.72 h -0.36 -0.36 l -0.36,-0.359 H 99 98.64 l 0,0 -0.36,-0.359 h -0.36 -0.36 v -0.359 h -0.72 v -0.359 h -0.36 l -0.36,-0.358 h -0.36 l -0.36,-0.36 -0.36,0.721 -0.36,0.722 -0.36,0.358 -0.36,0.721 -0.36,0.358 -0.36,0.721 -0.36,0.359 -0.36,0.36 -0.36,0.358 v 0.359 L 91.8,532.1 h -0.36 v 0.359 l -0.36,0.358 v 0.359 l -0.36,0.36 -0.72,0.714 -0.36,1.08 -0.72,0.721 -0.36,0.721 -0.36,0.359 -0.36,0.72 -0.36,0.722 -0.36,0.358 v 0.359 l -0.36,0.721 v 0.359 l -0.36,0.358 v 0.722 0.358 0.721 0.359 h -0.36 -0.36 l -0.36,-0.359 -0.36,-0.359 H 84.6 l -0.72,-0.359 -0.72,-0.72 -0.72,-0.359 -0.72,-0.359 -0.36,-0.721 -1.08,-0.359 -0.36,-0.72 -0.72,-0.36 -0.36,-0.72 -0.72,-0.359 v -0.721 l 0,0 h 0.72 l 0.36,-0.359 h 0.36 l 0.36,-0.358 h 0.36 v -0.36 h 0.36 l 0.36,-0.359 0.36,-0.358 0.36,-0.36 0,0 0.36,-0.358 v -0.359 h 0.36 v -0.36 l 5.4,-7.198 2.16,-2.521 1.8,-2.88 1.44,-2.16 1.8,-2.52 1.44,-2.16 1.44,-1.801 1.08,-1.801 1.44,-1.801 0.72,-1.438 0.72,-1.08 1.08,-1.44 0.36,-0.72 0.36,-0.721 0.36,-0.722 0.36,-0.357 v -0.36 -0.359 l 0,0 0.36,-0.358 0,0 v -0.36 l 0,0 v -0.358 h 0.36 v -0.359 -0.36 -0.357 l 0,0 v -0.36 -0.358 -0.722 -0.358 l 7.56,6.118 2.16,2.16 2.16,1.8 1.08,2.16 1.08,2.16 0.72,2.16 0.36,2.159 -0.36,1.801 -0.36,2.16 -0.72,1.8 -1.08,1.439 -1.44,1.8 -1.44,1.438 -1.8,1.08 -2.16,1.08 -1.8,0.72 -2.52,0.722 v 2.521 l -0.36,2.16 v 2.16 2.159 l -0.36,1.801 v 1.438 1.802 1.08 1.438 0.72 l -0.36,1.08 v 0.722 0.358 0.72 0.36 l 0,0 0,0 0,0 v 0.36 l 0,0 v 0.357 l 0,0 v 0.36 l 0,0 v 0.359 0.358 l 0,0 v 0.36 l 0.36,0.358 0,0 v 0.359 0.339 l 0,0 0,0 z m 1.44,-43.92 -0.36,0.36 v 0.357 l -0.36,0.36 -0.72,0.72 -0.36,0.722 -0.72,0.721 -0.36,1.08 -0.72,0.72 -0.72,1.08 -0.72,1.08 -0.36,0.72 -0.36,0.72 -0.36,1.08 -0.36,0.36 v 0.359 0.358 l 0,0 0,0 v 0.36 l 0,0 0,0 0,0 h 0.36 v 0.358 l 0,0 0,0 0.36,0.359 0,0 h 0.36 l 0,0 h 0.36 l 1.08,0.72 1.08,0.36 h 1.08 l 1.08,-0.36 h 1.08 l 0.72,-0.357 1.08,-0.722 0.72,-0.721 0.72,-0.72 0.72,-0.72 0.36,-1.08 0.36,-0.723 v -1.078 -1.079 -1.08 l -0.36,-1.08 h -0.36 l -0.36,-0.36 v -0.358 -0.359 l -0.36,-0.36 h -0.36 l -0.36,-0.358 v -0.359 h -0.36 l -0.36,-0.36 -0.36,-0.357 h -0.36 -0.36 l -0.36,-0.36 h -0.36 l -0.36,-0.003 0,0 0,0 z"
   id="path69"
   inkscape:connector-curvature="0"
   style="fill:#ffe363" />
<path
   d="m 287.279,577.438 -1.08,-0.358 h -0.72 l -1.08,-0.359 -0.72,-0.721 -1.08,-0.72 -0.72,-0.359 -0.72,-0.721 -0.72,-1.08 -0.36,-0.72 -0.72,-1.08 -0.72,-1.08 -0.36,-1.08 -0.36,-1.439 -0.72,-1.08 -0.36,-1.438 v -1.439 l -0.36,-1.438 -0.36,-1.439 -0.36,-1.44 v -1.438 -1.08 l -0.36,-1.44 v -1.079 -1.438 -1.08 -1.44 -1.079 -1.438 l 0.36,-1.08 v -1.08 l 0.36,-1.08 v -1.08 l 0.36,-1.8 0.72,-1.8 0.36,-1.801 0.36,-1.439 0.72,-1.439 0.72,-1.438 0.72,-1.08 0.72,-1.08 0.72,-1.08 1.08,-0.72 0.72,-0.722 1.08,-0.721 1.08,-0.357 1.08,-0.36 1.08,-0.359 1.08,-0.358 3.6,0.358 2.88,1.439 2.52,2.16 2.16,3.6 1.439,3.96 1.08,4.32 0.721,5.04 v 5.04 l -0.36,5.04 -0.72,4.68 -1.439,4.319 -1.801,3.961 -2.16,3.238 -2.52,2.159 -3.24,1.08 h -3.6 v -0.017 l 0,0 z m 1.08,-41.759 -1.08,0.722 -1.08,1.078 -0.72,1.802 -0.72,2.16 -0.72,2.158 -0.36,2.88 -0.36,2.882 -0.36,2.88 v 3.238 l 0.36,2.882 v 2.88 l 0.72,2.521 0.72,2.16 1.08,1.8 1.44,1.439 1.44,1.08 1.8,-0.722 1.44,-1.438 1.44,-1.8 0.72,-2.521 0.72,-2.88 0.36,-2.88 0.36,-3.24 v -3.24 l -0.36,-3.238 -0.36,-2.88 -0.72,-2.882 -0.72,-2.52 -1.08,-1.801 -1.08,-1.439 -1.44,-1.08 h -1.44 l 0,-10e-4 0,0 z"
   id="path71"
   inkscape:connector-curvature="0"
   style="fill:#ffe363" />
<path
   d="m 353.52,527.039 v 0.359 0.721 0.359 l 0.359,0.358 v 0.359 0.721 0.72 l 0.359,0.36 v 0.72 0.72 l 0.361,0.722 v 0.721 l 0.357,0.359 v 1.08 l 0.359,0.721 0.358,0.72 0.36,1.8 0.72,1.802 0.36,2.158 0.72,2.16 0.722,2.521 0.719,2.521 0.722,2.521 0.358,2.521 1.08,2.521 0.721,2.521 0.359,2.521 1.079,2.159 0.36,2.521 0.72,1.801 0.722,1.801 0.358,1.438 v 0.36 l 0,0 0.36,0.358 0,0 h 0.359 v 0.359 0.359 h 0.358 v 0.359 h 0.358 v 0.359 l 0,0 0.36,0.358 0,0 0,0 h 0.359 l -9.359,0.722 -1.079,-6.12 -11.521,0.359 -1.802,7.199 h -9 l 0.36,-0.359 0.359,-0.359 0.36,-0.359 0.358,-0.358 v -0.359 h 0.358 v -0.359 -0.359 h 0.359 v -0.359 -0.359 h 0.359 v -0.359 -0.359 -0.358 l 0.359,-0.36 7.562,-36.358 v -0.721 l 0.358,-0.721 v -0.359 -0.721 -0.359 -0.72 -0.359 -0.359 -0.359 -0.721 -0.359 -0.358 -0.36 l -0.358,-0.358 v -0.359 -0.359 l 0.358,-0.359 h 0.361 l 0.719,-0.359 h 0.359 l 0.721,-0.359 h 0.359 0.359 0.721 0.357 l 0.722,-0.358 h 0.358 l 0.36,0.358 h 0.72 0.36 0.358 0.729 v -0.02 h 0.019 z m -2.161,19.8 -3.603,14.76 h 0.36 0.359 l 0.719,0.36 h 0.361 0.719 0.359 0.36 0.72 0.36 0.72 0.359 0.361 l 0.719,-0.36 h 0.359 0.359 0.72 l -4.311,-14.76 0,0 0,0 z"
   id="path73"
   inkscape:connector-curvature="0"
   style="fill:#ffe363" />
<path
   d="m 408.599,571.679 -10.8,0.722 h 0.36 v -0.36 l 0,0 v -0.359 h 0.357 v -0.358 -0.359 h 0.36 v -0.359 l 0,0 v -0.359 -0.359 -0.358 l 0,0 v -0.36 -0.359 -0.358 -0.722 -0.721 -1.079 -1.438 -1.08 l -0.36,-1.8 v -1.802 l -0.357,-1.8 -0.36,-2.521 v -2.521 l -0.357,-2.521 -0.36,-3.24 -0.36,-3.239 -0.357,-3.24 -0.723,-3.96 v -1.438 -1.08 l -0.357,-1.08 v -1.439 l -0.36,-1.08 v -0.72 l -0.359,-1.08 v -0.72 l -0.358,-1.08 -0.36,-0.721 v -0.722 l -0.358,-0.358 v -0.721 l -0.359,-0.359 -0.359,-0.359 v -0.72 l 5.039,-0.36 4.682,-0.358 3.239,-0.359 2.881,0.359 2.521,0.358 2.16,0.722 1.8,1.438 1.439,1.08 1.438,1.8 0.721,1.439 0.722,1.801 0.358,1.8 0.359,1.802 v 1.8 l -0.359,1.8 -0.358,1.44 -0.36,1.438 -0.72,1.439 -0.36,0.358 0,0 v 0.359 l -0.358,0.36 -0.359,0.358 0,0 -0.36,0.359 v 0.358 0.36 h -0.358 l -0.359,0.359 v 0.358 l -0.359,0.36 0,0 -0.358,0.359 -0.36,0.358 2.881,5.76 3.96,10.802 0.359,0.358 v 0.359 l 0.359,0.359 v 0.359 l 0.358,0.359 0.36,0.721 v 0.359 l 0.358,0.358 v 0.359 l 0.359,0.36 0.359,0.358 v 0.359 l 0.359,0.359 0,0 0.359,0.359 h 0.359 l -0.359,0.359 h -0.359 -0.359 -0.359 l -0.72,0.358 h -0.36 -0.72 -0.36 -0.72 l -0.721,0.36 h -0.721 -0.721 l -0.72,0.359 h -1.08 -0.721 -0.722 l -0.72,-1.802 -0.359,-2.158 -0.358,-1.802 -0.721,-1.438 -0.359,-1.801 -0.721,-1.439 -0.722,-1.44 -0.358,-1.078 -0.722,-1.08 -0.357,-1.08 -0.722,-1.079 -0.721,-0.723 -0.72,-0.72 -0.721,-0.358 -0.359,-0.722 -1.08,-0.358 v 0.358 l 0,0 0,0 0,0 0,0 h -0.359 l 0,0 0,0 0,0 0,0 0,0 0,0 0,0 v 1.08 1.08 1.08 1.08 1.08 1.08 0.72 1.08 1.08 0.72 l 0.359,1.08 v 1.08 1.08 l 0.36,1.08 0.357,1.079 0.36,1.439 0,0 0,0 v 0.359 l 0,0 v 0.359 l 0.359,0.358 0,0 v 0.36 0.359 h 0.358 v 0.358 0.36 h 0.36 v 0.357 h 0.357 l -0.003,0.39 0,0 0,0 z m -6.12,-42.481 2.16,13.681 h 1.803 1.438 l 1.44,-0.721 1.08,-0.72 0.72,-1.08 0.357,-1.439 0.723,-1.08 v -1.439 -1.08 -1.439 l -0.36,-1.439 -0.72,-1.079 -0.36,-0.722 -0.72,-0.72 -1.08,-0.721 h -1.08 l -5.401,-0.002 0,0 0,0 z"
   id="path75"
   inkscape:connector-curvature="0"
   style="fill:#ffe363" />
<path
   d="m 507.959,466.919 v -17.64 -1.803 l 0.72,-1.8 1.08,-1.8 1.44,-1.439 1.8,-1.438 1.8,-1.08 2.16,-0.72 2.16,-0.723 2.159,-0.357 h 2.158 l 2.16,0.72 2.16,0.72 2.16,1.44 1.8,1.8 1.439,2.16 1.078,2.88 h 0.36 0.36 0.357 0.36 l 0.36,-0.359 h 0.357 0.722 l 0.721,-0.358 h 0.72 l 0.72,-0.36 h 0.722 l 1.08,-0.358 h 0.721 l 1.08,-0.359 1.08,-0.359 h 1.079 l 0.721,-0.358 h 0.359 l 0.721,-0.36 h 0.72 l 0.72,-0.359 h 0.722 0.358 l 0.72,-0.358 0.723,-0.36 h 0.72 l 0.359,-0.358 h 0.721 l 0.358,-0.359 0.722,-0.359 0.358,-0.359 0.359,-0.359 0.359,0.359 v 0.721 0.359 0.358 0.722 0.358 0.36 0.358 0.721 0.359 0.721 0.721 0.72 1.08 1.08 1.08 h -0.721 l -0.721,0.359 h -0.72 -1.08 l -1.08,0.358 h -0.721 l -1.079,0.36 h -1.44 l -1.079,0.358 -1.439,0.359 -1.439,0.359 -1.438,0.359 -1.439,0.359 -1.439,0.359 h -1.8 l -1.801,0.721 v 3.96 h 0.359 1.08 1.438 l 1.08,0.359 h 1.439 1.801 l 1.438,0.358 h 1.801 1.438 1.801 1.439 1.08 1.08 l 1.08,-0.358 h 0.72 l 0.359,-0.359 -0.359,10.8 0,0 -0.359,-0.358 h -0.358 v -0.359 h -0.36 v -0.36 h -0.358 -0.359 v -0.358 h -0.36 l 0,0 h -0.357 -0.36 v -0.359 h -0.36 -0.359 l -36.72,-2.88 h -0.36 l -0.359,-0.359 h -0.358 -0.36 -0.359 -0.358 -0.359 -0.358 -0.36 -0.359 -0.358 l -0.359,0.359 h -0.36 l -0.358,0.359 h -0.722 l -0.374,0.349 0,0 0,0 z m 11.88,-21.24 h -0.36 l -0.357,0.36 h -0.36 -0.36 l -0.359,0.359 h -0.36 -0.358 v 0.358 h -0.359 l -0.359,0.36 h -0.359 v 0.357 l -0.359,0.36 0,0 -0.358,0.36 -0.36,0.357 v 0.36 l -0.359,0.72 v 0.36 0.72 l -0.358,0.72 v 0.722 0.721 1.08 0.72 0.72 l 0.358,1.08 v 0.722 0.358 l 0.359,0.721 v 0.359 0.72 l 12.24,0.36 h 0.358 v -0.36 l 0.36,-1.079 v -0.721 -1.438 -1.44 -1.439 -1.079 l -0.36,-1.801 -0.72,-1.08 -0.359,-1.438 -1.079,-0.72 -1.08,-1.08 -1.439,-0.36 h -1.438 -1.815 l 0,10e-4 0,0 z"
   id="path77"
   inkscape:connector-curvature="0"
   style="fill:#ffe363" />
<path
   d="m 413.639,136.08 -11.16,-3.24 -0.357,-1.44 -0.72,-1.439 -0.36,-1.44 -0.36,-1.08 -0.357,-1.08 v -1.08 l -0.36,-1.44 -0.359,-1.08 -0.358,-1.08 v -1.44 l -0.36,-1.44 -0.72,-1.08 -0.36,-1.8 -0.357,-1.44 -0.723,-1.8 -0.72,-2.16 -0.359,-0.36 h -0.721 -0.358 l -0.722,-0.36 h -0.358 -0.722 l -0.357,-0.36 h -0.36 -0.72 l 0,0 h -0.36 -0.358 -0.359 v 0.36 h -0.358 l 0,0 0.358,19.8 -10.08,-2.16 1.438,-2.16 0,0 v -0.36 h 0.359 l 0,0 v -0.36 l 0,0 0,0 v -0.36 l 0,0 0,0 v -0.36 l 0,0 0,0 v -0.36 l 0,0 0,0 0.36,-36.720001 v -0.36 -0.36 -0.36 l -0.36,-0.36 v -0.36 -0.36 -0.72 l -0.359,-0.36 v -0.36 -0.36 l -0.358,-0.36 -0.358,-0.36 v -0.36 l -0.359,-0.36 v -0.361 l -0.36,-0.36 h 0.72 0.722 0.721 l 0.72,0.36 h 1.08 0.721 l 1.08,0.36 h 1.439 1.08 l 1.079,0.36 1.438,0.36 1.44,0.36 h 1.438 l 1.44,0.36 1.8,0.36 h 1.8 l 2.16,0.72 2.521,0.72 1.801,1.08 1.8,1.08 1.439,1.44 1.079,1.8 1.079,1.8 0.36,1.8 0.359,2.16 v 1.8 l -0.722,2.16 -0.357,1.800001 -1.08,2.16 -1.44,1.8 -1.8,2.16 -2.16,1.44 0.36,1.8 0.358,1.8 0.359,1.44 0.36,1.44 V 117 l 0.357,1.44 0.36,1.44 0.36,1.08 0.72,1.08 0.358,1.44 0.359,1.08 0.72,1.44 0.36,1.08 0.36,1.08 0.72,1.08 0.72,1.44 2.874,5.4 0,0 0,0 z M 389.879,88.559999 V 101.16 v 0.36 h 0.36 l 0,0 h 0.72 l 0.36,0.36 h 0.72 0.72 0.72 0.723 1.08 0.718 0.72 1.08 0.72 1.08 l 0.723,-0.36 h 0.72 l 0.36,-0.36 0.72,-0.36 0.357,-0.72 0.36,-0.720001 0.36,-0.72 0.357,-0.72 v -1.08 l 0.36,-0.72 -0.36,-1.08 v -0.72 l -0.357,-1.08 -0.36,-0.72 -0.72,-0.72 -0.72,-0.72 -0.723,-0.72 h -0.357 l -0.36,-0.36 h -0.36 l -0.72,-0.36 h -1.08 l -0.72,-0.36 H 396 l -0.72,-0.36 h -1.08 -0.722 l -1.078,-0.36 h -0.723 -0.72 -0.72 -0.358 l 0,0 0,0 0,0 z"
   id="path79"
   inkscape:connector-curvature="0"
   style="fill:#ffe363" />
<path
   d="m 143.28,149.04 h 0.36 l 0.36,-0.36 v -0.36 -0.36 l 0.36,-0.36 0,0 v -0.36 l 0.36,-0.36 v -0.36 l 0,0 v -0.36 -0.36 l 0,0 v -0.36 -0.36 -0.36 l 0.36,-41.4 v -0.72 l -0.36,-0.36 v -0.36 -0.36 l 0,0 -0.36,-0.36 v -0.36 -0.36 H 144 143.64 l -0.36,-0.36 h -0.36 l -0.36,-0.360001 h -0.36 -0.36 l -0.36,-0.36 2.52,-0.72 2.16,-0.72 2.16,-0.72 1.8,-0.72 1.8,-0.72 1.8,-0.36 1.8,-0.72 1.44,-0.36 1.44,-0.36 h 1.44 l 1.08,-0.36 h 1.44 1.08 1.08 1.44 1.08 l 1.08,0.36 1.08,0.72 1.08,0.72 1.08,1.08 0.72,0.72 0.72,1.44 0.72,1.08 0.36,1.440001 v 1.44 1.8 1.44 l -0.36,1.44 -0.72,1.8 -0.72,1.44 -1.08,1.8 -1.44,1.44 -3.6,2.52 v 0.36 0.36 l 0.36,0.72 0.36,1.08 0.36,1.08 0.36,1.44 0.72,1.44 0.72,1.44 0.72,1.8 0.72,1.44 1.08,1.8 0.72,1.8 0.72,1.8 1.08,1.8 1.08,1.44 0.72,1.44 0,0 0,0 -8.28,2.88 -0.36,-1.08 -0.36,-1.44 v -1.08 l -0.72,-1.08 -0.36,-1.44 -0.36,-1.08 -0.36,-1.44 -0.72,-1.08 -0.36,-1.44 -0.72,-1.08 -0.72,-1.44 -0.72,-1.44 -0.72,-1.44 -1.08,-1.08 -0.72,-1.44 -1.08,-1.44 0,0 h -0.36 -0.36 -0.36 -0.36 l -0.72,0.36 h -0.36 l -0.72,0.36 h -0.36 l -0.72,0.36 h -0.36 l -0.36,0.36 -0.36,0.36 -0.36,0.36 h -0.36 v 0.36 l 0.36,23.76 -0.36,0.36 0,0 h -0.72 l -0.36,0.36 -0.72,0.36 -0.36,0.36 h -0.72 l -0.72,0.36 -0.72,0.36 h -0.72 l -0.72,0.36 h -0.72 l -0.36,0.36 h -0.72 -0.36 -0.72 l 0,0 0,0 z M 163.8,100.8 h -1.08 -0.72 -0.72 -0.72 l -0.72,0.36 h -0.72 -0.72 l -0.72,0.36 h -0.72 l -0.72,0.36 -0.72,0.36 h -0.72 l -0.72,0.36 -0.72,0.36 -0.72,0.72 -0.72,0.36 v 8.28 l 0.36,0.36 h 0.72 0.36 0.72 0.72 l 0.72,-0.36 h 1.08 l 0.72,-0.36 h 1.08 l 0.72,-0.36 0.72,-0.36 0.72,-0.36 0.72,-0.36 H 162 l 0.36,-0.36 0.36,-0.36 1.08,-0.72 0.72,-0.72 0.36,-0.36 0.72,-1.08 v -0.36 l 0.36,-1.08 v -0.72 -0.72 -0.36 -0.72 l -0.36,-0.72 -0.36,-0.36 -0.36,-0.36 -0.36,-0.36 -0.36,-0.36 h -0.36 l 0,0 0,0 z"
   id="path81"
   inkscape:connector-curvature="0"
   style="fill:#ffe363" />
<path
   d="m 120.96,160.919 h -1.08 -1.08 -0.72 -1.08 -0.72 -1.08 l -0.72,-0.36 -1.08,-0.36 -0.72,-0.36 -0.72,-0.36 -0.72,-0.36 -1.08,-0.72 -0.72,-0.36 -0.72,-0.72 -0.72,-0.719 -0.72,-0.72 -0.36,-0.72 -0.36,-0.72 -0.36,-0.36 -0.36,-0.72 -0.36,-0.72 -0.36,-0.72 -0.36,-1.08 -0.36,-0.72 -0.36,-0.72 -0.36,-1.08 v -1.08 l -0.36,-0.72 v -1.08 l -0.36,-1.08 v -1.08 -1.08 l -0.36,-7.2 0.36,-6.48 1.08,-5.4 1.8,-4.68 2.16,-3.96 2.88,-2.88 2.88,-2.52 2.88,-1.44 3.24,-0.36 h 3.24 l 2.88,1.08 2.88,1.8 2.52,2.52 2.16,3.6 1.8,3.96 1.08,5.04 v 1.44 1.44 2.16 2.16 l -0.36,2.88 v 2.52 l -0.36,2.88 -0.72,3.24 -1.08,2.88 -0.72,2.88 -1.44,2.521 -1.44,2.52 -1.8,2.16 -2.16,1.8 -2.52,1.08 -2.88,1.078 0,0 0,0 z m 1.08,-45.719 -2.88,-0.36 -2.52,0.72 -2.16,1.44 -1.44,2.16 -1.44,2.52 -1.08,3.24 -0.72,3.24 -0.36,3.96 v 3.6 3.6 l 0.72,3.6 0.72,3.24 1.08,2.88 1.44,2.52 1.8,1.44 1.8,1.08 h 2.52 l 1.8,-0.72 2.16,-1.44 1.44,-2.16 1.44,-2.52 1.08,-2.88 1.08,-3.6 0.36,-3.6 0.36,-3.6 v -3.6 l -0.36,-3.24 -0.72,-3.24 -1.08,-2.88 -1.44,-2.52 -1.8,-1.8 -1.8,-1.08 0,0 0,0 z"
   id="path83"
   inkscape:connector-curvature="0"
   style="fill:#ffe363" />
</svg>