<?xml version="1.0" encoding="utf-8"?>
<!-- Generator: Adobe Illustrator 20.1.0, SVG Export Plug-In . SVG Version: 6.00 Build 0)  -->
<svg version="1.1" id="Layer_1" xmlns="http://www.w3.org/2000/svg" xmlns:xlink="http://www.w3.org/1999/xlink" x="0px" y="0px"
	 viewBox="0 0 287.4 58.1" style="enable-background:new 0 0 287.4 58.1;" xml:space="preserve">
<style type="text/css">
	.st0{fill:#FFCE00;}
</style>
<g>
	<g>
		<g id="XMLID_538_">
			<path id="XMLID_552_" class="st0" d="M25.7,51.1c0,1.5,0.3,1.7,2.4,1.7c2.2,0,2.4-0.2,2.4-1.7c0-1.1-0.1-1.4-1-1.5
				c0.7-0.1,0.9-0.5,0.9-1.4c0-1.5-0.2-1.7-2.3-1.7c-2.1,0-2.3,0.2-2.3,1.7c0,0.9,0.1,1.3,0.9,1.4C25.8,49.6,25.7,50,25.7,51.1z
				 M28.1,47.4c1,0,1.1,0.1,1.1,0.9s-0.1,0.9-1.1,0.9S27,49.1,27,48.3C27,47.4,27.1,47.4,28.1,47.4z M28.1,50c1.1,0,1.2,0.1,1.2,1
				c0,0.8-0.1,0.9-1.2,0.9s-1.2-0.1-1.2-0.9C26.9,50.1,27,50,28.1,50z"/>
			<path id="XMLID_548_" class="st0" d="M15.3,51.1c0,1.5,0.3,1.7,2.4,1.7c2.2,0,2.4-0.2,2.4-1.7c0-1.1-0.1-1.4-1-1.5
				c0.7-0.1,0.9-0.5,0.9-1.4c0-1.5-0.2-1.7-2.3-1.7c-2.1,0-2.3,0.2-2.3,1.7c0,0.9,0.1,1.3,0.9,1.4C15.4,49.6,15.3,50,15.3,51.1z
				 M17.8,47.4c1,0,1.1,0.1,1.1,0.9s-0.1,0.9-1.1,0.9s-1.1-0.1-1.1-0.9C16.6,47.4,16.8,47.4,17.8,47.4z M17.8,50
				c1.1,0,1.2,0.1,1.2,1c0,0.8-0.1,0.9-1.2,0.9s-1.2-0.1-1.2-0.9C16.5,50.1,16.6,50,17.8,50z"/>
			<path id="XMLID_547_" class="st0" d="M38.4,51.9c-1.1,0-1.2-0.1-1.2-0.9L36,51.1c0,1.5,0.2,1.7,2.4,1.8c2.1,0,2.4-0.2,2.4-1.9
				c0-1.7-0.3-1.9-2.2-1.9c-0.6,0-0.9,0-1.2,0.1v-1.7h2.2l0.1,0.7h1v-1.7h-4.3L36.3,50c0.7-0.1,1.2-0.1,2.1-0.1
				c1.2,0,1.3,0.2,1.3,1.1C39.6,51.8,39.4,51.9,38.4,51.9z"/>
			<path id="XMLID_546_" class="st0" d="M35.1,7.2c0.1-0.1,0.2-0.3,0.3-0.5c-0.1-0.2-0.2-0.5-0.3-0.6c-0.1,0-0.5,0.5-0.7,1.1
				C34.7,7.1,35,7.1,35.1,7.2z"/>
			<polygon id="XMLID_545_" class="st0" points="7.7,47.6 7.7,51.8 6.3,51.9 6.3,52.7 10.2,52.7 10.2,51.9 8.9,51.8 8.9,46.5 
				8.4,46.5 8.4,46.5 6.2,46.9 6.3,47.7 			"/>
			<path id="XMLID_539_" class="st0" d="M0,0v58.1h46.9V0H0z M1.8,1.9h43.4v35.9L44.6,37L43,35.6l-2.5-1.4L39.3,34l-1.1-0.2
				c0,0-1.1-0.8-1.5-0.8s-1.2,0.5-1.2,0.5h-0.9l-0.3,0.2c-0.1-0.4-0.2-0.8-0.2-0.8c-0.1-0.5-0.2-1.1-0.2-1.2c0-0.2-0.1-0.9-0.1-1.3
				c0-0.3-0.3-1.3-0.3-1.3l-0.1-3.9c-0.4,0.4-0.8,0.7-1.2,0.9c0,0-0.9,3.3-0.6,5.5c0.1,0.2,0.2,0.4,0.2,0.6c0.1,0.3,0.5,1.1,0.7,1.7
				l0,0c0.1,0.2,0.2,0.5,0.2,0.7l-0.1,0.1c-0.1-0.1-0.1-0.3-0.2-0.4c-0.2-0.3-1.1-0.2-1.3-0.3c-0.1-0.1-0.2-0.4-0.2-0.6v-0.1l0,0
				c0-0.1,0-0.3,0-0.3v-0.9c0,0,0.1-5.4,0.6-7.4l0,0l0,0l0,0v-0.1c0,0,1.5,0,3.1-1.9c0.5-0.7,1.1-1.8,1.3-2.3c0-0.1,0.1-0.3,0.1-0.4
				c-0.1-0.4-0.4-0.8-0.6-1c0,0,0.5,0,0.8,0.1c0-0.2,0-0.5-0.1-0.7c-0.2-0.6,0.4-1.4,0.7-1.7c0.3-0.2,0.3-0.8,0.3-0.9
				S37,15.5,37,15.2l0,0c0,0-0.3-1.1-0.2-1.7c0,0,0,0.9,0.8,1c0.1,0,0.1,0,0.2,0l0,0c0.3,0,0.7,0.1,0.9,0.1c0.5,0.1,0.7-0.7,0.7-0.7
				s0.3-0.2,0.6-0.6c0.3-0.3,0.5-0.4,0.4-0.8s-2.2-2-2.2-2l0,0c-0.4-0.3-0.8-0.6-1-0.7c0,0,0.3-0.2,0.5-0.1s0,0.2,0.5,0.6
				c0-0.2,0-0.5-0.1-0.8s-1-1.1-1.4-1.5l-0.3,0.7l0.2-2c0-0.5,0-1-0.1-1.2c-0.1-0.3-0.4,0-0.7,0.4l0,0c-0.3,0.5-0.7,1.4-0.7,1.4
				s-0.5,0-1,0l0,0c-0.2,0-0.4,0-0.7,0h-0.1c-0.3,0.1-0.6,0.2-0.8,0.4c-0.6,0.5-2,2.4-2,2.4s-1.4,1.5-1.7,1.7
				c-0.3,0.2-0.7,0.7-1.5,0.9c0,0-0.1,0.3-0.2,0.6c0,0.3,0,0.6,0.2,0.9c0,0-0.3-0.2-0.6-0.4c-1,0.7-3.5,2.1-3.8,2.3
				c-0.3,0.2-1.5,1.1-2.5,1.2c0,0-6.3,1.3-6.6,1.9c-1.4,0.6-1.9,1.5-2.1,2.1c-0.3,0.6-1,2.8-1.9,4.2c-0.8,1.5-3.5,3-3.9,3.3
				S5,29,5.7,29.8c0.7,0.7,2.5,0.5,3.8,0c0.1,0,0.1,0,0.2-0.1c0.1,0,0.1-0.1,0.2-0.1c0.2-0.1,0.3-0.2,0.5-0.3c0.7-0.7,1.2-2,1.2-2
				c0-0.1-0.1-0.2-0.1-0.3c-0.2-0.4-0.3-1.2,0.3-2c-0.1,0.9,0.1,1.8,0.9,2.4c0.3,0.2,0.4,0.6,0.4,0.6c0.3,1-0.5,2.2-1.2,2.8
				c-0.5,0.5-0.5,0.5-0.5,1c0,0,1.5,4.4,1,6l-0.9,0.3c0,0,0.4-2.8-0.1-4.9c0,0.5-0.1,1-0.1,1.5c0,0-0.3,2.3-0.6,2.8
				c-0.1,0.2-0.1,0.5,0,0.8l-1.1,0.3c0,0-1.5,0.5-1.7,0.6s-1.1,0-1.1,0s-1.4,0-1.7,0.1c-0.3,0-1.4,0.6-1.4,0.6H2.8l-1.2,0.4V1.9H1.8
				z M29.2,35.4l-0.9,0.4l-2.6,0.7l-2.1,0.3c0,0-1.5,0.1-2-0.2c-0.4-0.3-1.9-0.1-2-0.1s-1.2,0.3-1.9,0.5c-0.2,0.1-0.5,0.2-0.7,0.2
				c-0.4-0.3-1.2-0.8-2.4-0.9c0,0-0.1-0.2-0.2-0.5c0-0.3-0.2-3-0.1-3.6s1.6-1.6,2.9-2.7s1.6-2.5,1.6-2.5s0.4-0.6,0.8-0.9
				c0.4-0.2,1.6,0,2.4,0.3s5.4,0.1,5.4,0.1c0,0.7,0.7,3.9,0.9,4.7c0.1,0.5,0.4,1.7,0.6,2.5C29.1,34.4,29.2,35.2,29.2,35.4z
				 M45.2,56.3H1.8V42.8h43.4V56.3z"/>
		</g>
	</g>
	<g>
		<g id="XMLID_482_">
			<path id="XMLID_536_" class="st0" d="M236.6,25.2h-3.4l-0.3-4.2h-3.5l-1.1,0.1v16.4l2.7,0.2v3.2h-9.8v-3.2l2.7-0.2V21.1l-1.1-0.1
				h-3.5l-0.3,4.2h-3.4v-7.4h21L236.6,25.2L236.6,25.2z"/>
			<path id="XMLID_533_" class="st0" d="M247.5,36l3.5-0.2c0,4.1-1,5.3-6.8,5.3c-6,0-7.2-1.4-7.2-8.4s1.1-8.3,7.1-8.3
				s6.9,1.2,6.9,8.6c0,0.7-0.2,0.9-0.9,0.9h-9.4c0.1,3.9,0.6,4.4,3.4,4.4C247,38.3,247.5,37.8,247.5,36z M240.7,31.5h6.7
				c-0.1-3.8-0.7-4.3-3.3-4.3C241.4,27.2,240.8,27.7,240.7,31.5z"/>
			<path id="XMLID_531_" class="st0" d="M267,29.9l-3.6,0.2c0-2.1-0.5-2.7-3.3-2.7c-3,0-3.4,0.7-3.4,5.4c0,4.7,0.4,5.4,3.4,5.4
				c2.8,0,3.3-0.5,3.3-2.6l3.6-0.2c0,4.6-0.9,5.7-6.9,5.7c-6,0-7.2-1.4-7.2-8.4s1.1-8.3,7.2-8.3C266,24.4,267,25.5,267,29.9z"/>
			<path id="XMLID_529_" class="st0" d="M287.4,40.8h-8.5v-2.7l2.3-0.2v-7.7c0-2.1-0.6-2.7-2.7-2.7c-1.3,0-2.2,0.3-4,1.2v9.1
				l2.3,0.2v2.7h-8.5V38l2.3-0.2V21l-2.3-0.1v-2.8h6.2v8.6c1.5-1.4,3.4-2.4,6-2.4c3.4,0,4.6,1.1,4.6,4.9v8.7l2.3,0.2L287.4,40.8
				L287.4,40.8z"/>
			<g>
				<path id="XMLID_527_" class="st0" d="M93.8,40.8h-9.5v-3.2l2.4-0.2V21.8l-6,19.1h-4.4L70.2,22v15.5l2.5,0.2v3.2h-9.5v-3.2
					l2.7-0.2V21.1l-2.6-0.2v-3.2h10.1L78,32.8c0.3,0.9,0.5,1.7,0.7,2.6c0.2-0.9,0.4-1.7,0.7-2.6l4.5-15.1h9.8v3.2L91,21.1v16.4
					l2.7,0.2v3.1H93.8z"/>
				<path id="XMLID_525_" class="st0" d="M104.5,40.8H96v-2.7l2.3-0.2V27.5L96,27.4v-2.8h6.2v13.3l2.3,0.2V40.8z"/>
				<path id="XMLID_523_" class="st0" d="M120.2,29.9l-3.6,0.2c0-2.1-0.5-2.7-3.3-2.7c-3,0-3.4,0.7-3.4,5.4c0,4.7,0.4,5.4,3.4,5.4
					c2.8,0,3.3-0.5,3.3-2.6l3.6-0.2c0,4.6-0.9,5.7-6.9,5.7s-7.2-1.4-7.2-8.4s1.1-8.3,7.2-8.3C119.2,24.4,120.2,25.5,120.2,29.9z"/>
				<path id="XMLID_495_" class="st0" d="M141.5,40.8h-8.6V38l2.3-0.2V30c0-2.1-0.6-2.7-2.7-2.7c-1.3,0-2.3,0.3-4.1,1.2v9.3l2.3,0.2
					v2.8h-8.6V38l2.3-0.2V20.7l-2.3-0.1v-2.8h6.3v8.7c1.5-1.4,3.4-2.4,6.1-2.4c3.4,0,4.7,1.1,4.7,5v8.8l2.3,0.2V40.8z"/>
				<path id="XMLID_493_" class="st0" d="M151.9,40.8h-8.5v-2.7l2.3-0.2V27.5l-2.3-0.1v-2.8h6.2v13.3l2.3,0.2V40.8z"/>
				<path id="XMLID_490_" class="st0" d="M168.6,27.5v12.9c0,5.4-1.3,6.6-7.5,6.6c-5.7,0-6.8-1.1-6.8-5.1l3.5-0.2
					c0,1.8,0.5,2.4,3.2,2.4c3.1,0,3.6-0.9,3.6-3.8v-2.4c-1.7,1.9-2.8,2.4-5.2,2.4c-4.2,0-5.7-1.3-5.7-8c0-6.6,1.5-8,5.7-8
					c2.5,0,3.7,0.4,5.2,2.1v-1.8h3.9l0,0h2.3v2.7L168.6,27.5z M164.7,36.2v-7.8c-1.1-0.7-2-0.8-3.9-0.8c-2.8,0-3.4,0.6-3.4,4.8
					c0,4.2,0.6,4.8,3.4,4.8C162.7,37.1,163.6,36.9,164.7,36.2z"/>
				<path id="XMLID_487_" class="st0" d="M189.2,40.8h-5.9l-0.2-2.4c-1.8,1.9-3.5,2.6-5.8,2.6c-3.5,0-5-2-5-4.7c0-2.8,1.1-5,8.2-5
					h2.5v-0.8c0-2.5-0.5-3.3-3.3-3.3c-2.6,0-3.1,0.6-3.1,2.3l-3.6,0.2c0-4,1.2-5.3,6.8-5.3c5.7,0,7,1.3,7,6.1V38l2.3,0.1v2.7H189.2z
					 M178.5,38.2c1.8,0,3-0.6,4.5-2.1v-2.5h-2c-4.3,0-5,1.1-5,2.5C176,37.3,176.7,38.2,178.5,38.2z"/>
				<path id="XMLID_485_" class="st0" d="M210.4,40.8h-8.5v-2.7l2.3-0.2v-7.7c0-2.1-0.6-2.7-2.7-2.7c-1.3,0-2.2,0.3-4,1.2v9.1
					l2.3,0.2v2.7h-8.5V38l2.3-0.2V27.5l-2.3-0.2v-2.7h6.2v2.1c1.5-1.4,3.4-2.4,6-2.4c3.4,0,4.6,1.1,4.6,4.9v8.7l2.3,0.2L210.4,40.8
					L210.4,40.8z"/>
				<path id="XMLID_484_" class="st0" d="M97.8,20.1c0-1.8,0.3-2.1,2.4-2.1c2,0,2.3,0.3,2.3,2.1c0,1.8-0.3,2.1-2.3,2.1
					C98.2,22.1,97.8,21.9,97.8,20.1z"/>
				<path id="XMLID_483_" class="st0" d="M145.3,20.1c0-1.8,0.3-2.1,2.4-2.1c2,0,2.3,0.3,2.3,2.1c0,1.8-0.3,2.1-2.3,2.1
					C145.6,22.1,145.3,21.9,145.3,20.1z"/>
			</g>
		</g>
	</g>
</g>
</svg>
