<?xml version="1.0" encoding="utf-8"?>
<!-- Generator: Adobe Illustrator 25.2.1, SVG Export Plug-In . SVG Version: 6.00 Build 0)  -->
<svg version="1.1" id="Layer_1" xmlns="http://www.w3.org/2000/svg" xmlns:xlink="http://www.w3.org/1999/xlink" x="0px" y="0px"
	 viewBox="0 0 720 216" style="enable-background:new 0 0 720 216;" xml:space="preserve">
<style type="text/css">
	.st0{fill:#F1B300;}
</style>
<g>
	<g>
		<path d="M257.99,67.31V27.46h23.14c2.94,0,5.39,0.55,7.37,1.65c1.97,1.1,3.45,2.61,4.44,4.52c0.99,1.91,1.48,4.05,1.48,6.41
			c0,2.55-0.59,4.82-1.77,6.82c-1.18,1.99-2.83,3.55-4.96,4.67l8,15.78h-11.6l-6.61-14.04h-9.11v14.04H257.99z M268.37,45.56h10.73
			c1.43,0,2.58-0.47,3.45-1.42c0.87-0.95,1.3-2.21,1.3-3.8c0-1.04-0.19-1.93-0.58-2.67c-0.39-0.73-0.93-1.3-1.62-1.71
			c-0.7-0.41-1.55-0.61-2.55-0.61h-10.73V45.56z"/>
		<path d="M300.45,67.31V27.46h32.89v8.12h-22.5v7.48h19.66v7.95h-19.66v8.18h22.91v8.12H300.45z"/>
		<path d="M356.25,68.01c-2.52,0-4.87-0.22-7.08-0.67c-2.2-0.44-4.15-1.17-5.83-2.18c-1.68-1.01-3.01-2.33-3.97-3.97
			c-0.97-1.64-1.45-3.66-1.45-6.06c0-0.15,0-0.33,0-0.52c0-0.19,0.02-0.35,0.06-0.46h10.03c0,0.12-0.01,0.26-0.03,0.43
			c-0.02,0.17-0.03,0.32-0.03,0.43c0,1.24,0.32,2.23,0.96,2.99c0.64,0.75,1.54,1.3,2.7,1.62c1.16,0.33,2.51,0.49,4.06,0.49
			c0.85,0,1.64-0.04,2.38-0.12c0.73-0.08,1.39-0.21,1.97-0.41c0.58-0.19,1.09-0.43,1.54-0.73c0.44-0.29,0.77-0.64,0.99-1.04
			c0.21-0.41,0.32-0.88,0.32-1.42c0-0.89-0.34-1.62-1.01-2.2c-0.68-0.58-1.59-1.06-2.73-1.45c-1.14-0.39-2.43-0.75-3.86-1.1
			c-1.43-0.35-2.92-0.71-4.47-1.1c-1.55-0.39-3.04-0.87-4.46-1.45c-1.43-0.58-2.72-1.31-3.86-2.2c-1.14-0.89-2.05-2-2.73-3.34
			c-0.68-1.33-1.02-2.95-1.02-4.84c0-2.09,0.44-3.9,1.33-5.42c0.89-1.53,2.12-2.77,3.68-3.74c1.57-0.97,3.37-1.67,5.42-2.12
			c2.05-0.44,4.23-0.67,6.55-0.67c2.28,0,4.42,0.23,6.41,0.7c1.99,0.46,3.76,1.19,5.31,2.18c1.55,0.99,2.76,2.22,3.63,3.71
			c0.87,1.49,1.32,3.28,1.36,5.37v0.7h-9.98v-0.41c0-0.89-0.24-1.67-0.72-2.35c-0.48-0.68-1.21-1.22-2.17-1.62
			c-0.97-0.41-2.17-0.61-3.6-0.61c-1.43,0-2.64,0.14-3.63,0.41c-0.99,0.27-1.74,0.66-2.26,1.16c-0.52,0.5-0.78,1.1-0.78,1.8
			c0,0.85,0.34,1.55,1.01,2.09c0.68,0.54,1.6,1.01,2.76,1.39c1.16,0.39,2.46,0.75,3.89,1.07c1.43,0.33,2.91,0.68,4.44,1.04
			c1.53,0.37,3.01,0.83,4.44,1.39c1.43,0.56,2.73,1.28,3.89,2.15c1.16,0.87,2.08,1.94,2.76,3.22c0.67,1.28,1.01,2.82,1.01,4.64
			c0,3.17-0.75,5.72-2.23,7.66c-1.49,1.93-3.54,3.34-6.15,4.23C362.48,67.56,359.53,68.01,356.25,68.01z"/>
		<path d="M379.1,67.31V27.46h32.89v8.12h-22.5v7.48h19.66v7.95h-19.66v8.18h22.91v8.12H379.1z"/>
		<path d="M414.48,67.31l14.96-39.85h12.47l14.96,39.85H445.8l-2.38-6.9h-15.89l-2.38,6.9H414.48z M430.02,52.64h10.85l-2.84-8.41
			c-0.15-0.43-0.34-0.96-0.55-1.59c-0.21-0.64-0.43-1.31-0.64-2.03c-0.21-0.71-0.42-1.44-0.61-2.18c-0.19-0.73-0.39-1.37-0.58-1.91
			h-0.41c-0.15,0.73-0.38,1.57-0.67,2.49c-0.29,0.93-0.58,1.86-0.87,2.78c-0.29,0.93-0.55,1.74-0.78,2.44L430.02,52.64z"/>
		<path d="M460.47,67.31V27.46h23.14c2.94,0,5.39,0.55,7.37,1.65c1.97,1.1,3.45,2.61,4.44,4.52c0.99,1.91,1.48,4.05,1.48,6.41
			c0,2.55-0.59,4.82-1.77,6.82c-1.18,1.99-2.83,3.55-4.96,4.67l8.01,15.78h-11.6l-6.61-14.04h-9.11v14.04H460.47z M470.85,45.56
			h10.73c1.43,0,2.58-0.47,3.45-1.42c0.87-0.95,1.3-2.21,1.3-3.8c0-1.04-0.19-1.93-0.58-2.67c-0.39-0.73-0.93-1.3-1.62-1.71
			c-0.7-0.41-1.55-0.61-2.55-0.61h-10.73V45.56z"/>
		<path d="M521.02,68.01c-4.29,0-7.94-0.74-10.93-2.23c-3-1.49-5.27-3.76-6.82-6.82c-1.55-3.05-2.32-6.92-2.32-11.6
			c0-6.88,1.73-12.04,5.19-15.46s8.42-5.13,14.88-5.13c3.6,0,6.79,0.61,9.57,1.83c2.78,1.22,4.96,3.04,6.53,5.45
			c1.57,2.42,2.35,5.42,2.35,9.02h-10.15c0-1.7-0.34-3.16-1.01-4.38c-0.68-1.22-1.62-2.16-2.84-2.81c-1.22-0.66-2.7-0.99-4.44-0.99
			c-2.17,0-3.94,0.45-5.34,1.33c-1.39,0.89-2.42,2.17-3.07,3.83c-0.66,1.66-0.99,3.67-0.99,6.03v2.61c0,2.36,0.33,4.38,0.99,6.06
			c0.66,1.68,1.67,2.96,3.04,3.83c1.37,0.87,3.14,1.3,5.31,1.3c1.86,0,3.43-0.31,4.73-0.93c1.29-0.62,2.28-1.54,2.96-2.75
			c0.68-1.22,1.01-2.68,1.01-4.38h9.8c0,3.6-0.76,6.59-2.29,8.99c-1.53,2.4-3.67,4.2-6.44,5.39
			C527.98,67.41,524.74,68.01,521.02,68.01z"/>
		<path d="M545.15,67.31V27.46h10.38v15.31h16.18V27.46h10.38v39.85h-10.38V51.24h-16.18v16.07H545.15z"/>
		<path d="M276.32,126.01c-4.29,0-7.94-0.74-10.93-2.23c-3-1.49-5.27-3.76-6.82-6.82c-1.55-3.05-2.32-6.92-2.32-11.6
			c0-6.88,1.73-12.04,5.19-15.46c3.46-3.42,8.42-5.13,14.88-5.13c3.6,0,6.79,0.61,9.57,1.83c2.78,1.22,4.96,3.04,6.53,5.45
			c1.57,2.42,2.35,5.42,2.35,9.02h-10.15c0-1.7-0.34-3.16-1.02-4.38c-0.68-1.22-1.62-2.16-2.84-2.81c-1.22-0.66-2.7-0.99-4.44-0.99
			c-2.17,0-3.94,0.45-5.34,1.33c-1.39,0.89-2.42,2.17-3.07,3.83c-0.66,1.66-0.99,3.67-0.99,6.03v2.61c0,2.36,0.33,4.38,0.99,6.06
			c0.66,1.68,1.67,2.96,3.05,3.83c1.37,0.87,3.14,1.3,5.31,1.3c1.86,0,3.43-0.31,4.73-0.93c1.29-0.62,2.28-1.54,2.96-2.75
			c0.68-1.22,1.02-2.68,1.02-4.38h9.8c0,3.6-0.76,6.59-2.29,8.99c-1.53,2.4-3.67,4.2-6.44,5.39
			C283.27,125.41,280.03,126.01,276.32,126.01z"/>
		<path d="M319.59,126.01c-4.37,0-8.11-0.76-11.22-2.29c-3.11-1.53-5.5-3.82-7.16-6.87c-1.66-3.05-2.49-6.88-2.49-11.48
			c0-4.6,0.83-8.42,2.49-11.46c1.66-3.04,4.05-5.32,7.16-6.84c3.11-1.53,6.85-2.29,11.22-2.29c4.37,0,8.11,0.76,11.22,2.29
			c3.11,1.53,5.5,3.81,7.16,6.84c1.66,3.04,2.49,6.85,2.49,11.46c0,4.6-0.83,8.43-2.49,11.48c-1.66,3.05-4.05,5.35-7.16,6.87
			C327.7,125.25,323.96,126.01,319.59,126.01z M319.59,117.89c1.66,0,3.13-0.25,4.41-0.75c1.28-0.5,2.35-1.24,3.22-2.2
			c0.87-0.97,1.52-2.15,1.94-3.54c0.43-1.39,0.64-2.96,0.64-4.7v-2.55c0-1.78-0.21-3.36-0.64-4.76c-0.43-1.39-1.07-2.57-1.94-3.54
			c-0.87-0.97-1.94-1.7-3.22-2.2c-1.28-0.5-2.75-0.75-4.41-0.75c-1.7,0-3.19,0.25-4.47,0.75c-1.28,0.5-2.34,1.24-3.19,2.2
			c-0.85,0.97-1.49,2.15-1.91,3.54c-0.43,1.39-0.64,2.98-0.64,4.76v2.55c0,1.74,0.21,3.31,0.64,4.7c0.43,1.39,1.06,2.57,1.91,3.54
			c0.85,0.97,1.91,1.7,3.19,2.2C316.4,117.64,317.89,117.89,319.59,117.89z"/>
		<path d="M346.27,125.31V85.47h15.14l4.81,17.75c0.19,0.62,0.42,1.46,0.69,2.52c0.27,1.06,0.54,2.17,0.81,3.33
			c0.27,1.16,0.5,2.2,0.69,3.13h0.47c0.15-0.73,0.35-1.61,0.58-2.64c0.23-1.02,0.48-2.11,0.75-3.25c0.27-1.14,0.52-2.19,0.75-3.16
			l4.87-17.69h14.73v39.85h-10.09v-16.99c0-1.66,0.01-3.34,0.03-5.05c0.02-1.7,0.05-3.25,0.09-4.64c0.04-1.39,0.06-2.4,0.06-3.02
			h-0.47c-0.11,0.58-0.3,1.42-0.55,2.52c-0.25,1.1-0.52,2.24-0.81,3.42c-0.29,1.18-0.55,2.19-0.78,3.04l-5.8,20.71h-8.35
			l-5.86-20.71c-0.19-0.77-0.43-1.7-0.7-2.78c-0.27-1.08-0.53-2.18-0.78-3.31c-0.25-1.12-0.47-2.07-0.67-2.84h-0.47
			c0.04,1.01,0.08,2.23,0.12,3.68c0.04,1.45,0.08,2.96,0.12,4.52c0.04,1.57,0.06,3.04,0.06,4.44v16.99H346.27z"/>
		<path d="M398.12,125.31V85.47h21.92c2.71,0,5.02,0.55,6.93,1.65c1.91,1.1,3.38,2.63,4.41,4.58c1.02,1.95,1.54,4.24,1.54,6.87
			c0,2.71-0.53,5.05-1.59,7.02c-1.06,1.97-2.57,3.51-4.52,4.61c-1.95,1.1-4.28,1.65-6.99,1.65H408.5v13.46H398.12z M408.5,103.85
			h8.87c1.62,0,2.86-0.45,3.71-1.36c0.85-0.91,1.28-2.18,1.28-3.8c0-1.16-0.18-2.11-0.55-2.84c-0.37-0.73-0.92-1.3-1.65-1.71
			c-0.74-0.41-1.66-0.61-2.78-0.61h-8.87V103.85z"/>
		<path d="M455.77,126.01c-3.83,0-7.12-0.6-9.89-1.8s-4.88-3-6.35-5.39c-1.47-2.4-2.2-5.37-2.2-8.93V85.47h10.44v24.19
			c0,2.55,0.68,4.56,2.03,6.03c1.35,1.47,3.34,2.2,5.97,2.2s4.64-0.73,6.03-2.2c1.39-1.47,2.09-3.48,2.09-6.03V85.47h10.38v24.42
			c0,3.56-0.73,6.54-2.2,8.93c-1.47,2.4-3.58,4.2-6.32,5.39S459.68,126.01,455.77,126.01z"/>
		<path d="M491.68,125.31V93.99h-12.93v-8.53h36.25v8.53h-12.93v31.32H491.68z"/>
		<path d="M519.69,125.31V85.47h10.38v39.85H519.69z"/>
		<path d="M537.61,125.31V85.47h9.22l14.5,18.5c0.27,0.31,0.63,0.75,1.07,1.33c0.44,0.58,0.88,1.17,1.31,1.77
			c0.43,0.6,0.73,1.07,0.93,1.42l0.29-0.06c0-0.85,0-1.67,0-2.47c0-0.79,0-1.46,0-2v-18.5h9.63v39.85h-9.16l-15.37-19.49
			c-0.5-0.62-0.98-1.26-1.42-1.91c-0.45-0.66-0.8-1.2-1.07-1.62l-0.29,0.06c0,0.62,0,1.25,0,1.88s0,1.17,0,1.6v19.49H537.61z"/>
		<path d="M600.25,126.01c-6.42,0-11.3-1.7-14.65-5.1c-3.35-3.4-5.02-8.58-5.02-15.54c0-4.6,0.82-8.42,2.47-11.46
			c1.64-3.04,4.04-5.32,7.19-6.84c3.15-1.53,6.95-2.29,11.4-2.29c2.67,0,5.18,0.31,7.54,0.93c2.36,0.62,4.45,1.54,6.26,2.76
			c1.82,1.22,3.23,2.75,4.23,4.58c1.01,1.84,1.51,3.99,1.51,6.47h-10.21c0-1.04-0.23-1.98-0.7-2.81c-0.46-0.83-1.11-1.53-1.94-2.09
			c-0.83-0.56-1.79-0.99-2.87-1.28c-1.08-0.29-2.22-0.44-3.42-0.44c-1.78,0-3.36,0.23-4.73,0.7c-1.37,0.46-2.5,1.18-3.39,2.15
			c-0.89,0.97-1.56,2.15-2,3.54c-0.44,1.39-0.67,3.02-0.67,4.87v2.55c0,2.48,0.39,4.54,1.16,6.21c0.77,1.66,1.94,2.91,3.51,3.74
			c1.57,0.83,3.49,1.25,5.77,1.25c1.78,0,3.37-0.27,4.79-0.81c1.41-0.54,2.53-1.32,3.36-2.35c0.83-1.02,1.25-2.25,1.25-3.68v-0.29
			h-10.73v-7.31h20.82v21.87h-6.03l-0.99-4.18c-1.2,1.08-2.48,1.99-3.86,2.73c-1.37,0.74-2.88,1.28-4.52,1.62
			C604.15,125.84,602.3,126.01,600.25,126.01z"/>
		<path class="st0" d="M649.09,125.31V113.6H637.9v-6.73h11.19V95.15h6.73v11.72h11.25v6.73h-11.25v11.72H649.09z"/>
		<path class="st0" d="M257.99,183.31v-39.85h16.65c4.33,0,7.99,0.72,10.99,2.15c3,1.43,5.28,3.61,6.84,6.53
			c1.57,2.92,2.35,6.66,2.35,11.22c0,4.52-0.78,8.27-2.35,11.22c-1.57,2.96-3.85,5.15-6.84,6.58c-3,1.43-6.66,2.15-10.99,2.15
			H257.99z M268.37,175.19h6.15c1.62,0,3.04-0.23,4.23-0.7c1.2-0.46,2.2-1.14,3.02-2.03c0.81-0.89,1.41-1.99,1.8-3.31
			c0.39-1.31,0.58-2.82,0.58-4.52v-2.44c0-1.74-0.19-3.27-0.58-4.58c-0.39-1.31-0.99-2.42-1.8-3.31c-0.81-0.89-1.82-1.57-3.02-2.03
			c-1.2-0.46-2.61-0.7-4.23-0.7h-6.15V175.19z"/>
		<path class="st0" d="M295.69,183.31l14.96-39.85h12.47l14.96,39.85h-11.08l-2.38-6.9h-15.89l-2.38,6.9H295.69z M311.24,168.64
			h10.85l-2.84-8.41c-0.16-0.43-0.34-0.96-0.55-1.6c-0.21-0.64-0.43-1.31-0.64-2.03c-0.21-0.71-0.42-1.44-0.61-2.18
			c-0.19-0.73-0.39-1.37-0.58-1.91h-0.41c-0.16,0.73-0.38,1.57-0.67,2.49c-0.29,0.93-0.58,1.86-0.87,2.78s-0.55,1.74-0.78,2.44
			L311.24,168.64z"/>
		<path class="st0" d="M346.91,183.31v-31.32h-12.93v-8.53h36.25v8.53h-12.93v31.32H346.91z"/>
		<path class="st0" d="M366.28,183.31l14.96-39.85h12.47l14.96,39.85H397.6l-2.38-6.9h-15.89l-2.38,6.9H366.28z M381.82,168.64
			h10.85l-2.84-8.41c-0.15-0.43-0.34-0.96-0.55-1.6c-0.21-0.64-0.43-1.31-0.64-2.03c-0.21-0.71-0.42-1.44-0.61-2.18
			c-0.19-0.73-0.39-1.37-0.58-1.91h-0.41c-0.15,0.73-0.38,1.57-0.67,2.49s-0.58,1.86-0.87,2.78c-0.29,0.93-0.55,1.74-0.78,2.44
			L381.82,168.64z"/>
		<path class="st0" d="M438.61,184.01c-2.51,0-4.87-0.22-7.08-0.67c-2.2-0.44-4.15-1.17-5.83-2.18c-1.68-1-3.01-2.33-3.97-3.97
			c-0.97-1.64-1.45-3.66-1.45-6.06c0-0.15,0-0.33,0-0.52c0-0.19,0.02-0.35,0.06-0.46h10.03c0,0.12-0.01,0.26-0.03,0.43
			c-0.02,0.17-0.03,0.32-0.03,0.44c0,1.24,0.32,2.23,0.96,2.99c0.64,0.75,1.54,1.3,2.7,1.62c1.16,0.33,2.51,0.49,4.06,0.49
			c0.85,0,1.64-0.04,2.38-0.12c0.73-0.08,1.39-0.21,1.97-0.41c0.58-0.19,1.09-0.43,1.54-0.72c0.44-0.29,0.77-0.64,0.99-1.04
			c0.21-0.41,0.32-0.88,0.32-1.42c0-0.89-0.34-1.62-1.02-2.2c-0.68-0.58-1.59-1.06-2.73-1.45c-1.14-0.39-2.43-0.75-3.86-1.1
			c-1.43-0.35-2.92-0.71-4.47-1.1c-1.55-0.39-3.04-0.87-4.47-1.45c-1.43-0.58-2.72-1.31-3.86-2.2c-1.14-0.89-2.05-2-2.73-3.33
			c-0.68-1.33-1.02-2.95-1.02-4.84c0-2.09,0.44-3.89,1.33-5.42c0.89-1.53,2.12-2.77,3.68-3.74c1.57-0.97,3.37-1.67,5.42-2.12
			c2.05-0.44,4.23-0.67,6.55-0.67c2.28,0,4.42,0.23,6.41,0.7c1.99,0.46,3.76,1.19,5.31,2.18c1.55,0.99,2.75,2.22,3.63,3.71
			c0.87,1.49,1.32,3.28,1.36,5.36v0.7h-9.98v-0.41c0-0.89-0.24-1.67-0.72-2.35c-0.48-0.68-1.21-1.22-2.18-1.62
			c-0.97-0.41-2.17-0.61-3.6-0.61c-1.43,0-2.64,0.14-3.63,0.41c-0.99,0.27-1.74,0.66-2.26,1.16c-0.52,0.5-0.78,1.1-0.78,1.8
			c0,0.85,0.34,1.55,1.01,2.09c0.68,0.54,1.6,1.01,2.75,1.39c1.16,0.39,2.46,0.74,3.89,1.07c1.43,0.33,2.91,0.68,4.44,1.04
			c1.53,0.37,3.01,0.83,4.44,1.39c1.43,0.56,2.73,1.28,3.89,2.15c1.16,0.87,2.08,1.94,2.75,3.22c0.68,1.28,1.01,2.82,1.01,4.64
			c0,3.17-0.75,5.72-2.23,7.66c-1.49,1.93-3.54,3.34-6.15,4.23C444.84,183.56,441.89,184.01,438.61,184.01z"/>
		<path class="st0" d="M461.46,183.31v-39.85h32.89v8.12h-22.5v7.48h19.66v7.95h-19.66v8.18h22.91v8.12H461.46z"/>
		<path class="st0" d="M500.72,183.31v-39.85h23.14c2.94,0,5.39,0.55,7.37,1.65c1.97,1.1,3.45,2.61,4.44,4.52
			c0.99,1.91,1.48,4.05,1.48,6.41c0,2.55-0.59,4.82-1.77,6.81c-1.18,1.99-2.83,3.55-4.96,4.67l8.01,15.78h-11.6l-6.61-14.04h-9.11
			v14.04H500.72z M511.11,161.56h10.73c1.43,0,2.58-0.47,3.45-1.42c0.87-0.95,1.3-2.21,1.3-3.8c0-1.04-0.19-1.93-0.58-2.67
			c-0.39-0.73-0.93-1.31-1.62-1.71c-0.7-0.41-1.55-0.61-2.55-0.61h-10.73V161.56z"/>
		<path class="st0" d="M553.45,183.31l-14.33-39.85h11.14l7.31,22.5c0.15,0.46,0.35,1.07,0.58,1.83c0.23,0.75,0.47,1.53,0.73,2.32
			c0.25,0.79,0.45,1.5,0.61,2.12h0.41c0.19-0.58,0.4-1.25,0.61-2c0.21-0.75,0.43-1.51,0.67-2.26c0.23-0.75,0.43-1.4,0.58-1.94
			l7.31-22.56h10.73l-14.27,39.85H553.45z"/>
		<path class="st0" d="M583.78,183.31v-39.85h10.38v39.85H583.78z"/>
		<path class="st0" d="M620.03,184.01c-4.29,0-7.94-0.74-10.93-2.23c-3-1.49-5.27-3.76-6.82-6.82c-1.55-3.05-2.32-6.92-2.32-11.6
			c0-6.88,1.73-12.04,5.19-15.46c3.46-3.42,8.42-5.13,14.88-5.13c3.6,0,6.79,0.61,9.57,1.83c2.78,1.22,4.96,3.04,6.53,5.45
			c1.57,2.42,2.35,5.42,2.35,9.02h-10.15c0-1.7-0.34-3.16-1.01-4.38c-0.68-1.22-1.62-2.15-2.84-2.81c-1.22-0.66-2.7-0.99-4.44-0.99
			c-2.17,0-3.94,0.44-5.34,1.33c-1.39,0.89-2.42,2.17-3.07,3.83c-0.66,1.66-0.99,3.67-0.99,6.03v2.61c0,2.36,0.33,4.38,0.99,6.06
			c0.66,1.68,1.67,2.96,3.04,3.83c1.37,0.87,3.14,1.3,5.31,1.3c1.86,0,3.43-0.31,4.73-0.93c1.29-0.62,2.28-1.54,2.96-2.75
			c0.68-1.22,1.01-2.68,1.01-4.38h9.8c0,3.6-0.76,6.59-2.29,8.99c-1.53,2.4-3.67,4.2-6.44,5.39
			C626.98,183.41,623.75,184.01,620.03,184.01z"/>
		<path class="st0" d="M644.28,183.31v-39.85h32.89v8.12h-22.5v7.48h19.66v7.95h-19.66v8.18h22.91v8.12H644.28z"/>
		<path class="st0" d="M700.08,184.01c-2.51,0-4.87-0.22-7.08-0.67c-2.2-0.44-4.15-1.17-5.83-2.18c-1.68-1-3.01-2.33-3.97-3.97
			c-0.97-1.64-1.45-3.66-1.45-6.06c0-0.15,0-0.33,0-0.52c0-0.19,0.02-0.35,0.06-0.46h10.03c0,0.12-0.01,0.26-0.03,0.43
			c-0.02,0.17-0.03,0.32-0.03,0.44c0,1.24,0.32,2.23,0.96,2.99c0.64,0.75,1.54,1.3,2.7,1.62c1.16,0.33,2.51,0.49,4.06,0.49
			c0.85,0,1.64-0.04,2.38-0.12c0.73-0.08,1.39-0.21,1.97-0.41c0.58-0.19,1.09-0.43,1.54-0.72c0.44-0.29,0.77-0.64,0.99-1.04
			c0.21-0.41,0.32-0.88,0.32-1.42c0-0.89-0.34-1.62-1.02-2.2c-0.68-0.58-1.59-1.06-2.73-1.45c-1.14-0.39-2.43-0.75-3.86-1.1
			c-1.43-0.35-2.92-0.71-4.47-1.1c-1.55-0.39-3.04-0.87-4.47-1.45c-1.43-0.58-2.72-1.31-3.86-2.2c-1.14-0.89-2.05-2-2.73-3.33
			c-0.68-1.33-1.02-2.95-1.02-4.84c0-2.09,0.44-3.89,1.33-5.42c0.89-1.53,2.12-2.77,3.68-3.74c1.57-0.97,3.37-1.67,5.42-2.12
			c2.05-0.44,4.23-0.67,6.55-0.67c2.28,0,4.42,0.23,6.41,0.7c1.99,0.46,3.76,1.19,5.31,2.18c1.55,0.99,2.75,2.22,3.63,3.71
			c0.87,1.49,1.32,3.28,1.36,5.36v0.7h-9.98v-0.41c0-0.89-0.24-1.67-0.72-2.35c-0.48-0.68-1.21-1.22-2.18-1.62
			c-0.97-0.41-2.17-0.61-3.6-0.61c-1.43,0-2.64,0.14-3.63,0.41c-0.99,0.27-1.74,0.66-2.26,1.16c-0.52,0.5-0.78,1.1-0.78,1.8
			c0,0.85,0.34,1.55,1.01,2.09c0.68,0.54,1.6,1.01,2.75,1.39c1.16,0.39,2.46,0.74,3.89,1.07c1.43,0.33,2.91,0.68,4.44,1.04
			c1.53,0.37,3.01,0.83,4.44,1.39c1.43,0.56,2.73,1.28,3.89,2.15c1.16,0.87,2.08,1.94,2.75,3.22c0.68,1.28,1.01,2.82,1.01,4.64
			c0,3.17-0.75,5.72-2.23,7.66c-1.49,1.93-3.54,3.34-6.15,4.23C706.31,183.56,703.36,184.01,700.08,184.01z"/>
	</g>
	<path d="M117.21,175.93l110.82-74.42l1.32-0.89V75.5l-112.15,75.31L13.42,81.1l103.82-69.72l85.74,56.05
		c-0.33,0.93-0.52,1.93-0.52,2.97c0,4.93,4.01,8.94,8.94,8.94c4.93,0,8.94-4.01,8.94-8.94c0-4.93-4.01-8.94-8.94-8.94
		c-1.7,0-3.28,0.48-4.63,1.31L117.19,4.21L2.7,81.1l114.52,76.9l106.17-71.3v10.73l-106.17,71.3L2.7,91.53v25.12l114.52,77.21
		l106.17-71.3v10.73l-106.17,71.3l-96.73-64.96c0.09-0.51,0.15-1.04,0.15-1.58c0-4.93-4.01-8.94-8.94-8.94s-8.94,4.01-8.94,8.94
		c0,4.93,4.01,8.94,8.94,8.94c2.22,0,4.24-0.82,5.81-2.16l99.71,66.96l110.82-74.42l1.32-0.89v-25.12l-112.15,75.31L8.67,113.46
		v-10.73L117.21,175.93z M211.4,66.24c2.29,0,4.16,1.86,4.16,4.16s-1.86,4.16-4.16,4.16s-4.16-1.86-4.16-4.16
		S209.11,66.24,211.4,66.24z M11.7,142.21c-2.29,0-4.16-1.86-4.16-4.16s1.86-4.16,4.16-4.16s4.16,1.86,4.16,4.16
		S13.99,142.21,11.7,142.21z"/>
</g>
</svg>
