<?xml version="1.0" encoding="utf-8"?>
<!-- Generator: Adobe Illustrator 25.2.1, SVG Export Plug-In . SVG Version: 6.00 Build 0)  -->
<svg version="1.1" xmlns="http://www.w3.org/2000/svg" xmlns:xlink="http://www.w3.org/1999/xlink" x="0px" y="0px"
	 viewBox="0 0 720 720" style="enable-background:new 0 0 720 720;" xml:space="preserve">
<style type="text/css">
	.st0{display:none;}
	.st1{display:inline;fill:#FFFFFF;}
	.st2{font-family:'Archivo-ExtraBold';}
	.st3{font-size:50px;}
	.st4{letter-spacing:-1;}
	.st5{display:inline;fill:#F1B300;}
	.st6{display:inline;}
	.st7{fill:#F1B300;}
	.st8{fill:#FFFFFF;}
	.st9{font-size:52.3674px;}
	.st10{font-size:57.5121px;}
</style>
<g id="Wordmark" class="st0">
	<text transform="matrix(1 0 0 1 53.2031 345.9248)"><tspan x="0" y="0" class="st1 st2 st3 st4">Research Computing</tspan><tspan x="81.77" y="50" class="st5 st2 st3 st4">+ Data Services</tspan></text>
	<text transform="matrix(1 0 0 1 53.2031 345.9248)" class="st6"><tspan x="0" y="0" class="st2 st3 st4">Research Computing</tspan><tspan x="81.77" y="50" class="st7 st2 st3 st4">+ Data Services</tspan></text>
</g>
<g id="Logomark" class="st0">
	<path class="st7" d="M361.69,457.13l158.46-106.41l1.89-1.27v-35.92L361.69,421.21l-148.41-99.67l148.44-99.69l122.6,80.14
		c-0.47,1.33-0.74,2.75-0.74,4.24c0,7.05,5.73,12.78,12.78,12.78c7.05,0,12.78-5.73,12.78-12.78s-5.73-12.78-12.78-12.78
		c-2.42,0-4.68,0.69-6.62,1.87L361.66,211.6L197.96,321.54L361.69,431.5l151.8-101.94v15.34l-151.8,101.94l-163.74-110.4v35.92
		l163.74,110.4l151.8-101.94v15.34L361.69,498.1l-138.3-92.88c0.13-0.74,0.21-1.49,0.21-2.26c0-7.05-5.73-12.78-12.78-12.78
		c-7.05,0-12.78,5.73-12.78,12.78s5.73,12.78,12.78,12.78c3.17,0,6.07-1.17,8.3-3.09l142.56,95.74l158.46-106.41l1.89-1.27v-35.92
		L361.69,472.47L206.5,367.81v-15.34L361.69,457.13z M496.36,300.29c3.28,0,5.94,2.66,5.94,5.94s-2.66,5.94-5.94,5.94
		c-3.28,0-5.94-2.66-5.94-5.94S493.08,300.29,496.36,300.29z M210.83,408.91c-3.28,0-5.94-2.66-5.94-5.94s2.67-5.94,5.94-5.94
		c3.28,0,5.94,2.66,5.94,5.94S214.11,408.91,210.83,408.91z"/>
	<path class="st6" d="M361.69,457.13l158.46-106.41l1.89-1.27v-35.92L361.69,421.21l-148.41-99.67l148.44-99.69l122.6,80.14
		c-0.47,1.33-0.74,2.75-0.74,4.24c0,7.05,5.73,12.78,12.78,12.78c7.05,0,12.78-5.73,12.78-12.78s-5.73-12.78-12.78-12.78
		c-2.42,0-4.68,0.69-6.62,1.87L361.66,211.6L197.96,321.54L361.69,431.5l151.8-101.94v15.34l-151.8,101.94l-163.74-110.4v35.92
		l163.74,110.4l151.8-101.94v15.34L361.69,498.1l-138.3-92.88c0.13-0.74,0.21-1.49,0.21-2.26c0-7.05-5.73-12.78-12.78-12.78
		c-7.05,0-12.78,5.73-12.78,12.78s5.73,12.78,12.78,12.78c3.17,0,6.07-1.17,8.3-3.09l142.56,95.74l158.46-106.41l1.89-1.27v-35.92
		L361.69,472.47L206.5,367.81v-15.34L361.69,457.13z M496.36,300.29c3.28,0,5.94,2.66,5.94,5.94s-2.66,5.94-5.94,5.94
		c-3.28,0-5.94-2.66-5.94-5.94S493.08,300.29,496.36,300.29z M210.83,408.91c-3.28,0-5.94-2.66-5.94-5.94s2.67-5.94,5.94-5.94
		c3.28,0,5.94,2.66,5.94,5.94S214.11,408.91,210.83,408.91z"/>
</g>
<g id="Horizontal" class="st0">
	<g>
		<text transform="matrix(1 0 0 1 263.448 323.2635)" class="st6"><tspan x="0" y="0" class="st8 st2 st9 st4">Research</tspan><tspan x="0" y="52.37" class="st8 st2 st9 st4">Computing</tspan><tspan x="334.26" y="52.37" class="st2 st9 st4"> </tspan><tspan x="343.11" y="52.37" class="st7 st2 st9 st4">+</tspan><tspan x="0" y="104.73" class="st7 st2 st9 st4">Data Services</tspan></text>
		<path class="st5" d="M140.27,421.33l100.06-67.19l1.19-0.8v-22.68l-101.25,67.99l-93.72-62.93l93.74-62.95l77.41,50.6
			c-0.3,0.84-0.47,1.74-0.47,2.68c0,4.45,3.62,8.07,8.07,8.07c4.45,0,8.07-3.62,8.07-8.07s-3.62-8.07-8.07-8.07
			c-1.53,0-2.96,0.44-4.18,1.18l-80.88-52.87L36.88,335.72l103.39,69.43l95.86-64.37v9.69l-95.86,64.37L36.88,345.13v22.68
			l103.39,69.71l95.86-64.37v9.69l-95.86,64.37l-87.33-58.65c0.08-0.46,0.13-0.94,0.13-1.43c0-4.45-3.62-8.07-8.07-8.07
			s-8.07,3.62-8.07,8.07s3.62,8.07,8.07,8.07c2,0,3.83-0.74,5.24-1.95l90.02,60.45l100.06-67.19l1.19-0.8v-22.68l-101.25,67.99
			l-98-66.09v-9.69L140.27,421.33z M225.31,322.3c2.07,0,3.75,1.68,3.75,3.75s-1.68,3.75-3.75,3.75c-2.07,0-3.75-1.68-3.75-3.75
			S223.24,322.3,225.31,322.3z M45.01,390.88c-2.07,0-3.75-1.68-3.75-3.75s1.68-3.75,3.75-3.75c2.07,0,3.75,1.68,3.75,3.75
			S47.08,390.88,45.01,390.88z"/>
	</g>
	<g class="st6">
		<text transform="matrix(1 0 0 1 263.448 323.2635)"><tspan x="0" y="0" class="st2 st9 st4">Research</tspan><tspan x="0" y="52.37" class="st2 st9 st4">Computing </tspan><tspan x="343.11" y="52.37" class="st7 st2 st9 st4">+</tspan><tspan x="0" y="104.73" class="st7 st2 st9 st4">Data Services</tspan></text>
		<path d="M140.27,421.33l100.06-67.19l1.19-0.8v-22.68l-101.25,67.99l-93.72-62.93l93.74-62.95l77.41,50.6
			c-0.3,0.84-0.47,1.74-0.47,2.68c0,4.45,3.62,8.07,8.07,8.07c4.45,0,8.07-3.62,8.07-8.07s-3.62-8.07-8.07-8.07
			c-1.53,0-2.96,0.44-4.18,1.18l-80.88-52.87L36.88,335.72l103.39,69.43l95.86-64.37v9.69l-95.86,64.37L36.88,345.13v22.68
			l103.39,69.71l95.86-64.37v9.69l-95.86,64.37l-87.33-58.65c0.08-0.46,0.13-0.94,0.13-1.43c0-4.45-3.62-8.07-8.07-8.07
			s-8.07,3.62-8.07,8.07s3.62,8.07,8.07,8.07c2,0,3.83-0.74,5.24-1.95l90.02,60.45l100.06-67.19l1.19-0.8v-22.68l-101.25,67.99
			l-98-66.09v-9.69L140.27,421.33z M225.31,322.3c2.07,0,3.75,1.68,3.75,3.75s-1.68,3.75-3.75,3.75c-2.07,0-3.75-1.68-3.75-3.75
			S223.24,322.3,225.31,322.3z M45.01,390.88c-2.07,0-3.75-1.68-3.75-3.75s1.68-3.75,3.75-3.75c2.07,0,3.75,1.68,3.75,3.75
			S47.08,390.88,45.01,390.88z"/>
	</g>
</g>
<g id="Stacked">
	<g class="st0">
		<text transform="matrix(1 0 0 1 195.5171 431.0705)" class="st6"><tspan x="0" y="0" class="st8 st2 st10 st4">Research</tspan><tspan x="-42.01" y="57.51" class="st8 st2 st10 st4">Computing </tspan><tspan x="334.8" y="57.51" class="st7 st2 st10 st4">+</tspan><tspan x="-71.4" y="115.02" class="st7 st2 st10 st4">Data Services</tspan></text>
		<path class="st5" d="M361.21,325.43l112.86-75.79l1.35-0.9v-25.59l-114.21,76.7L255.5,228.86l105.73-71l87.32,57.08
			c-0.34,0.95-0.53,1.96-0.53,3.02c0,5.02,4.08,9.1,9.1,9.1c5.02,0,9.1-4.08,9.1-9.1s-4.08-9.1-9.1-9.1c-1.73,0-3.34,0.49-4.71,1.33
			l-91.23-59.63l-116.6,78.3l116.62,78.32l108.12-72.61v10.92L361.21,318.1l-116.62-78.63v25.59l116.62,78.63l108.12-72.61V282
			l-108.12,72.61l-98.5-66.15c0.09-0.52,0.15-1.06,0.15-1.61c0-5.02-4.08-9.1-9.1-9.1s-9.1,4.08-9.1,9.1c0,5.02,4.08,9.1,9.1,9.1
			c2.26,0,4.32-0.83,5.91-2.2l101.54,68.19l112.86-75.79l1.35-0.9v-25.59l-114.21,76.7l-110.54-74.54v-10.92L361.21,325.43z
			 M457.12,213.72c2.33,0,4.23,1.9,4.23,4.23s-1.9,4.23-4.23,4.23c-2.33,0-4.23-1.9-4.23-4.23S454.79,213.72,457.12,213.72z
			 M253.76,291.08c-2.33,0-4.23-1.9-4.23-4.23c0-2.33,1.9-4.23,4.23-4.23s4.23,1.9,4.23,4.23
			C257.99,289.18,256.09,291.08,253.76,291.08z"/>
	</g>
	<g>
		<g>
			<path d="M106.96,488.95v-61.83h35.91c4.56,0,8.37,0.85,11.43,2.56c3.06,1.71,5.35,4.05,6.88,7.02c1.53,2.97,2.3,6.29,2.3,9.95
				c0,3.96-0.92,7.49-2.75,10.57c-1.83,3.09-4.4,5.51-7.69,7.25l12.42,24.48h-18l-10.26-21.78h-14.13v21.78H106.96z M123.07,455.2
				h16.65c2.22,0,4.01-0.73,5.36-2.2c1.35-1.47,2.02-3.44,2.02-5.9c0-1.62-0.3-3-0.9-4.14c-0.6-1.14-1.44-2.02-2.52-2.65
				c-1.08-0.63-2.4-0.95-3.96-0.95h-16.65V455.2z"/>
			<path d="M172.84,488.95v-61.83h51.03v12.6h-34.92v11.61h30.51v12.33h-30.51v12.69h35.55v12.6H172.84z"/>
			<path d="M259.43,490.03c-3.9,0-7.56-0.35-10.98-1.04c-3.42-0.69-6.44-1.81-9.05-3.37c-2.61-1.56-4.67-3.61-6.16-6.16
				c-1.5-2.55-2.25-5.69-2.25-9.4c0-0.24,0-0.51,0-0.81s0.03-0.54,0.09-0.72h15.57c0,0.18-0.02,0.4-0.05,0.68
				c-0.03,0.27-0.05,0.5-0.05,0.68c0,1.92,0.5,3.46,1.49,4.64c0.99,1.17,2.38,2.01,4.19,2.52c1.8,0.51,3.9,0.76,6.3,0.76
				c1.32,0,2.55-0.06,3.69-0.18c1.14-0.12,2.16-0.33,3.06-0.63c0.9-0.3,1.69-0.67,2.39-1.12c0.69-0.45,1.2-0.99,1.53-1.62
				c0.33-0.63,0.5-1.36,0.5-2.21c0-1.38-0.53-2.52-1.57-3.42c-1.05-0.9-2.46-1.65-4.23-2.25c-1.77-0.6-3.77-1.17-5.99-1.71
				c-2.22-0.54-4.53-1.11-6.93-1.71c-2.4-0.6-4.71-1.35-6.93-2.25c-2.22-0.9-4.22-2.04-5.98-3.42c-1.77-1.38-3.18-3.11-4.23-5.17
				c-1.05-2.07-1.57-4.58-1.57-7.52c0-3.24,0.69-6.04,2.07-8.41c1.38-2.37,3.28-4.31,5.71-5.81c2.43-1.5,5.23-2.59,8.42-3.28
				c3.18-0.69,6.57-1.04,10.17-1.04c3.54,0,6.85,0.36,9.95,1.08c3.09,0.72,5.83,1.84,8.23,3.37c2.4,1.53,4.28,3.45,5.62,5.76
				c1.35,2.31,2.05,5.08,2.12,8.32v1.08h-15.48v-0.63c0-1.38-0.38-2.59-1.12-3.65c-0.75-1.05-1.88-1.89-3.38-2.52
				c-1.5-0.63-3.36-0.94-5.58-0.94c-2.22,0-4.1,0.21-5.63,0.63c-1.53,0.42-2.7,1.02-3.51,1.8c-0.81,0.78-1.21,1.71-1.21,2.79
				c0,1.32,0.52,2.4,1.58,3.24c1.05,0.84,2.48,1.56,4.27,2.16c1.8,0.6,3.81,1.16,6.03,1.67c2.22,0.51,4.51,1.05,6.88,1.62
				c2.37,0.57,4.66,1.29,6.89,2.16c2.22,0.87,4.23,1.98,6.03,3.33c1.8,1.35,3.22,3.02,4.27,5c1.05,1.98,1.58,4.38,1.58,7.2
				c0,4.92-1.16,8.88-3.47,11.88c-2.31,3-5.49,5.19-9.54,6.57C269.1,489.34,264.52,490.03,259.43,490.03z"/>
			<path d="M294.89,488.95v-61.83h51.03v12.6H311v11.61h30.51v12.33H311v12.69h35.55v12.6H294.89z"/>
			<path d="M349.79,488.95l23.22-61.83h19.35l23.22,61.83h-17.19l-3.69-10.71h-24.66l-3.69,10.71H349.79z M373.91,466.18h16.83
				l-4.41-13.05c-0.24-0.66-0.53-1.49-0.85-2.48c-0.33-0.99-0.66-2.04-0.99-3.15c-0.33-1.11-0.64-2.23-0.94-3.37
				c-0.3-1.14-0.6-2.13-0.9-2.97h-0.63c-0.24,1.14-0.59,2.43-1.04,3.87c-0.45,1.44-0.9,2.88-1.35,4.32
				c-0.45,1.44-0.86,2.7-1.21,3.78L373.91,466.18z"/>
			<path d="M421.16,488.95v-61.83h35.91c4.56,0,8.37,0.85,11.43,2.56c3.06,1.71,5.35,4.05,6.89,7.02c1.53,2.97,2.29,6.29,2.29,9.95
				c0,3.96-0.92,7.49-2.74,10.57c-1.83,3.09-4.4,5.51-7.69,7.25l12.42,24.48h-18l-10.26-21.78h-14.13v21.78H421.16z M437.27,455.2
				h16.65c2.22,0,4-0.73,5.35-2.2c1.35-1.47,2.02-3.44,2.02-5.9c0-1.62-0.3-3-0.9-4.14c-0.6-1.14-1.44-2.02-2.52-2.65
				c-1.08-0.63-2.4-0.95-3.96-0.95h-16.65V455.2z"/>
			<path d="M515.12,490.03c-6.66,0-12.32-1.16-16.97-3.47c-4.65-2.31-8.18-5.83-10.58-10.57c-2.4-4.74-3.6-10.74-3.6-18
				c0-10.68,2.69-18.68,8.06-23.99c5.37-5.31,13.07-7.97,23.09-7.97c5.58,0,10.53,0.95,14.85,2.83c4.32,1.89,7.69,4.71,10.13,8.46
				c2.43,3.75,3.64,8.42,3.64,14h-15.75c0-2.64-0.53-4.91-1.58-6.79c-1.05-1.89-2.52-3.35-4.41-4.37c-1.89-1.02-4.18-1.53-6.88-1.53
				c-3.36,0-6.12,0.69-8.28,2.07c-2.16,1.38-3.75,3.36-4.77,5.94c-1.02,2.58-1.53,5.7-1.53,9.36v4.05c0,3.66,0.51,6.79,1.53,9.4
				c1.02,2.61,2.59,4.59,4.72,5.94c2.13,1.35,4.88,2.02,8.24,2.02c2.88,0,5.32-0.48,7.34-1.44c2.01-0.96,3.54-2.39,4.59-4.28
				c1.05-1.89,1.58-4.15,1.58-6.79h15.21c0,5.58-1.19,10.23-3.56,13.95c-2.37,3.72-5.7,6.51-9.99,8.37
				C525.9,489.1,520.88,490.03,515.12,490.03z"/>
			<path d="M552.56,488.95v-61.83h16.11v23.76h25.11v-23.76h16.11v61.83h-16.11v-24.93h-25.11v24.93H552.56z"/>
			<path d="M69.57,580.03c-6.66,0-12.32-1.16-16.97-3.47c-4.65-2.31-8.18-5.83-10.57-10.57c-2.4-4.74-3.6-10.74-3.6-18
				c0-10.68,2.69-18.68,8.06-23.99c5.37-5.31,13.06-7.97,23.09-7.97c5.58,0,10.53,0.95,14.85,2.83c4.32,1.89,7.7,4.71,10.13,8.46
				c2.43,3.75,3.64,8.42,3.64,14H82.44c0-2.64-0.53-4.91-1.57-6.79c-1.05-1.89-2.52-3.35-4.41-4.37c-1.89-1.02-4.19-1.53-6.88-1.53
				c-3.36,0-6.12,0.69-8.28,2.07c-2.16,1.38-3.75,3.36-4.77,5.94c-1.02,2.58-1.53,5.7-1.53,9.36v4.05c0,3.66,0.51,6.79,1.53,9.4
				c1.02,2.61,2.59,4.59,4.73,5.94c2.13,1.35,4.87,2.02,8.23,2.02c2.88,0,5.32-0.48,7.33-1.44c2.01-0.96,3.54-2.39,4.59-4.28
				c1.05-1.89,1.58-4.15,1.58-6.79h15.21c0,5.58-1.19,10.23-3.55,13.95c-2.37,3.72-5.7,6.51-9.99,8.37
				C80.35,579.1,75.33,580.03,69.57,580.03z"/>
			<path d="M136.71,580.03c-6.78,0-12.59-1.18-17.42-3.56c-4.83-2.37-8.54-5.92-11.11-10.66c-2.58-4.74-3.87-10.68-3.87-17.82
				c0-7.14,1.29-13.07,3.87-17.78c2.58-4.71,6.28-8.25,11.11-10.62c4.83-2.37,10.63-3.55,17.42-3.55c6.78,0,12.58,1.19,17.42,3.55
				c4.83,2.37,8.53,5.91,11.12,10.62c2.58,4.71,3.87,10.64,3.87,17.78c0,7.14-1.29,13.08-3.87,17.82
				c-2.58,4.74-6.29,8.3-11.12,10.66C149.29,578.85,143.49,580.03,136.71,580.03z M136.71,567.43c2.58,0,4.86-0.39,6.84-1.17
				c1.98-0.78,3.65-1.92,5-3.42c1.35-1.5,2.35-3.33,3.02-5.49c0.66-2.16,0.99-4.59,0.99-7.29v-3.96c0-2.76-0.33-5.22-0.99-7.38
				c-0.66-2.16-1.67-3.99-3.02-5.49c-1.35-1.5-3.01-2.64-5-3.42c-1.98-0.78-4.26-1.17-6.84-1.17c-2.64,0-4.95,0.39-6.93,1.17
				c-1.98,0.78-3.63,1.92-4.95,3.42c-1.32,1.5-2.31,3.33-2.97,5.49c-0.66,2.16-0.99,4.62-0.99,7.38v3.96c0,2.7,0.33,5.13,0.99,7.29
				c0.66,2.16,1.65,3.99,2.97,5.49c1.32,1.5,2.97,2.64,4.95,3.42C131.76,567.04,134.07,567.43,136.71,567.43z"/>
			<path d="M178.11,578.95v-61.83h23.49l7.47,27.54c0.3,0.96,0.66,2.26,1.08,3.92c0.42,1.65,0.84,3.37,1.26,5.17
				c0.42,1.8,0.78,3.42,1.08,4.86h0.72c0.24-1.14,0.54-2.5,0.9-4.09c0.36-1.59,0.75-3.27,1.17-5.04c0.42-1.77,0.81-3.4,1.17-4.91
				l7.56-27.45h22.86v61.83h-15.66v-26.37c0-2.58,0.01-5.19,0.05-7.83c0.03-2.64,0.07-5.04,0.13-7.2c0.06-2.16,0.09-3.72,0.09-4.68
				h-0.72c-0.18,0.9-0.47,2.21-0.86,3.92c-0.39,1.71-0.81,3.48-1.26,5.31c-0.45,1.83-0.86,3.4-1.21,4.72l-9,32.13h-12.96
				l-9.09-32.13c-0.3-1.2-0.66-2.64-1.08-4.32c-0.42-1.68-0.83-3.39-1.21-5.13c-0.39-1.74-0.74-3.21-1.04-4.41h-0.72
				c0.06,1.56,0.12,3.46,0.18,5.72c0.06,2.25,0.12,4.59,0.18,7.02c0.06,2.43,0.09,4.73,0.09,6.89v26.37H178.11z"/>
			<path d="M258.57,578.95v-61.83h34.02c4.2,0,7.79,0.85,10.76,2.56c2.97,1.71,5.25,4.08,6.84,7.11c1.59,3.03,2.39,6.59,2.39,10.67
				c0,4.2-0.83,7.83-2.48,10.89c-1.65,3.06-3.99,5.45-7.02,7.16c-3.03,1.71-6.65,2.56-10.85,2.56h-17.55v20.88H258.57z
				 M274.68,545.65h13.77c2.52,0,4.44-0.7,5.76-2.12c1.32-1.41,1.98-3.38,1.98-5.9c0-1.8-0.29-3.27-0.86-4.41
				c-0.57-1.14-1.43-2.02-2.57-2.66c-1.14-0.63-2.58-0.94-4.32-0.94h-13.77V545.65z"/>
			<path d="M348.03,580.03c-5.94,0-11.06-0.93-15.35-2.79c-4.29-1.86-7.58-4.65-9.86-8.37c-2.28-3.72-3.42-8.34-3.42-13.86v-37.89
				h16.2v37.53c0,3.96,1.05,7.08,3.15,9.36c2.1,2.28,5.19,3.42,9.27,3.42c4.08,0,7.2-1.14,9.36-3.42c2.16-2.28,3.24-5.4,3.24-9.36
				v-37.53h16.11v37.89c0,5.52-1.14,10.14-3.42,13.86c-2.28,3.72-5.55,6.51-9.81,8.37C359.25,579.1,354.09,580.03,348.03,580.03z"/>
			<path d="M403.74,578.95v-48.6h-20.07v-13.23h56.25v13.23h-20.07v48.6H403.74z"/>
			<path d="M447.21,578.95v-61.83h16.11v61.83H447.21z"/>
			<path d="M475.02,578.95v-61.83h14.31l22.5,28.71c0.42,0.48,0.98,1.17,1.66,2.07c0.69,0.9,1.36,1.82,2.02,2.74
				c0.66,0.93,1.14,1.67,1.44,2.21l0.45-0.09c0-1.32,0-2.59,0-3.83c0-1.23,0-2.26,0-3.1v-28.71h14.94v61.83h-14.22l-23.85-30.24
				c-0.78-0.96-1.52-1.95-2.21-2.97c-0.69-1.02-1.25-1.86-1.66-2.52l-0.45,0.09c0,0.96,0,1.93,0,2.93c0,0.99,0,1.82,0,2.47v30.24
				H475.02z"/>
			<path d="M572.22,580.03c-9.96,0-17.54-2.64-22.73-7.92c-5.19-5.28-7.78-13.32-7.78-24.12c0-7.14,1.27-13.07,3.83-17.78
				c2.55-4.71,6.27-8.25,11.16-10.62c4.89-2.37,10.78-3.55,17.69-3.55c4.14,0,8.04,0.48,11.7,1.44c3.66,0.96,6.9,2.38,9.72,4.27
				c2.82,1.89,5.01,4.26,6.57,7.11c1.56,2.85,2.34,6.2,2.34,10.04h-15.84c0-1.62-0.36-3.07-1.08-4.36
				c-0.72-1.29-1.73-2.37-3.02-3.24c-1.29-0.87-2.78-1.53-4.45-1.98c-1.68-0.45-3.45-0.68-5.31-0.68c-2.76,0-5.21,0.36-7.34,1.08
				c-2.13,0.72-3.88,1.83-5.26,3.33c-1.38,1.5-2.42,3.33-3.11,5.49c-0.69,2.16-1.03,4.68-1.03,7.56v3.96c0,3.84,0.6,7.05,1.8,9.63
				c1.2,2.58,3.02,4.52,5.45,5.81c2.43,1.29,5.41,1.93,8.96,1.93c2.76,0,5.23-0.42,7.42-1.26c2.19-0.84,3.93-2.05,5.22-3.64
				c1.29-1.59,1.93-3.5,1.93-5.72v-0.45h-16.65v-11.34h32.31v33.93h-9.36l-1.53-6.48c-1.86,1.68-3.86,3.09-5.98,4.23
				c-2.13,1.14-4.47,1.98-7.02,2.52C578.27,579.76,575.41,580.03,572.22,580.03z"/>
			<path class="st7" d="M648,578.95v-18.18h-17.37v-10.44H648v-18.18h10.44v18.18h17.46v10.44h-17.46v18.18H648z"/>
			<path class="st7" d="M3.64,668.96v-61.83h25.83c6.72,0,12.4,1.11,17.06,3.33c4.65,2.22,8.19,5.59,10.62,10.12
				c2.43,4.53,3.64,10.34,3.64,17.42c0,7.02-1.21,12.83-3.64,17.42c-2.43,4.59-5.97,8-10.62,10.21c-4.65,2.22-10.34,3.33-17.06,3.33
				H3.64z M19.75,656.35h9.54c2.52,0,4.71-0.36,6.57-1.08c1.86-0.72,3.42-1.77,4.68-3.15c1.26-1.38,2.19-3.09,2.79-5.13
				c0.6-2.04,0.9-4.38,0.9-7.02v-3.78c0-2.7-0.3-5.07-0.9-7.11c-0.6-2.04-1.53-3.75-2.79-5.13s-2.82-2.43-4.68-3.15
				c-1.86-0.72-4.05-1.08-6.57-1.08h-9.54V656.35z"/>
			<path class="st7" d="M62.14,668.96l23.22-61.83h19.35l23.22,61.83h-17.19l-3.69-10.71H82.39l-3.69,10.71H62.14z M86.26,646.18
				h16.83l-4.41-13.05c-0.24-0.66-0.53-1.49-0.86-2.48c-0.33-0.99-0.66-2.04-0.99-3.15c-0.33-1.11-0.64-2.23-0.94-3.37
				c-0.3-1.14-0.6-2.13-0.9-2.97h-0.63c-0.24,1.14-0.58,2.43-1.03,3.87c-0.45,1.44-0.9,2.88-1.35,4.32
				c-0.45,1.44-0.86,2.7-1.21,3.78L86.26,646.18z"/>
			<path class="st7" d="M141.61,668.96v-48.6h-20.07v-13.23h56.25v13.23h-20.07v48.6H141.61z"/>
			<path class="st7" d="M171.67,668.96l23.22-61.83h19.35l23.22,61.83h-17.19l-3.69-10.71h-24.66l-3.69,10.71H171.67z M195.8,646.18
				h16.83l-4.41-13.05c-0.24-0.66-0.53-1.49-0.86-2.48c-0.33-0.99-0.66-2.04-0.99-3.15c-0.33-1.11-0.64-2.23-0.94-3.37
				c-0.3-1.14-0.6-2.13-0.9-2.97h-0.63c-0.24,1.14-0.58,2.43-1.03,3.87c-0.45,1.44-0.9,2.88-1.35,4.32
				c-0.45,1.44-0.86,2.7-1.21,3.78L195.8,646.18z"/>
			<path class="st7" d="M283.91,670.04c-3.9,0-7.56-0.35-10.98-1.04c-3.42-0.69-6.44-1.81-9.05-3.37c-2.61-1.56-4.67-3.61-6.16-6.16
				c-1.5-2.55-2.25-5.69-2.25-9.4c0-0.24,0-0.51,0-0.81c0-0.3,0.03-0.54,0.09-0.72h15.57c0,0.18-0.02,0.41-0.05,0.68
				c-0.03,0.27-0.05,0.5-0.05,0.68c0,1.92,0.5,3.46,1.49,4.64c0.99,1.17,2.38,2.01,4.19,2.52c1.8,0.51,3.9,0.76,6.3,0.76
				c1.32,0,2.55-0.06,3.69-0.18c1.14-0.12,2.16-0.33,3.06-0.63c0.9-0.3,1.69-0.67,2.39-1.12c0.69-0.45,1.2-0.99,1.53-1.62
				c0.33-0.63,0.5-1.36,0.5-2.21c0-1.38-0.53-2.52-1.57-3.42c-1.05-0.9-2.46-1.65-4.23-2.25c-1.77-0.6-3.77-1.17-5.99-1.71
				c-2.22-0.54-4.53-1.11-6.93-1.71c-2.4-0.6-4.71-1.35-6.93-2.25c-2.22-0.9-4.22-2.04-5.98-3.42c-1.77-1.38-3.18-3.11-4.23-5.17
				c-1.05-2.07-1.57-4.58-1.57-7.52c0-3.24,0.69-6.04,2.07-8.41c1.38-2.37,3.28-4.31,5.71-5.81c2.43-1.5,5.23-2.59,8.42-3.28
				c3.18-0.69,6.57-1.04,10.17-1.04c3.54,0,6.85,0.36,9.95,1.08c3.09,0.72,5.83,1.84,8.23,3.37c2.4,1.53,4.28,3.45,5.62,5.76
				c1.35,2.31,2.05,5.08,2.12,8.32v1.08h-15.48v-0.63c0-1.38-0.38-2.59-1.12-3.65c-0.75-1.05-1.88-1.89-3.38-2.52
				c-1.5-0.63-3.36-0.94-5.58-0.94c-2.22,0-4.1,0.21-5.63,0.63c-1.53,0.42-2.7,1.02-3.51,1.8c-0.81,0.78-1.21,1.71-1.21,2.79
				c0,1.32,0.52,2.4,1.58,3.24c1.05,0.84,2.48,1.56,4.27,2.16c1.8,0.6,3.81,1.16,6.03,1.67c2.22,0.51,4.51,1.05,6.88,1.62
				c2.37,0.57,4.66,1.29,6.89,2.16c2.22,0.87,4.23,1.98,6.03,3.33c1.8,1.35,3.22,3.02,4.27,5c1.05,1.98,1.58,4.38,1.58,7.2
				c0,4.92-1.16,8.88-3.47,11.88c-2.31,3-5.49,5.19-9.54,6.57C293.58,669.35,289.01,670.04,283.91,670.04z"/>
			<path class="st7" d="M319.37,668.96v-61.83h51.03v12.6h-34.92v11.61h30.51v12.33h-30.51v12.69h35.55v12.6H319.37z"/>
			<path class="st7" d="M380.3,668.96v-61.83h35.91c4.56,0,8.37,0.85,11.43,2.56c3.06,1.71,5.35,4.05,6.89,7.02
				c1.53,2.97,2.29,6.29,2.29,9.95c0,3.96-0.92,7.49-2.74,10.57c-1.83,3.09-4.4,5.51-7.69,7.25l12.42,24.48h-18l-10.26-21.78h-14.13
				v21.78H380.3z M396.41,635.2h16.65c2.22,0,4-0.73,5.35-2.2c1.35-1.47,2.02-3.44,2.02-5.9c0-1.62-0.3-3-0.9-4.14
				c-0.6-1.14-1.44-2.02-2.52-2.65c-1.08-0.63-2.4-0.95-3.96-0.95h-16.65V635.2z"/>
			<path class="st7" d="M462.11,668.96l-22.23-61.83h17.28l11.34,34.92c0.24,0.72,0.54,1.67,0.9,2.83c0.36,1.17,0.74,2.37,1.12,3.6
				c0.39,1.23,0.7,2.33,0.95,3.29h0.63c0.3-0.9,0.61-1.94,0.94-3.11c0.33-1.17,0.68-2.34,1.04-3.51c0.36-1.17,0.66-2.17,0.9-3.02
				l11.34-35.01h16.65l-22.14,61.83H462.11z"/>
			<path class="st7" d="M509.18,668.96v-61.83h16.11v61.83H509.18z"/>
			<path class="st7" d="M565.43,670.04c-6.66,0-12.32-1.16-16.97-3.47c-4.65-2.31-8.18-5.83-10.58-10.57c-2.4-4.74-3.6-10.74-3.6-18
				c0-10.68,2.69-18.68,8.06-23.99c5.37-5.31,13.06-7.97,23.09-7.97c5.58,0,10.53,0.95,14.85,2.83c4.32,1.89,7.69,4.71,10.13,8.46
				c2.43,3.75,3.64,8.42,3.64,14H578.3c0-2.64-0.53-4.91-1.58-6.79c-1.05-1.89-2.52-3.35-4.41-4.37c-1.89-1.02-4.18-1.53-6.88-1.53
				c-3.36,0-6.12,0.69-8.28,2.07c-2.16,1.38-3.75,3.36-4.77,5.94c-1.02,2.58-1.53,5.7-1.53,9.36v4.05c0,3.66,0.51,6.79,1.53,9.4
				c1.02,2.61,2.59,4.59,4.72,5.94c2.13,1.35,4.88,2.02,8.24,2.02c2.88,0,5.32-0.48,7.34-1.44c2.01-0.96,3.54-2.39,4.59-4.28
				c1.05-1.89,1.58-4.15,1.58-6.79h15.21c0,5.58-1.19,10.23-3.56,13.95c-2.37,3.72-5.7,6.51-9.99,8.37
				C576.21,669.11,571.19,670.04,565.43,670.04z"/>
			<path class="st7" d="M603.05,668.96v-61.83h51.03v12.6h-34.92v11.61h30.51v12.33h-30.51v12.69h35.55v12.6H603.05z"/>
			<path class="st7" d="M689.63,670.04c-3.9,0-7.56-0.35-10.98-1.04c-3.42-0.69-6.43-1.81-9.04-3.37c-2.61-1.56-4.67-3.61-6.16-6.16
				c-1.5-2.55-2.25-5.69-2.25-9.4c0-0.24,0-0.51,0-0.81c0-0.3,0.03-0.54,0.09-0.72h15.57c0,0.18-0.02,0.41-0.05,0.68
				c-0.03,0.27-0.04,0.5-0.04,0.68c0,1.92,0.5,3.46,1.48,4.64c0.99,1.17,2.39,2.01,4.19,2.52c1.8,0.51,3.9,0.76,6.3,0.76
				c1.32,0,2.55-0.06,3.69-0.18c1.14-0.12,2.16-0.33,3.06-0.63c0.9-0.3,1.69-0.67,2.39-1.12c0.69-0.45,1.2-0.99,1.53-1.62
				c0.33-0.63,0.5-1.36,0.5-2.21c0-1.38-0.53-2.52-1.58-3.42c-1.05-0.9-2.46-1.65-4.23-2.25c-1.77-0.6-3.77-1.17-5.98-1.71
				c-2.22-0.54-4.53-1.11-6.93-1.71c-2.4-0.6-4.71-1.35-6.93-2.25c-2.22-0.9-4.22-2.04-5.99-3.42c-1.77-1.38-3.18-3.11-4.23-5.17
				c-1.05-2.07-1.57-4.58-1.57-7.52c0-3.24,0.69-6.04,2.07-8.41c1.38-2.37,3.29-4.31,5.72-5.81c2.43-1.5,5.23-2.59,8.41-3.28
				c3.18-0.69,6.57-1.04,10.17-1.04c3.54,0,6.85,0.36,9.95,1.08c3.09,0.72,5.83,1.84,8.23,3.37c2.4,1.53,4.28,3.45,5.63,5.76
				c1.35,2.31,2.06,5.08,2.12,8.32v1.08h-15.48v-0.63c0-1.38-0.38-2.59-1.12-3.65c-0.75-1.05-1.88-1.89-3.38-2.52
				c-1.5-0.63-3.36-0.94-5.58-0.94c-2.22,0-4.1,0.21-5.63,0.63c-1.53,0.42-2.7,1.02-3.51,1.8c-0.81,0.78-1.21,1.71-1.21,2.79
				c0,1.32,0.52,2.4,1.58,3.24c1.05,0.84,2.47,1.56,4.27,2.16c1.8,0.6,3.81,1.16,6.03,1.67c2.22,0.51,4.51,1.05,6.88,1.62
				c2.37,0.57,4.66,1.29,6.88,2.16c2.22,0.87,4.23,1.98,6.03,3.33c1.8,1.35,3.22,3.02,4.28,5c1.05,1.98,1.57,4.38,1.57,7.2
				c0,4.92-1.16,8.88-3.46,11.88c-2.31,3-5.49,5.19-9.54,6.57S694.73,670.04,689.63,670.04z"/>
		</g>
		<path d="M359.42,323.63l176.62-118.61l2.11-1.41v-40.04L359.42,283.59L193.99,172.5L359.45,61.39l136.65,89.32
			c-0.52,1.48-0.82,3.07-0.82,4.73c0,7.85,6.39,14.24,14.24,14.24s14.24-6.39,14.24-14.24s-6.39-14.24-14.24-14.24
			c-2.7,0-5.22,0.77-7.38,2.08L359.38,49.96L176.91,172.5l182.5,122.56l169.2-113.63v17.1l-169.2,113.63l-182.5-123.05v40.04
			l182.5,123.05l169.2-113.63v17.1L359.42,369.3L205.27,265.78c0.15-0.82,0.24-1.66,0.24-2.52c0-7.85-6.39-14.24-14.24-14.24
			c-7.85,0-14.24,6.39-14.24,14.24c0,7.85,6.39,14.24,14.24,14.24c3.53,0,6.76-1.3,9.26-3.44l158.9,106.71l176.62-118.61l2.11-1.41
			v-40.04L359.42,340.73L186.44,224.07v-17.1L359.42,323.63z M509.52,148.82c3.65,0,6.62,2.97,6.62,6.62s-2.97,6.62-6.62,6.62
			s-6.62-2.97-6.62-6.62S505.86,148.82,509.52,148.82z M191.26,269.88c-3.65,0-6.62-2.97-6.62-6.62s2.97-6.62,6.62-6.62
			c3.65,0,6.62,2.97,6.62,6.62S194.91,269.88,191.26,269.88z"/>
	</g>
</g>
</svg>
