<svg xmlns="http://www.w3.org/2000/svg" height="69.384" viewBox="0 0 250 69.384003" width="250"><g transform="matrix(1.25 0 0 -1.25 -257.37 529.41)"><g><path d="m201.52 25.244v5.561c-0.55-0.081-1.14-0.157-1.96-0.157-4.59 0-7.93 3.011-7.93 7.159 0 4.162 3.08 6.851 7.84 6.851 2.07 0 3.97-0.371 5.34-1.043l0.05-0.021v-18.35h-3.34zm18.97 0v19.133h3.34v-9.363c1.41-1.088 2.64-1.616 3.77-1.616 1.99 0 2.26 1.521 2.26 3.008v7.971h3.34v-8.783c0-4.464-3.17-4.946-4.53-4.946-2.05 0-3.59 0.872-4.84 1.752v-7.156h-3.34zm-171.01 0.026v12.314c0 2.356 0.67 4.136 1.99 5.291 1.308 1.165 3.425 1.783 6.121 1.783 2.818 0 4.971-0.677 6.398-2.01 1.28-1.195 1.955-2.926 1.955-5.009v-12.369h-3.631v12.341c0 1.441-0.362 2.486-1.111 3.196-0.832 0.819-1.928 1.185-3.553 1.185-1.455 0-2.471-0.367-3.3-1.185-0.817-0.797-1.27-1.993-1.27-3.364v-12.173h-3.599zm137.05 0v19.107h3.54v-19.107h-3.54zm-102.13 0.031c-1.194 0-2.129 0.83-2.129 1.89 0 1.062 0.935 1.895 2.129 1.895 1.157 0 2.1-0.851 2.1-1.895 0-1.06-0.923-1.89-2.1-1.89zm53.238 0c-1.19 0-2.13 0.83-2.13 1.89 0 1.062 0.94 1.895 2.13 1.895 1.16 0 2.1-0.851 2.1-1.895 0-1.06-0.92-1.89-2.1-1.89zm9.2 1.767l-0.09 0.026-3.2 0.896-0.05 0.014v2.98h-2.52v2.414h2.52v8.19c0 1.98 1.24 3.07 3.48 3.07 1.53 0 3.28-0.543 4.58-1.414l0.06-0.033-0.92-1.961-0.04-0.076-0.06 0.045c-0.59 0.364-1.49 0.801-2.42 0.801-0.92 0-1.34-0.468-1.34-1.469v-7.153h4.51c2.04 4.462 4.74 10.375 4.86 10.717-0.04 0.137-0.45 1.119-1.28 2.272-0.77 1.072-2.1 2.551-4.04 3.508l-0.07 0.037 0.05 0.07 1.49 1.998 0.04 0.043 0.05-0.02c1.74-0.675 3.43-2.2 5.03-4.531 1.28-1.86 2.51-4.235 3.64-7.06 1.94-4.808 2.96-9.313 2.97-9.358l0.02-0.09h-2.95l-0.01 0.057c-0.01 0.066-1.48 6.479-3.31 9.998-1.7-3.734-4.23-9.945-4.25-10.008l-0.02-0.047h-6.73v-3.916zm-24.97 3.496c-1.25 0-2.19 0.444-3.84 1.821l-0.37-1.348-0.01-0.053h-2.8v13.393h3.34v-9.59c0.96-0.817 1.89-1.256 2.7-1.269h0.06c0.62 0 1.46 0.154 1.92 0.494l0.08 0.062 0.03-0.103c0.44-1.725 1.2-2.624 1.21-2.633l0.05-0.055-0.05-0.047c-0.54-0.458-1.7-0.672-2.32-0.672zm-45.712 0.084c-1.773 0-3.26 0.516-5.111 1.776l-0.342-1.385-0.014-0.055h-2.8v13.393h3.338v-9.416c0.949-0.677 2.371-1.563 3.886-1.563 1.97 0 2.199 1.7 2.199 2.979v8h3.338v-8.922c0-3.548-2.422-4.807-4.494-4.807zm30.712 0c-3.78 0-6.43 2.853-6.43 6.936 0 3.263 1.87 7.074 7.14 7.074 1.85 0 3.84-0.553 5.19-1.441l0.05-0.035-0.03-0.059c0-0.01-0.53-1.01-0.82-2.059l-0.03-0.093-0.08 0.05c-1.17 0.708-2.45 1.083-3.7 1.083-2.46 0-4.22-1.504-4.28-3.665h9.33v-0.884c0-4.196-2.49-6.907-6.34-6.907zm22.71 0c-3.23 0-5.32 1.513-5.32 3.854 0 2.658 2.15 3.462 4.05 4.17 1.4 0.524 2.61 0.976 2.61 2.076 0 0.94-0.99 1.523-2.6 1.523-1.37 0-2.74-0.453-3.76-1.246l-0.08-0.06-0.03 0.094c-0.49 1.339-1.06 2.302-1.07 2.312l-0.04 0.063 0.07 0.037c1.38 0.798 3.04 1.187 5.07 1.187 3.64 0 5.81-1.547 5.81-4.135 0-2.643-2.35-3.528-4.23-4.242-1.37-0.518-2.55-0.966-2.55-1.92 0-1.081 1.37-1.242 2.2-1.242 1.36 0 2.61 0.272 3.81 0.832l0.1 0.051v-0.119c-0.06-1.258 0.09-2.442 0.09-2.453v-0.057l-0.05-0.021c-0.9-0.328-2.17-0.704-4.08-0.704zm83.14 0c-2.18 0-3.83 0.456-5.53 1.524l-0.06 0.037 0.03 0.061 1.08 1.875 0.03 0.064 0.07-0.037c1.18-0.708 2.41-1.053 3.74-1.053 1.29 0 2.84 0.425 2.84 2.447v0.321l-2.63 0.082c-3.93 0.145-6.09 1.724-6.09 4.443 0 2.46 1.98 4.246 4.71 4.246 1.66 0 3.09-0.495 4.27-1.47l0.57 1.15 0.03 0.039h2.82l-0.04-0.1c-0.21-0.515-0.27-1.45-0.27-4.006v-4.845c0-3.171-1.88-4.778-5.57-4.778zm29 0c-1.96 0-3.74 0.663-5 1.868-1.36 1.272-2.11 3.121-2.11 5.207 0 2.17 0.79 4.049 2.21 5.291 1.21 1.074 2.9 1.644 4.9 1.644s3.76-0.636 5.08-1.84c1.34-1.252 2.08-3.092 2.08-5.179 0-2.069-0.72-3.88-2.02-5.094-1.26-1.241-3.04-1.897-5.14-1.897zm-60.68 0.29c-0.81 0-3.48 0.255-4.12 3.519l-0.18 0.922h-1.44l-0.02 0.053-0.51 1.759-0.03 0.092h1.76c-0.07 0.457-0.14 0.896-0.2 1.319-0.59 3.8-0.97 6.309-3.51 8.611l-0.06 0.051 0.05 0.054 1.4 1.418 0.05 0.047 0.05-0.043c3.32-2.73 3.94-6.791 4.53-10.72l0.11-0.737h1.89l0.02-0.045 0.72-1.859h-2.29l0.14-0.727c0.22-1.106 0.83-1.716 1.71-1.716 0.49 0 0.92 0.128 1.36 0.404l0.07 0.041 0.04-0.069 0.89-1.642 0.04-0.063-0.07-0.037c-0.77-0.437-1.51-0.632-2.4-0.632zm-98.308 0.046v13.393h3.338v-13.393h-3.338zm4.414 0l0.043 0.102 5.596 13.332 0.018 0.043h2.363l0.02-0.043 5.804-13.332 0.04-0.102h-3.132l-0.019 0.047-3.818 9.451-3.584-9.451-0.02-0.047h-3.311zm48.824 0v13.393h3.34v-13.393h-3.34zm-29.07 2.08c1.91 0 2.96 1.533 3.02 3.073h-6.08c0.04-1.523 1.18-3.073 3.06-3.073zm134.79 0.082c2.32 0 3.76 1.731 3.76 4.52s-1.42 4.522-3.7 4.522c-2.27 0-3.74-1.775-3.74-4.522 0-2.83 1.38-4.52 3.68-4.52zm-42 0.057c0.86 0 1.31 0.072 1.83 0.207v8.432c-0.46 0.14-1.14 0.232-1.71 0.232-2.94 0-4.84-1.74-4.84-4.435 0-2.653 1.89-4.436 4.72-4.436zm-29.25 1.971c-1.44 0-2.71 0.516-3.67 1.494-1.02 1.027-1.58 2.443-1.58 3.982 0 1.191 0.38 2.237 1.07 2.944 0.73 0.705 1.72 1.062 2.95 1.062 1.29 0 2.51-0.469 3.45-1.322 1.13-0.98 1.77-2.518 1.77-4.215 0-0.813-0.17-1.967-1.01-2.848-0.68-0.718-1.71-1.097-2.98-1.097zm-0.22 1.939c0.53 0 0.97 0.164 1.29 0.471 0.33 0.342 0.5 0.871 0.5 1.572 0 1.206-0.38 2.269-1.04 2.916-0.42 0.402-0.96 0.623-1.53 0.623-0.52 0-0.94-0.158-1.27-0.47-0.34-0.351-0.52-0.896-0.52-1.575 0-1.127 0.32-2.116 0.91-2.787 0.46-0.482 1.05-0.75 1.66-0.75zm44.67 1.076v2.944c-0.81 0.68-1.78 1.025-2.91 1.025-1.5 0-2.44-0.755-2.44-1.97 0-1.238 1-1.864 3.06-1.917l2.29-0.082z" transform="matrix(.8 0 0 -.8 205.9 423.53)"/><path d="m206.6 422.64v-14.703h4.9002v-24.503h-4.9002v-14.702h27.77v14.702h-4.9008v24.503h4.9008v14.703h-27.77z" fill="#f1b300"/><path d="m208.23 421h24.504v-11.435h-4.9002v-27.771h4.9002v-11.436h-24.504v11.436h4.9008v27.771h-4.9008v11.435" fill="#fff"/><path d="m214.77 380.16h-4.9008v-8.1672h21.236v8.1672h-4.9002v31.038h4.9002v8.1678h-21.236v-8.1678h4.9008v-31.038" fill="#f1b300"/></g></g></svg>
